<?xml version="1.0" standalone="no"?>
<!DOCTYPE svg PUBLIC "-//W3C//DTD SVG 1.1//EN" "http://www.w3.org/Graphics/SVG/1.1/DTD/svg11.dtd" >
<svg xmlns="http://www.w3.org/2000/svg">
<metadata></metadata>
<defs>
<font id="EmbarcaderoMVBBlkRegular" horiz-adv-x="1300" >
<font-face units-per-em="2048" ascent="1581" descent="-467" />
<missing-glyph horiz-adv-x="468" />
<glyph unicode="&#xfb01;" horiz-adv-x="1349" d="M20 813v281h117l37 -4l-6 34v123q0 133 89 216t255 83h16q166 0 201 -39v-235h-135q-43 0 -57 -15t-11 -53l2 -92v-22l41 4h160v-281h-154l-36 4l6 -35v-782h-377v782l6 35l-37 -4h-117zM852 1227v280h389v-280h-389zM858 0v1094h377v-1094h-377z" />
<glyph unicode="&#xfb02;" horiz-adv-x="1400" d="M20 813v281h117l37 -4l-6 34v123q0 133 89 216t255 83h16q166 0 201 -39v-235h-135q-43 0 -57 -15t-11 -53l2 -92v-22l41 4h160v-281h-154l-36 4l6 -35v-782h-377v782l6 35l-37 -4h-117zM858 313v1194h377v-1161q0 -26 18.5 -44.5t46.5 -18.5h54v-271q-17 -17 -69.5 -28 t-100.5 -11h-13q-162 0 -237.5 86t-75.5 254z" />
<glyph unicode="&#xfb03;" horiz-adv-x="2052" d="M20 813v281h117l37 -4l-6 34v123q0 133 89 216t255 83h16q166 0 201 -39v-235h-135q-43 0 -57 -15t-11 -53l2 -92v-22h349l-7 34v123q0 133 89 216t255 83h17q166 0 201 -39v-235h-136q-43 0 -56.5 -15t-10.5 -53l2 -92v-22l41 4h160v-281h-154l-37 4l6 -35v-782h-377 v782l7 35h-338l6 -35v-782h-377v782l6 35l-37 -4h-117zM1554 1227v280h390v-280h-390zM1561 0v1094h376v-1094h-376z" />
<glyph unicode="&#xfb04;" horiz-adv-x="2103" d="M20 813v281h117l37 -4l-6 34v123q0 133 89 216t255 83h16q166 0 201 -39v-235h-135q-43 0 -57 -15t-11 -53l2 -92v-22h349l-7 34v123q0 133 89 216t255 83h17q166 0 201 -39v-235h-136q-43 0 -56.5 -15t-10.5 -53l2 -92v-22l41 4h160v-281h-154l-37 4l6 -35v-782h-377 v782l7 35h-338l6 -35v-782h-377v782l6 35l-37 -4h-117zM1561 313v1194h376v-1161q0 -26 18.5 -44.5t47.5 -18.5h53v-271q-17 -17 -69.5 -28t-100.5 -11h-12q-162 0 -237.5 86t-75.5 254z" />
<glyph horiz-adv-x="0" />
<glyph horiz-adv-x="2048" />
<glyph unicode=" "  horiz-adv-x="468" />
<glyph unicode="&#x09;" horiz-adv-x="468" />
<glyph unicode="&#xa0;" horiz-adv-x="468" />
<glyph unicode="!" horiz-adv-x="714" d="M184 1124v322h412v-322l-72 -600h-260zM195 0v399h397v-399h-397z" />
<glyph unicode="&#x22;" horiz-adv-x="993" d="M102 760v428l27 258h336l-33 -279l-80 -407h-250zM567 760v428l27 258h336l-33 -279l-80 -407h-250z" />
<glyph unicode="#" horiz-adv-x="1484" d="M119 258v328h200l33 -4l-2 34l43 250l10 35l-41 -4h-149v328h223l33 -4l-2 34l35 191h229l-35 -191l-10 -34l41 4h234l32 -4l-2 34l37 191h229l-34 -191l-11 -34l41 4h121v-328h-190l-33 4l2 -35l-43 -250l-10 -34l41 4h145v-328h-215l-33 4l2 -35l-41 -227h-237l43 227 l10 35l-41 -4h-229l-33 4l2 -35l-41 -227h-235l43 227l10 35l-41 -4h-131zM573 582l41 4h234l33 -4l-2 34l39 250l10 35l-41 -4h-230l-32 4l2 -35l-43 -250z" />
<glyph unicode="$" d="M55 375l273 135l18 -23q49 -59 134.5 -107t183.5 -48q198 0 198 88q0 39 -31 60t-108 34l-207 35q-87 15 -157 43.5t-127 75.5t-88 118t-31 162q0 153 102 256t287 135v189h303v-191q102 -22 186 -74.5t170 -138.5l29 -28q18 -18 18 -54l-272 -135l-23 23 q-31 31 -53.5 50t-57.5 41t-76.5 33t-90.5 11q-72 0 -115 -29t-43 -61q0 -36 23.5 -53.5t95.5 -30.5l213 -39q190 -34 306 -134.5t116 -262.5q0 -158 -107.5 -272.5t-318.5 -143.5v-238h-303v246q-128 25 -225 87.5t-179 158.5l-24 29q-19 22 -19 53z" />
<glyph unicode="%" horiz-adv-x="1959" d="M70 1059q0 135 23 203t71 116q111 111 293 111t293 -111q56 -56 75 -132.5t19 -186.5q-1 -157 -26.5 -229.5t-78.5 -120.5q-113 -101 -282 -101q-170 0 -283 101q-53 48 -78 120.5t-26 229.5zM309 1047q0 -139 41 -177q42 -39 107 -39q64 0 106 39q41 38 41 177 q0 142 -41 180q-42 39 -106 39q-68 0 -107 -39q-41 -41 -41 -180zM426 0l821 1446h287l-821 -1446h-287zM1114 408q0 135 23 203t71 116q111 111 293 111t293 -111q56 -56 75 -132.5t19 -186.5q-1 -157 -26 -230t-78 -121q-111 -100 -283 -100q-171 0 -282 100 q-53 48 -78.5 121t-26.5 230zM1354 395q0 -138 41 -176q42 -39 106 -39q65 0 107 39q41 38 41 176q0 142 -41 180q-42 39 -107 39q-67 0 -106 -39q-41 -41 -41 -180z" />
<glyph unicode="&#x26;" horiz-adv-x="1632" d="M31 412q0 150 81.5 252t227.5 151q-70 47 -112 123.5t-42 165.5q0 77 32.5 146t92.5 122.5t153.5 85t207.5 31.5q239 0 372.5 -107.5t133.5 -269.5q0 -68 -21 -123t-62.5 -95.5t-85.5 -68t-108 -57.5l168 -150l252 254l289 -159q0 -25 -19 -41l-291 -277q70 -73 234 -73 h37v-322q-38 -33 -135 -33h-13q-111 0 -211.5 51.5t-162.5 133.5q-82 -86 -202 -135.5t-319 -49.5q-137 0 -249 52t-180 155t-68 238zM424 453q0 -76 57 -120t123 -44t121 27.5t88 64.5l-258 242q-131 -44 -131 -170zM553 1116q0 -31 13 -60t38.5 -53.5t38 -34.5t35.5 -26 q56 16 101.5 62t45.5 100q0 60 -38 98.5t-107 38.5q-61 0 -94 -37.5t-33 -87.5z" />
<glyph unicode="'" horiz-adv-x="524" d="M102 760v428l27 258h336l-33 -279l-80 -407h-250z" />
<glyph unicode="(" horiz-adv-x="821" d="M117 580v59q0 133 26.5 261t69.5 229t99.5 190.5t112.5 152t114 107.5h297v-47q0 -32 -19 -43q-151 -108 -249.5 -341.5t-98.5 -508.5v-59q0 -275 98.5 -508.5t249.5 -341.5q19 -11 19 -43v-47h-297q-58 45 -114 107.5t-112.5 152t-99.5 190.5t-69.5 229t-26.5 261z" />
<glyph unicode=")" horiz-adv-x="821" d="M-14 -313q0 32 18 43q151 108 249.5 341.5t98.5 508.5v59q0 275 -98.5 508.5t-249.5 341.5q-18 11 -18 43v47h297q58 -45 114 -107.5t112.5 -152t99.5 -190.5t69.5 -229t26.5 -261v-59q0 -133 -26.5 -261t-69.5 -229t-99.5 -190.5t-112.5 -152t-114 -107.5h-297v47z" />
<glyph unicode="*" horiz-adv-x="931" d="M41 1053l78 229l143 -47l105 -72l16 19l-39 108v156h246v-156l-35 -108l16 -19l93 70l151 47l76 -229l-150 -52l-120 -4l-7 -22l95 -66l98 -125l-203 -147l-92 129l-35 117h-24l-39 -117l-88 -129l-203 147l94 127l100 72l-6 25l-125 -5z" />
<glyph unicode="+" d="M4 469v332h438l41 -2l-6 39v438h350v-438l-6 -39l41 2h436v-332h-436l-41 4l6 -39v-434h-350v434l6 39l-41 -4h-438z" />
<glyph unicode="," horiz-adv-x="548" d="M61 -215q89 26 123.5 62.5t34.5 115.5v37h-82q-32 0 -46.5 14.5t-14.5 48.5v336h397v-438q0 -147 -101 -233t-259 -86z" />
<glyph unicode="-" horiz-adv-x="755" d="M82 469v340h592v-340h-592z" />
<glyph unicode="." horiz-adv-x="548" d="M76 0v399h397v-399h-397z" />
<glyph unicode="/" horiz-adv-x="989" d="M-74 -236q134 281 399.5 841t399.5 841h285q-133 -280 -401.5 -841t-401.5 -841h-281z" />
<glyph unicode="0" d="M63 737q0 232 39.5 366t128.5 226q153 160 418 160q261 0 418 -160q89 -92 128.5 -226t39.5 -366q0 -252 -41 -392t-133 -232q-152 -152 -412 -152q-256 0 -411 152q-92 92 -133.5 232t-41.5 392zM471 737q0 -206 14.5 -283.5t51.5 -111.5q40 -37 112 -37q73 0 113 37 q37 34 51 111t14 284q0 188 -13.5 259.5t-47.5 105.5q-41 41 -117 41t-117 -41q-34 -34 -47.5 -105.5t-13.5 -259.5z" />
<glyph unicode="1" d="M188 0v322h279l41 -5l-6 37v725l6 37l-238 -96q-32 -14 -82 -14v299l379 141h346l-14 -158v-934l-8 -37l41 5h201v-322h-945z" />
<glyph unicode="2" d="M74 0v299q0 169 112.5 305.5t302.5 216.5l181 76q69 29 105 64.5t36 89.5q0 53 -36.5 82.5t-98.5 29.5q-149 0 -260 -174l-25 -39l-317 144q0 28 26 65l23 35q191 295 549 295q264 0 410.5 -129t146.5 -340q0 -75 -25.5 -140.5t-64 -112t-101 -91t-119 -74t-135.5 -63.5 l-182 -80q-53 -24 -74 -46t-26 -59l-4 -37l41 5h669v-322h-1134z" />
<glyph unicode="3" d="M43 1126q0 33 25 64l22 33q31 44 80.5 87t119 85t164 68t195.5 26q88 0 175.5 -21t166.5 -63t128.5 -117t49.5 -172q0 -117 -57 -191.5t-143 -107.5v-16q33 -4 65 -14t69 -32.5t64.5 -54t45.5 -83t18 -115.5q0 -260 -246.5 -393.5t-726.5 -133.5h-92q-28 0 -64 25v326 h220q240 0 371.5 45.5t131.5 136.5q0 50 -34 72t-103 22q-59 0 -98 -8l-223 -47l-70 299l270 41q88 14 147.5 58t59.5 120q0 51 -39 80t-108 29q-125 0 -226 -127l-47 -60z" />
<glyph unicode="4" d="M33 258v268q0 27 14 49l563 871h445v-856l-4 -37l39 4h151v-299h-151l-39 4l4 -37v-225h-400v221l7 37h-629zM330 557h291l41 -4l-7 37v274l15 180l-11 3l-294 -459z" />
<glyph unicode="5" d="M115 625l61 821h965v-322h-672l-18 -229l51 27q102 55 221 55q240 0 371 -113.5t131 -331.5q0 -297 -228 -427t-714 -130h-97q-24 0 -63 25v322h219q504 0 504 198q0 76 -43 118t-150 42q-47 0 -87 -8.5t-65.5 -18t-54 -30t-40 -31.5t-35.5 -35l-25 -25z" />
<glyph unicode="6" d="M57 604q0 234 41 396.5t136 274t249.5 163t380.5 51.5q195 0 262 -43v-322q-307 25 -348 25q-148 0 -233.5 -62t-85.5 -186v-20l41 34q98 80 282 80q206 0 338.5 -130.5t132.5 -342.5q0 -267 -155 -414t-432 -147q-299 0 -461 156q-74 74 -111 186.5t-37 300.5zM449 485 q0 -204 206 -204q207 0 207 204q0 90 -55.5 142.5t-151.5 52.5q-98 0 -152 -52t-54 -143z" />
<glyph unicode="7" d="M129 1124v322h1063v-256q-2 -3 -44 -46.5t-70 -76.5t-58 -74q-235 -328 -320 -993h-424q9 84 23.5 162.5t28.5 140.5t38.5 130.5t40.5 113t50 108t51 95.5t59 96t59 89t66 94.5t66 94.5h-629z" />
<glyph unicode="8" d="M53 418q0 62 12.5 115t34.5 89t44.5 63t50 45t42.5 26t31 14v18q-184 77 -184 299q0 172 149.5 287t417.5 115t418 -115t150 -287q0 -222 -185 -299v-18q16 -6 31 -14t42.5 -26t50 -45t44.5 -63t34.5 -89t12.5 -115q0 -210 -154.5 -333.5t-443.5 -123.5 q-293 0 -445.5 123.5t-152.5 333.5zM440 449q0 -81 55.5 -131t153.5 -50q101 0 157 50t56 131q0 78 -55.5 127t-153.5 49q-96 0 -154.5 -49.5t-58.5 -126.5zM467 1044q0 -75 47.5 -115t136.5 -40t137 40t48 115t-48 115.5t-137 40.5q-87 0 -135.5 -40.5t-48.5 -115.5z" />
<glyph unicode="9" d="M47 928q0 267 155.5 414t432.5 147q299 0 461 -156q74 -71 110.5 -184t36.5 -303q0 -234 -41 -396.5t-135.5 -275t-249.5 -165t-381 -52.5q-195 0 -262 43v322q307 -25 346 -25q149 0 235.5 64t86.5 188v20l-41 -34q-100 -82 -283 -82q-205 0 -338 130.5t-133 344.5z M438 965q0 -90 55.5 -142.5t151.5 -52.5q99 0 153 52.5t54 142.5q0 204 -207 204t-207 -204z" />
<glyph unicode=":" horiz-adv-x="679" d="M141 0v399h398v-399h-398zM141 692v402h398v-402h-398z" />
<glyph unicode=";" horiz-adv-x="679" d="M127 -215q89 26 123.5 62.5t34.5 115.5v37h-82q-33 0 -47.5 15t-14.5 48v336h398v-438q0 -146 -101 -232.5t-260 -86.5zM141 692v402h398v-402h-398z" />
<glyph unicode="&#x3c;" d="M63 528v220l1176 520v-371l-530 -215l-115 -31v-26l115 -29l530 -217v-371z" />
<glyph unicode="=" d="M63 211v336h1176v-336h-1176zM63 731v334h1176v-334h-1176z" />
<glyph unicode="&#x3e;" d="M63 8v371l531 217l115 29v26l-115 31l-531 215v371l1176 -520v-220z" />
<glyph unicode="?" horiz-adv-x="964" d="M2 1178q0 35 18 53l46 47q93 96 208.5 156.5t239.5 60.5q100 0 182 -32.5t134.5 -87.5t81 -125t28.5 -148q0 -187 -143 -320l-99 -90q-60 -56 -80 -91.5t-20 -76.5h-344q0 102 21.5 159.5t89.5 125.5l124 123q95 81 95 155q0 37 -27.5 59.5t-67.5 22.5q-42 0 -78 -20 t-81 -62l-45 -40zM236 0v399h397v-399h-397z" />
<glyph unicode="@" horiz-adv-x="2105" d="M98 451q0 487 269 759q258 258 690 258q531 0 778 -262q172 -181 172 -475q0 -197 -47.5 -324t-134.5 -210q-150 -144 -383 -144q-117 0 -195.5 33.5t-116.5 120.5h-4l-14 -21q-38 -52 -113.5 -92.5t-181.5 -40.5q-127 0 -215 84.5t-88 239.5q0 161 68 346t147 256 q91 82 229 82q161 0 252 -133l13 -19l30 131h320l-123 -630q-4 -20 -4 -27q0 -57 82 -57q59 0 102 43q46 46 75.5 149.5t29.5 226.5q0 118 -27.5 186t-89.5 130q-170 170 -567 170q-145 0 -259.5 -37t-192.5 -104t-129.5 -164.5t-75 -215t-23.5 -259.5q0 -160 30 -257 t101 -169q159 -162 506 -162q213 0 313.5 25t167.5 73l59 43l242 -119q0 -21 -16 -37l-41 -36q-225 -203 -717 -203q-461 0 -694 219q-122 115 -173 268t-51 355zM877 424q0 -55 23 -75.5t75 -20.5q59 0 100.5 38t52.5 95l37 186q9 47 -20 91t-96 44q-61 0 -93 -43 q-22 -30 -50.5 -124t-28.5 -191z" />
<glyph unicode="A" horiz-adv-x="1529" d="M4 0l539 1446h454l529 -1446h-465l-64 219l-4 37l-37 -4h-417l-37 4l-4 -37l-64 -219h-430zM602 573l37 5h219l37 -5q-20 55 -53.5 163t-40.5 130l-39 148h-21q-27 -95 -123 -404z" />
<glyph unicode="B" horiz-adv-x="1552" d="M152 0v1446h700q314 0 455 -148q102 -102 102 -256q0 -113 -60 -189t-122 -91v-14q29 -2 67 -24.5t76.5 -60.5t65 -101.5t26.5 -137.5q0 -178 -112 -287q-73 -68 -180.5 -102.5t-286.5 -34.5h-731zM545 305l37 4h268q93 0 135.5 30t42.5 105q0 76 -42.5 106t-135.5 30 h-268l-37 4l6 -35v-209zM545 862l39 4h231q93 0 135.5 30t42.5 105q0 76 -42.5 106t-135.5 30h-231l-39 4l8 -35v-209z" />
<glyph unicode="C" horiz-adv-x="1497" d="M84 737q0 184 46.5 320t148.5 241q184 191 499 191q316 0 559 -232l90 -86q19 -19 19 -43l-313 -163l-62 53q-45 40 -75.5 62.5t-79.5 42.5t-99 20q-145 0 -235 -90q-49 -49 -72 -119.5t-23 -196.5q0 -147 24.5 -219.5t78.5 -126.5q89 -86 227 -86q71 0 129 31.5 t139 97.5l48 39l317 -164q0 -21 -18 -39l-95 -94q-217 -217 -559 -217q-299 0 -479 170q-114 104 -164.5 250.5t-50.5 357.5z" />
<glyph unicode="D" horiz-adv-x="1615" d="M152 0v1446h688q308 0 510 -209q101 -107 150.5 -223t49.5 -285q0 -327 -223 -543q-94 -90 -209 -138t-278 -48h-688zM545 317l37 5h168q105 0 167 25.5t115 78.5q54 54 81 121t28 190q0 101 -26.5 163t-78.5 114q-52 55 -116.5 82.5t-169.5 27.5h-168l-37 4l6 -34v-742z " />
<glyph unicode="E" horiz-adv-x="1421" d="M152 0v1446h1157v-322h-729l-37 4l6 -34v-172l-6 -35l37 4h632v-326h-632l-37 4l6 -34v-183l-6 -35l37 5h749v-322h-1177z" />
<glyph unicode="F" horiz-adv-x="1306" d="M152 0v1446h1103v-322h-675l-37 4l6 -34v-172l-6 -35l37 4h579v-326h-579l-37 4l6 -34v-535h-397z" />
<glyph unicode="G" horiz-adv-x="1579" d="M84 737q0 362 195 563q186 189 495 189q89 0 167.5 -15.5t132 -36t112.5 -61t91.5 -68t88.5 -79.5l61 -58q19 -19 19 -43l-313 -163l-62 53q-86 75 -134 100t-120 25q-157 0 -248 -105q-43 -48 -62.5 -113t-19.5 -188q0 -146 24 -218.5t79 -123.5q93 -90 268 -90 q81 0 148.5 27t99.5 59l20 21v84l7 34l-37 -4h-336v318h704v-572q0 -23 -24 -47l-43 -43q-97 -97 -253 -160t-370 -63q-300 0 -481 174q-209 196 -209 604z" />
<glyph unicode="H" horiz-adv-x="1615" d="M152 0v1446h397v-524l-6 -35l37 4h456l37 -4l-6 35v524h397v-1446h-397v532l6 35l-37 -4h-456l-37 4l6 -35v-532h-397z" />
<glyph unicode="I" horiz-adv-x="700" d="M152 0v1446h397v-1446h-397z" />
<glyph unicode="J" horiz-adv-x="1259" d="M14 309l328 164l14 -24q87 -144 189 -144q81 0 127.5 51.5t46.5 135.5v954h399v-1012q0 -98 -30 -178t-81.5 -134.5t-123.5 -91.5t-154 -54t-174 -17q-365 0 -522 285l-10 18q-9 15 -9 47z" />
<glyph unicode="K" horiz-adv-x="1619" d="M152 0v1446h397v-524l528 524h502q0 -25 -18 -43l-594 -553l632 -807q19 -27 19 -43h-498l-436 588l-135 -125v-463h-397z" />
<glyph unicode="L" horiz-adv-x="1226" d="M152 0v1446h397v-1094l-6 -35l37 5h591v-322h-1019z" />
<glyph unicode="M" horiz-adv-x="1929" d="M152 0v1446h450l361 -723h14l360 723h441v-1446h-396v526l17 277h-13q-120 -263 -305 -649h-241q-182 390 -301 649h-13l17 -277v-526h-391z" />
<glyph unicode="N" horiz-adv-x="1603" d="M152 0v1446h407q44 -73 222.5 -361.5t273.5 -445.5h12l-8 235v572h393v-1446h-399l-482 764l-22 39h-12l8 -236v-567h-393z" />
<glyph unicode="O" horiz-adv-x="1650" d="M84 737q0 195 47 316.5t148 224.5q211 211 546 211q339 0 547 -211q101 -103 148 -224.5t47 -316.5q0 -211 -47 -337.5t-150 -229.5q-211 -211 -545 -211q-336 0 -544 211q-103 103 -150 229.5t-47 337.5zM487 737q0 -131 25 -210t80 -134q88 -88 233 -88q146 0 234 88 q55 55 79.5 134t24.5 210q0 116 -22.5 184.5t-73.5 122.5q-95 99 -242 99q-149 0 -241 -99q-52 -55 -74.5 -123t-22.5 -184z" />
<glyph unicode="P" horiz-adv-x="1458" d="M152 0v1446h737q265 0 397 -135q59 -59 87 -132t28 -206v-21q0 -229 -129 -348q-66 -62 -157 -91.5t-226 -29.5h-309l-37 4l6 -34v-453h-397zM543 801l37 4h247q98 0 137.5 36t39.5 124q0 83 -40.5 121t-136.5 38h-247l-37 4l6 -34v-258z" />
<glyph unicode="Q" horiz-adv-x="1650" d="M84 737q0 195 47 316.5t148 224.5q211 211 546 211q339 0 547 -211q101 -103 148 -224.5t47 -316.5q0 -211 -47 -337.5t-150 -229.5q-118 -118 -278 -172q31 -39 98 -64.5t166 -25.5h213v-307q-36 -25 -64 -25h-200q-119 0 -224 33t-183.5 90t-136.5 125.5t-99 148.5 q-232 44 -381 197q-102 102 -149 228.5t-48 338.5zM487 737q0 -131 25 -210t80 -134q88 -88 233 -88q146 0 234 88q55 55 79.5 134t24.5 210q0 116 -22.5 184.5t-73.5 122.5q-95 99 -242 99q-149 0 -241 -99q-52 -55 -74.5 -123t-22.5 -184z" />
<glyph unicode="R" horiz-adv-x="1511" d="M152 0v1446h694q321 0 467 -143q41 -39 65 -75t41 -102.5t17 -158.5q0 -186 -75.5 -296.5t-246.5 -144.5l361 -483q18 -25 18 -43h-467l-342 481h-104l-37 4l6 -34v-451h-397zM543 801l37 4h288q98 0 137 36t39 124q0 84 -40 121.5t-136 37.5h-288l-37 4l6 -34v-258z" />
<glyph unicode="S" horiz-adv-x="1490" d="M51 309l318 160l24 -29q52 -60 151 -108.5t226 -48.5q120 0 185 33.5t65 93.5q0 29 -14.5 50t-42 33t-52.5 18t-59 11l-252 33q-139 18 -228.5 55.5t-154.5 100.5q-121 114 -121 282q0 103 31.5 186.5t87 140.5t133.5 95.5t168.5 56t194.5 17.5q115 0 219 -24t183 -65.5 t136.5 -86.5t100.5 -96l14 -19q16 -19 16 -45l-317 -160l-31 37q-45 53 -126.5 95t-190.5 42q-107 0 -163 -39.5t-56 -85.5q0 -39 33 -61.5t114 -32.5l254 -33q275 -37 399 -161q123 -123 123 -299q0 -98 -37.5 -184.5t-112.5 -157.5t-202 -112.5t-291 -41.5q-129 0 -243 25 t-195 67t-135.5 83.5t-93.5 86.5l-39 45q-19 22 -19 43z" />
<glyph unicode="T" horiz-adv-x="1253" d="M23 1124v322h1208v-322h-371l-37 4l6 -34v-1094h-401v1094l6 34l-37 -4h-374z" />
<glyph unicode="U" horiz-adv-x="1591" d="M141 563v883h402v-877q0 -69 10 -114t37.5 -81t81 -52.5t137.5 -16.5q67 0 113 11.5t74 31.5t43.5 55t20.5 72.5t5 93.5v877h385v-883q0 -70 -5 -125.5t-21.5 -120.5t-44.5 -114t-77.5 -97t-117 -78.5t-166 -49.5t-221.5 -19t-221.5 19t-166 50t-117.5 78.5t-78.5 97 t-45 114t-22 120.5t-5.5 125z" />
<glyph unicode="V" horiz-adv-x="1359" d="M-12 1446h430l213 -694l45 -213h20l49 213l216 694h421l-524 -1446h-364z" />
<glyph unicode="W" horiz-adv-x="2134" d="M29 1446h415l144 -649l43 -213h20q29 130 64 273t79.5 319.5t67.5 269.5h406l162 -649l49 -213h20q25 131 57 274t72.5 319t61.5 269h415l-397 -1446h-410l-180 686l-43 213h-20l-43 -213l-176 -686h-410z" />
<glyph unicode="X" horiz-adv-x="1452" d="M8 0q0 7 2 13t3.5 9.5t6.5 10t7 10.5l456 698l-444 662q-1 1 -6 8.5t-6.5 10.5t-4 10t-2.5 14h461l221 -373l27 -51q47 86 143.5 238.5t116.5 185.5h445q0 -7 -2.5 -14t-4 -10t-6.5 -10.5t-6 -8.5l-446 -666l458 -694q1 -2 4.5 -6.5t5 -6.5t4 -6t3 -7t1.5 -7.5t1 -9.5 h-471l-221 418l-29 51q-38 -70 -84 -150t-98.5 -171t-85.5 -148h-449z" />
<glyph unicode="Y" horiz-adv-x="1398" d="M0 1446h469q29 -70 76.5 -183.5t88.5 -212t75 -184.5q43 117 133 326t108 254h453l-502 -961v-485h-401v485z" />
<glyph unicode="Z" horiz-adv-x="1454" d="M72 0v227l739 897h-661v322h1222v-227l-743 -897h753v-322h-1310z" />
<glyph unicode="[" horiz-adv-x="827" d="M180 -360v1939h494v-203h-144l-36 4l6 -32v-1477l-6 -33l36 4h144v-202h-494z" />
<glyph unicode="\" horiz-adv-x="989" d="M-20 1446h284q134 -281 399.5 -841t399.5 -841h-281q-133 281 -401 841.5t-401 840.5z" />
<glyph unicode="]" horiz-adv-x="827" d="M154 -158h143l37 -4l-6 33v1477l6 32l-37 -4h-143v203h493v-1939h-493v202z" />
<glyph unicode="^" d="M-41 381l584 1065h217l583 -1065h-370l-244 473l-63 150h-29q-40 -98 -91 -202t-116.5 -228t-99.5 -193h-371z" />
<glyph unicode="_" d="M-10 -201h1321v-250h-1321v250z" />
<glyph unicode="`" horiz-adv-x="929" d="M147 1413v117h228q26 0 43 -17l203 -206q16 -16 16 -45v-76h-191l-282 184q-17 11 -17 43z" />
<glyph unicode="a" horiz-adv-x="1232" d="M37 309q0 61 20.5 114.5t56 94t84.5 72.5t104 52.5t116 31.5l217 41q37 7 57.5 17.5t28.5 25t8 35.5q0 27 -33.5 46t-99.5 19q-44 0 -83 -10t-71.5 -29.5t-55 -37.5t-48.5 -44l-262 131q0 36 18 54l31 30q28 28 65.5 54.5t96.5 56.5t143 48.5t178 18.5q77 0 142 -8.5 t122.5 -27t101 -50t75.5 -75t48.5 -103.5t16.5 -135v-407q0 -18 11.5 -29.5t27.5 -11.5h55v-271q-19 -18 -71 -28.5t-107 -10.5h-29q-174 0 -217 160l-51 -51q-61 -61 -137.5 -90t-202.5 -29q-43 0 -88.5 10t-94 35t-86.5 63t-62.5 99.5t-24.5 138.5zM426 350 q0 -51 32.5 -87t86.5 -36q78 0 133 49t55 119v150l-26 -15l-187 -69q-45 -16 -69.5 -40.5t-24.5 -70.5z" />
<glyph unicode="b" horiz-adv-x="1292" d="M115 0v1507h377v-501l38 38q86 86 238 86q89 0 172.5 -35t146.5 -102q81 -83 112.5 -194t31.5 -252q0 -316 -158 -463q-130 -121 -305 -121q-75 0 -128.5 14.5t-78 31.5t-55.5 48l-45 45v-102h-346zM492 387q0 -47 44.5 -83t122.5 -36q74 0 117 37q31 31 43 89t12 163 q0 95 -10 144.5t-39 80.5q-40 43 -123 43q-78 0 -122.5 -36.5t-44.5 -83.5v-318z" />
<glyph unicode="c" horiz-adv-x="1110" d="M59 475q0 145 18.5 245.5t46 154t73.5 102.5q72 75 174 114t221 39q136 0 239 -42t164 -103l76 -76q19 -19 19 -53l-271 -139l-31 31q-38 38 -76.5 57.5t-93.5 19.5q-43 0 -73 -14t-47 -35.5t-26.5 -59.5t-12 -74.5t-2.5 -90.5q2 -118 10 -167t35 -77q39 -39 119 -39 q54 0 89.5 19t77.5 61l31 31l271 -139q0 -22 -3.5 -32t-15.5 -22l-74 -73q-150 -150 -405 -150q-243 0 -388 137t-145 375z" />
<glyph unicode="d" horiz-adv-x="1292" d="M61 547q0 137 29.5 250t112.5 198q65 66 149 100.5t172 34.5q152 0 238 -86l39 -38v501h377v-1507h-347v102l-45 -45q-31 -31 -55.5 -48t-78 -31.5t-128.5 -14.5q-83 0 -163 31t-142 90q-158 147 -158 463zM461 557q0 -105 12 -163t43 -89q37 -37 117 -37q78 0 123 36 t45 83v318q0 47 -45 83.5t-123 36.5q-86 0 -123 -43q-29 -31 -39 -80.5t-10 -144.5z" />
<glyph unicode="e" horiz-adv-x="1228" d="M59 514q0 318 129 453q78 81 178.5 122t251.5 41q268 0 416 -151q68 -72 101.5 -166t33.5 -244v-123h-702l-35 3v-29q0 -79 61.5 -131.5t157.5 -52.5q42 0 78 9.5t66.5 30.5t46.5 35t43 41l14 15l256 -127q0 -22 -3 -32t-15 -22l-72 -73q-146 -150 -422 -150 q-294 0 -440 143q-75 72 -109.5 165.5t-34.5 242.5zM430 670l33 2h301l31 -2l-2 32v29q0 51 -45 93t-130 42q-97 0 -141.5 -41t-44.5 -94v-29z" />
<glyph unicode="f" horiz-adv-x="743" d="M20 813v281h117l37 -4l-6 34v123q0 133 89 216t255 83h16q166 0 201 -39v-235h-135q-43 0 -57 -15t-11 -53l2 -92v-22l41 4h160v-281h-154l-36 4l6 -35v-782h-377v782l6 35l-37 -4h-117z" />
<glyph unicode="g" horiz-adv-x="1292" d="M61 547q0 137 29.5 250t112.5 198q65 66 149 100.5t172 34.5q152 0 238 -86l69 -69v119h347v-1012q0 -95 -19.5 -173.5t-53 -134.5t-82 -99t-101.5 -69.5t-118 -43t-125.5 -23t-127.5 -6.5q-142 0 -253 39.5t-167 99.5l-45 47q-18 18 -18 54l251 129q48 -48 103 -68 t145 -20q57 0 101 17t68.5 42.5t40 60t20 64t4.5 59.5v49l-45 -45q-45 -45 -94 -66.5t-138 -21.5q-83 0 -163 31t-142 90q-75 70 -116.5 175.5t-41.5 277.5zM461 557q0 -105 12 -163t43 -89q37 -37 117 -37q78 0 123 36t45 83v318q0 47 -45 83.5t-123 36.5q-86 0 -123 -43 q-29 -31 -39 -80.5t-10 -144.5z" />
<glyph unicode="h" horiz-adv-x="1273" d="M115 0v1507h377v-518l38 39q57 57 113 79.5t139 22.5q191 0 289 -98q57 -57 82 -146t25 -224v-662h-377v700q0 50 -36 87.5t-120 37.5q-31 0 -64.5 -11.5t-61 -41.5t-27.5 -72v-700h-377z" />
<glyph unicode="i" horiz-adv-x="606" d="M109 1227v280h389v-280h-389zM115 0v1094h377v-1094h-377z" />
<glyph unicode="j" horiz-adv-x="606" d="M-23 -176h60q42 0 60 19.5t18 58.5v1192h377v-1256q0 -139 -91 -219t-260 -80h-10q-119 0 -154 39v246zM109 1227v280h389v-280h-389z" />
<glyph unicode="k" horiz-adv-x="1243" d="M115 0v1507h377v-749l305 336h430q0 -16 -19 -43l-393 -381l430 -627q19 -27 19 -43h-459l-262 420l-51 -47v-373h-377z" />
<glyph unicode="l" horiz-adv-x="657" d="M115 313v1194h377v-1161q0 -26 18.5 -44.5t46.5 -18.5h53v-271q-17 -17 -69.5 -28t-100.5 -11h-12q-162 0 -237.5 86t-75.5 254z" />
<glyph unicode="m" horiz-adv-x="1902" d="M115 0v1094h346v-136l67 68q104 104 254 104q102 0 183 -39.5t147 -132.5l14 15q41 41 63.5 61t63 46.5t86.5 38t103 11.5q165 0 262 -114q52 -58 77 -140t25 -214v-662h-379v700q0 46 -36 85.5t-99 39.5q-57 0 -100 -31.5t-43 -93.5v-700h-379v700q0 46 -36 85.5 t-99 39.5q-57 0 -100 -31.5t-43 -93.5v-700h-377z" />
<glyph unicode="n" horiz-adv-x="1273" d="M115 0v1094h346v-136l69 70q57 57 113 79.5t139 22.5q191 0 289 -98q57 -57 82 -146t25 -224v-662h-377v700q0 50 -36 87.5t-120 37.5q-31 0 -64.5 -11.5t-61 -41.5t-27.5 -72v-700h-377z" />
<glyph unicode="o" horiz-adv-x="1255" d="M59 557q0 153 34.5 250t105.5 170q147 153 428 153t428 -153q71 -74 105 -169.5t34 -250.5q-1 -170 -39.5 -276.5t-116.5 -178.5q-149 -139 -411 -139q-267 0 -412 139q-78 72 -116.5 178.5t-39.5 276.5zM455 557q0 -107 11 -164t40 -86q42 -39 123 -39q80 0 119 39 q29 29 40 86t11 164q0 101 -10 148.5t-37 76.5q-40 43 -127 43q-83 0 -123 -43q-27 -29 -37 -76.5t-10 -148.5z" />
<glyph unicode="p" horiz-adv-x="1292" d="M115 -451v1545h346v-119l69 69q86 86 238 86q89 0 172.5 -35t146.5 -102q71 -72 107.5 -172.5t36.5 -273.5q0 -316 -158 -463q-130 -121 -305 -121q-87 0 -135.5 23.5t-95.5 70.5l-45 45v-553h-377zM492 387q0 -47 44.5 -83t122.5 -36q74 0 117 37q31 31 43 89t12 163 q0 95 -10 144.5t-39 80.5q-40 43 -123 43q-78 0 -122.5 -36.5t-44.5 -83.5v-318z" />
<glyph unicode="q" horiz-adv-x="1292" d="M61 547q1 174 37 275.5t105 172.5q65 66 149 100.5t172 34.5q152 0 238 -86l69 -69v119h347v-1545h-377v553l-45 -45q-47 -47 -96 -70.5t-136 -23.5q-83 0 -163 31t-142 90q-158 147 -158 463zM461 557q0 -105 12 -163t43 -89q37 -37 117 -37q78 0 123 36t45 83v318 q0 47 -45 83.5t-123 36.5q-86 0 -123 -43q-29 -31 -39 -80.5t-10 -144.5z" />
<glyph unicode="r" horiz-adv-x="821" d="M115 0v1094h329v-160l60 72q40 48 96.5 86t120.5 38h14q35 0 51 -36v-340h-141q-65 0 -109 -31t-44 -94v-629h-377z" />
<glyph unicode="s" horiz-adv-x="1165" d="M43 238l254 127l14 -15q129 -129 312 -129q71 0 104 20.5t33 53.5q0 35 -30 55t-95 31l-211 39q-50 9 -96.5 23.5t-95.5 41.5t-84.5 61.5t-58.5 87t-23 114.5q0 84 31 154t94 125.5t168 86.5t243 31q137 0 253.5 -47t182.5 -113l31 -31q18 -18 18 -53l-253 -127l-23 23 q-90 90 -238 90q-74 0 -111.5 -23.5t-37.5 -54.5q0 -28 37.5 -46t122.5 -34l209 -39q57 -11 110.5 -33t106.5 -61t85.5 -103.5t32.5 -146.5q0 -178 -138 -285.5t-408 -107.5q-289 0 -492 203l-29 28q-18 18 -18 54z" />
<glyph unicode="t" horiz-adv-x="786" d="M20 813v281h117l37 -4l-6 34v260h377v-260l-6 -34l36 4h154v-281h-154l-36 4l6 -35v-436q0 -26 18.5 -44.5t46.5 -18.5h119v-271q-18 -18 -75.5 -28.5t-123.5 -10.5h-12q-181 0 -265.5 81t-84.5 218v510l6 35l-37 -4h-117z" />
<glyph unicode="u" horiz-adv-x="1282" d="M104 432v662h377v-701q0 -50 36 -87.5t120 -37.5q31 0 64.5 11.5t61.5 41.5t28 72v701h376v-1094h-346v135l-69 -69q-57 -57 -113 -80t-139 -23q-112 0 -189 29t-122.5 90t-65 145.5t-19.5 204.5z" />
<glyph unicode="v" horiz-adv-x="1120" d="M0 1094h397l138 -486l28 -108h10q32 119 97.5 340.5t74.5 253.5h375l-405 -1094h-314z" />
<glyph unicode="w" horiz-adv-x="1691" d="M4 1094h381l111 -476l16 -108h10q31 119 100 336t78 248h306l155 -476l29 -108h10q18 120 64.5 336t52.5 248h375l-316 -1094h-334l-165 524l-25 109h-10l-25 -109l-164 -524h-336z" />
<glyph unicode="x" horiz-adv-x="1245" d="M12 0q0 16 19 43l366 518l-340 490q-18 25 -18 43h432l137 -248l21 -41q30 59 92 163t74 126h407q0 -18 -18 -43l-334 -484l360 -524q19 -27 19 -43h-434l-154 274l-20 43q-34 -64 -102.5 -178.5t-82.5 -138.5h-424z" />
<glyph unicode="y" horiz-adv-x="1122" d="M-6 1094h397l146 -523l32 -125h11q31 133 102 375t80 273h366l-403 -1180q-22 -65 -46.5 -115.5t-62 -101t-83 -84t-111 -54t-143.5 -20.5h-11q-105 0 -135 35v270h113q49 0 70.5 15.5t41.5 66.5l23 58z" />
<glyph unicode="z" horiz-adv-x="1081" d="M47 0v193l471 620h-416v281h924v-193l-471 -620h489v-281h-997z" />
<glyph unicode="{" horiz-adv-x="849" d="M66 504v233h133q48 0 69 19.5t21 72.5q0 30 -6 70l-41 285q-9 59 -9 100q0 149 72 221q41 42 116.5 58t203.5 16h59q26 0 64 -23v-180h-89q-57 0 -75.5 -18t-18.5 -72q0 -11 4 -57l45 -385q5 -41 -26 -72l-144 -147v-7l144 -147q31 -34 26 -74l-45 -407q-4 -40 -4 -49 q0 -49 20.5 -74t73.5 -25h89v-180q-36 -22 -64 -22h-59q-85 0 -141 5t-108.5 21t-81.5 45.5t-46 78.5t-17 120q0 39 11 125l41 307q6 43 6 70q0 53 -21 72.5t-69 19.5h-133z" />
<glyph unicode="|" horiz-adv-x="997" d="M307 -348v2068h383v-2068h-383z" />
<glyph unicode="}" horiz-adv-x="849" d="M102 -158h88q54 0 74.5 25.5t20.5 73.5q0 9 -4 49l-45 407q-5 40 26 74l144 147v7l-144 147q-31 31 -26 72l45 385q4 46 4 57q0 54 -19 72t-76 18h-88v180q38 23 64 23h59q128 0 203.5 -16t116.5 -58q71 -71 71 -221q0 -48 -8 -100l-41 -285q-6 -40 -6 -70 q0 -53 21 -72.5t69 -19.5h133v-233h-133q-48 0 -69 -19.5t-21 -72.5q0 -26 6 -70l41 -307q10 -78 10 -125q0 -71 -17 -120t-46 -78.5t-81 -45.5t-108 -21t-141 -5h-59q-28 0 -64 22v180z" />
<glyph unicode="~" d="M-14 571q0 32 22 54l123 120q91 88 161.5 125t151.5 37q145 0 263 -112l47 -45q34 -33 56 -46.5t46 -13.5q51 0 111 60l92 92l258 -131q0 -31 -23 -54l-123 -120q-90 -88 -161 -125t-152 -37q-144 0 -262 112l-47 43q-57 60 -103 60q-50 0 -110 -60l-92 -90z" />
<glyph unicode="&#xa1;" horiz-adv-x="714" d="M119 -31l71 600h261l79 -600v-321h-411v321zM123 694v400h397v-400h-397z" />
<glyph unicode="&#xa2;" d="M111 635q0 145 18.5 244t45.5 150.5t73 100.5q138 144 373 154l53 244h293l-66 -295q91 -39 146 -94l75 -76q19 -19 19 -53l-271 -140l-32 33q-38 38 -75.5 57t-92.5 19q-73 0 -113 -43q-29 -30 -39 -83.5t-10 -141.5q2 -119 10 -170.5t35 -79.5q39 -39 119 -39 q54 0 89.5 18.5t76.5 59.5l32 32l271 -139q0 -22 -3.5 -31.5t-15.5 -21.5l-73 -74q-149 -149 -387 -149l-76 -316h-293l86 369q-126 58 -197 178.5t-71 286.5z" />
<glyph unicode="&#xa3;" d="M0 12v310h141q64 0 99.5 31.5t35.5 90.5q0 78 -38 187h-238v213h154q-56 141 -56 221q0 132 68 227t183.5 142t264.5 47q88 0 173 -22.5t146 -53.5t117 -73t86 -71t54 -57l47 -55q16 -19 16 -41l-313 -139l-22 24q-82 89 -152 125.5t-141 36.5q-55 0 -89 -29t-34 -84 q0 -94 53 -198h408v-213h-328q14 -68 14 -123q0 -94 -43 -191l39 -4q74 -8 107 -8q53 0 178 141l14 17l311 -141q0 -31 -10 -41l-59 -62q-43 -44 -56.5 -58t-52 -51t-56.5 -50.5t-52 -38t-58 -34t-55.5 -18t-62.5 -8.5q-59 0 -139 14.5t-130 36.5l-121 51q-101 -75 -196 -75 h-144q-29 0 -63 24z" />
<glyph unicode="&#xa4;" d="M141 0l135 287q-120 132 -120 354v193q0 220 123 358l-138 287h269l71 -166q71 18 156 18q99 0 172 -24l76 172h272l-145 -305q110 -128 110 -340v-193q0 -205 -110 -336l145 -305h-272l-74 170q-79 -27 -174 -27q-85 0 -156 21l-71 -164h-269zM469 659q0 -117 34.5 -174 t133.5 -57q172 0 172 231v156q0 116 -36.5 174t-135.5 58t-133.5 -57.5t-34.5 -174.5v-156z" />
<glyph unicode="&#xa5;" d="M18 1446h437l176 -420l24 -74q39 98 115 279t90 215h428l-221 -477h190v-191h-296l-37 -106h333v-193h-374l-39 4l6 -34v-449h-401v449l6 34l-35 -4h-381v193h340l-37 106h-303v191h199z" />
<glyph unicode="&#xa6;" horiz-adv-x="997" d="M307 -195v725h383v-725h-383zM307 840v727h383v-727h-383z" />
<glyph unicode="&#xa7;" horiz-adv-x="1628" d="M137 471q0 66 16 118t45.5 87t57.5 56.5t66 41.5q-48 32 -76.5 94t-28.5 144q0 100 32 180.5t86 133t127.5 88t153.5 50.5t168 15q333 0 566 -277q16 -19 16 -45l-285 -143l-41 47q-110 121 -256 121q-190 0 -190 -101q0 -36 30.5 -52t137.5 -38l336 -67 q221 -40 310 -129.5t89 -253.5q0 -53 -11.5 -98t-28.5 -75.5t-42.5 -56.5t-48.5 -42t-53 -31q47 -32 75.5 -94.5t28.5 -143.5q0 -124 -50.5 -217t-137.5 -146t-191 -78.5t-225 -25.5q-186 0 -340.5 81t-251.5 196q-16 19 -16 45l284 143l41 -47q37 -41 127.5 -81t192.5 -40 q100 0 146 29t46 75q0 30 -35 49t-135 37l-254 46q-235 42 -358 144t-123 261zM508 575q0 -58 32 -93t115 -54l398 -90q29 12 48 40.5t19 61.5q0 59 -32.5 95.5t-114.5 52.5l-398 90q-28 -12 -47.5 -41t-19.5 -62z" />
<glyph unicode="&#xa8;" horiz-adv-x="929" d="M98 1206v281h299v-281h-299zM526 1206v281h299v-281h-299z" />
<glyph unicode="&#xa9;" horiz-adv-x="1929" d="M111 721q0 206 49.5 352.5t158.5 261.5q239 246 646 246q413 0 645 -246q109 -116 159 -262.5t50 -351.5q0 -234 -56.5 -389t-181.5 -273q-107 -101 -264 -160t-352 -59q-388 0 -617 219q-125 118 -181 272.5t-56 389.5zM348 721q0 -194 38.5 -309t123.5 -195 q171 -164 455 -164q283 0 454 164q85 80 123.5 195t38.5 309q0 181 -33 283.5t-110 183.5q-170 180 -473 180t-473 -180q-77 -82 -110.5 -184t-33.5 -283zM569 721q0 127 27 199.5t80 128.5q112 118 295 118q60 0 112.5 -13.5t94 -38.5t67 -46t55.5 -51l48 -47 q20 -20 20 -47q-36 -19 -110.5 -55t-110.5 -54l-19 19q-79 79 -139 79q-82 0 -114.5 -48t-32.5 -142q0 -97 32 -145t117 -48q32 0 66.5 24t79.5 69l16 16l215 -117q0 -20 -20 -43l-25 -26q-81 -88 -164.5 -133.5t-187.5 -45.5q-181 0 -287 95q-115 108 -115 352z" />
<glyph unicode="&#xaa;" horiz-adv-x="968" d="M45 889q0 41 12 77t34 63t49.5 49t61.5 38t67.5 27t70.5 18l162 31q37 6 55 19.5t18 37.5q0 26 -22 37.5t-78 11.5q-33 0 -62 -8t-54 -24t-42 -30.5t-38 -35.5l-205 103q0 35 18 53l25 22q74 68 156 101.5t200 33.5q75 0 134.5 -9t110.5 -31t84.5 -56.5t52.5 -88 t19 -124.5v-305q0 -9 5.5 -14.5t13.5 -5.5h51v-220q-20 -14 -32 -19t-31 -5h-131q-103 0 -138 100l-26 -26q-47 -47 -108 -70t-161 -23q-32 0 -66 8t-71.5 28t-67 49.5t-48.5 78.5t-19 109zM352 913q0 -22 9 -39t30.5 -27.5t54.5 -10.5q47 0 84 34t37 82v101l-20 -17 l-125 -45q-39 -14 -54.5 -30t-15.5 -48z" />
<glyph unicode="&#xab;" horiz-adv-x="1316" d="M61 506v143l299 299h297v-47q0 -25 -18 -43l-219 -219l-66 -53v-17l66 -53l219 -219q18 -18 18 -43v-47h-297zM659 506v143l299 299h297v-47q0 -25 -18 -43l-219 -219l-66 -53v-17l66 -53l219 -219q18 -18 18 -43v-47h-297z" />
<glyph unicode="&#xac;" d="M63 731v334h1176v-854h-348v483l6 39l-41 -2h-793z" />
<glyph unicode="&#xad;" horiz-adv-x="755" d="M82 469v340h592v-340h-592z" />
<glyph unicode="&#xae;" horiz-adv-x="1116" d="M100 999q0 126 29 208.5t90 146.5q128 135 342 135t342 -135q61 -64 90 -146.5t29 -208.5q0 -130 -30 -212t-95 -148q-126 -129 -336 -129t-336 129q-65 66 -95 148t-30 212zM203 999q0 -115 24.5 -185.5t75.5 -119.5q97 -94 258 -94t258 94q52 49 76.5 120t24.5 185 q0 113 -23.5 181t-71.5 116q-103 103 -264 103q-165 0 -266 -101q-47 -50 -69.5 -118t-22.5 -181zM371 739v529h204q106 0 146 -43q15 -15 22.5 -25t14 -33.5t6.5 -56.5q0 -53 -32.5 -89.5t-80.5 -51.5l158 -230h-117l-133 207h-59l-37 4l6 -35v-176h-98zM463 1028l37 4h90 q69 0 69 78q0 70 -69 70h-90l-37 4l6 -35v-86z" />
<glyph unicode="&#xaf;" horiz-adv-x="929" d="M180 1219v215h565v-215h-565z" />
<glyph unicode="&#xb0;" horiz-adv-x="845" d="M76 1102v14q0 114 21 172.5t63 100.5q100 100 264 100t264 -100q42 -42 63 -100.5t21 -172.5v-14q-1 -143 -23 -207.5t-71 -108.5q-109 -98 -254 -98t-254 98q-49 44 -71 108.5t-23 207.5zM291 1102q0 -89 9.5 -122t31.5 -50q42 -33 92 -33t92 33q22 17 31.5 50t9.5 122 q0 70 -9 102t-28 49q-38 35 -96 35t-96 -35q-19 -17 -28 -49t-9 -102z" />
<glyph unicode="&#xb1;" d="M63 0v334h1176v-334h-1176zM63 776v332h379l41 -2l-6 39v268h350v-268l-6 -39l41 2h377v-332h-377l-41 4l6 -39v-278h-350v278l6 39l-41 -4h-379z" />
<glyph unicode="&#xb2;" horiz-adv-x="911" d="M82 1202q0 36 37 80q84 100 164.5 144t187.5 44q170 0 264 -82t94 -206q0 -60 -21.5 -107.5t-65 -84.5t-86.5 -61.5t-109 -54.5l-113 -51q-45 -19 -51 -31q-1 -4 -3 -13l-1 -5l-4 -33l43 4h401v-229h-735v201q0 109 71 193.5t197 138.5l111 47q45 19 67.5 40.5t22.5 51.5 q0 28 -24 44.5t-54 16.5q-97 0 -162 -104l-22 -37z" />
<glyph unicode="&#xb3;" horiz-adv-x="913" d="M66 1225q0 33 30 73q47 63 139.5 117.5t204.5 54.5q160 0 256.5 -67t96.5 -176q0 -58 -29.5 -109t-91.5 -74v-16q67 -11 115.5 -63.5t48.5 -120.5q0 -167 -158 -254.5t-465 -87.5h-45q-28 0 -66 24v211h164q295 0 295 111q0 49 -80 49q-23 0 -57 -6l-156 -31l-43 197 l181 28q65 10 97 38t32 65q0 28 -23.5 47.5t-58.5 19.5q-86 0 -148 -77l-37 -45z" />
<glyph unicode="&#xb4;" horiz-adv-x="929" d="M297 1186v76q0 31 16 45l203 206q20 17 43 17h227v-117q0 -32 -16 -43l-283 -184h-190z" />
<glyph unicode="&#xb6;" horiz-adv-x="1708" d="M160 963q0 117 13 192.5t31 109t50 66.5q103 115 281 115h927v-1897h-313v1616l6 35l-37 -4h-114l-37 4l6 -35v-1616h-314v887h-124q-92 0 -148 25.5t-108 77.5q-30 30 -48 56t-36.5 72.5t-26.5 119t-8 176.5z" />
<glyph unicode="&#xb7;" horiz-adv-x="634" d="M90 344v430h453v-430h-453z" />
<glyph unicode="&#xb8;" horiz-adv-x="929" d="M209 -246h176q31 0 31 21q0 12 -6 20t-39 41l-23 23q-35 28 -35 71v78h228l77 -78q70 -70 70 -145q0 -103 -71 -169.5t-193 -66.5h-152q-27 0 -63 25v180z" />
<glyph unicode="&#xb9;" horiz-adv-x="581" d="M25 1163v213l190 70h240l-11 -111v-819h-276v674l4 24l-125 -51h-22z" />
<glyph unicode="&#xba;" horiz-adv-x="980" d="M51 1073q0 119 27 193t80 129q115 118 329 118q215 0 330 -118q53 -55 80 -129t27 -193q-1 -130 -31 -212t-90 -136q-125 -109 -316 -109q-196 0 -315 109q-59 55 -89.5 137t-31.5 211zM356 1073q0 -85 9 -129t32 -65q30 -33 92 -33q59 0 89 33q23 21 31.5 65t8.5 129 q0 83 -7 119.5t-29 60.5q-31 31 -97 31q-61 0 -92 -31q-23 -24 -30 -61t-7 -119z" />
<glyph unicode="&#xbb;" horiz-adv-x="1316" d="M61 207v47q0 24 19 43l219 219l66 53v17l-66 53l-219 219q-19 19 -19 43v47h297l299 -299v-143l-299 -299h-297zM659 207v47q0 24 19 43l219 219l66 53v17l-66 53l-219 219q-19 19 -19 43v47h297l299 -299v-143l-299 -299h-297z" />
<glyph unicode="&#xbc;" horiz-adv-x="1808" d="M25 1163v213l190 70h240l-11 -111v-819h-276v674l4 24l-125 -51h-22zM274 0l826 1446h270l-825 -1446h-271zM969 162v168q0 22 10 39l362 561h291v-527l-4 -38l41 4h80v-207h-80l-41 4l4 -39v-127h-278v123l6 39h-391zM1159 369h160l41 -4l-6 38v64l14 186l-10 2 l-162 -254z" />
<glyph unicode="&#xbd;" horiz-adv-x="1966" d="M25 1163v213l190 70h240l-11 -111v-819h-276v674l4 24l-125 -51h-22zM274 0l826 1446h270l-825 -1446h-271zM1137 686q0 40 37 80q84 100 164.5 144t187.5 44q170 0 264 -82t94 -206q0 -60 -21.5 -107.5t-65 -84.5t-86.5 -61.5t-109 -54.5l-113 -51q-35 -15 -43 -22 t-11 -22q-1 -3 -1 -5l-4 -33l43 4h401v-229h-735v201q0 109 71 192.5t197 138.5l111 48q45 19 67.5 40.5t22.5 51.5q0 19 -12 33t-29.5 21t-36.5 7q-97 0 -162 -104l-22 -37z" />
<glyph unicode="&#xbe;" horiz-adv-x="2084" d="M66 1225q0 33 30 73q47 63 139.5 117.5t204.5 54.5q160 0 256.5 -67t96.5 -176q0 -58 -29.5 -109t-91.5 -74v-16q67 -11 115.5 -63.5t48.5 -120.5q0 -167 -158 -254.5t-465 -87.5h-45q-28 0 -66 24v211h164q295 0 295 111q0 49 -80 49q-23 0 -57 -6l-156 -31l-43 197 l181 28q65 10 97 38t32 65q0 28 -23.5 47.5t-58.5 19.5q-86 0 -148 -77l-37 -45zM551 0l825 1446h271l-826 -1446h-270zM1245 162v168q0 22 10 39l363 561h291v-527l-4 -38l41 4h79v-207h-79l-41 4l4 -39v-127h-279v123l6 39h-391zM1436 369h159l41 -4l-6 38v64l15 186 l-11 2l-161 -254z" />
<glyph unicode="&#xbf;" horiz-adv-x="964" d="M37 -8q0 186 143 319l99 90q60 56 80 91.5t20 76.5h344q0 -102 -21.5 -159t-89.5 -125l-125 -123q-94 -80 -94 -156q0 -37 27 -59.5t67 -22.5q42 0 78.5 20t81.5 62l45 41l283 -131q0 -34 -19 -53l-45 -47q-93 -96 -208.5 -156.5t-239.5 -60.5q-100 0 -182 32.5 t-134.5 87.5t-81 125t-28.5 148zM344 694v400h397v-400h-397z" />
<glyph unicode="&#xc0;" horiz-adv-x="1529" d="M4 0l539 1446h454l529 -1446h-465l-64 219l-4 37l-37 -4h-417l-37 4l-4 -37l-64 -219h-430zM446 1782v116h228q27 0 43 -16l203 -207q16 -16 16 -45v-76h-191l-282 185q-17 11 -17 43zM602 573l37 5h219l37 -5q-20 55 -53.5 163t-40.5 130l-39 148h-21q-27 -95 -123 -404 z" />
<glyph unicode="&#xc1;" horiz-adv-x="1529" d="M4 0l539 1446h454l529 -1446h-465l-64 219l-4 37l-37 -4h-417l-37 4l-4 -37l-64 -219h-430zM596 1554v76q0 31 16 45l203 207q19 16 43 16h227v-116q0 -32 -16 -43l-283 -185h-190zM602 573l37 5h219l37 -5q-20 55 -53.5 163t-40.5 130l-39 148h-21q-27 -95 -123 -404z " />
<glyph unicode="&#xc2;" horiz-adv-x="1529" d="M4 0l539 1446h454l529 -1446h-465l-64 219l-4 37l-37 -4h-417l-37 4l-4 -37l-64 -219h-430zM422 1554v76q0 29 16 45l230 223h192l232 -223q14 -14 14 -45v-76h-203l-133 148h-12l-135 -148h-201zM602 573l37 5h219l37 -5q-20 55 -53.5 163t-40.5 130l-39 148h-21 q-27 -95 -123 -404z" />
<glyph unicode="&#xc3;" horiz-adv-x="1529" d="M4 0l539 1446h454l529 -1446h-465l-64 219l-4 37l-37 -4h-417l-37 4l-4 -37l-64 -219h-430zM348 1645q0 23 17 43l100 112q71 82 180 82q48 0 81.5 -13t70.5 -40l59 -43q31 -21 45 -21q20 0 41 21l68 67l168 -71q0 -23 -17 -43l-100 -113q-71 -82 -180 -82 q-48 0 -81.5 13t-70.5 40l-59 43q-32 21 -45 21q-20 0 -41 -21l-68 -67zM602 573l37 5h219l37 -5q-20 55 -53.5 163t-40.5 130l-39 148h-21q-27 -95 -123 -404z" />
<glyph unicode="&#xc4;" horiz-adv-x="1529" d="M4 0l539 1446h454l529 -1446h-465l-64 219l-4 37l-37 -4h-417l-37 4l-4 -37l-64 -219h-430zM397 1554v281h299v-281h-299zM602 573l37 5h219l37 -5q-20 55 -53.5 163t-40.5 130l-39 148h-21q-27 -95 -123 -404zM825 1554v281h299v-281h-299z" />
<glyph unicode="&#xc5;" horiz-adv-x="1529" d="M4 0l539 1446h454l529 -1446h-465l-64 219l-4 37l-37 -4h-417l-37 4l-4 -37l-64 -219h-430zM506 1790q0 105 75 176.5t197 71.5t197.5 -71.5t75.5 -176.5t-75.5 -176.5t-197.5 -71.5t-197 71.5t-75 176.5zM602 573l37 5h219l37 -5q-20 55 -53.5 163t-40.5 130l-39 148 h-21q-27 -95 -123 -404zM674 1790q0 -43 30.5 -73.5t73.5 -30.5t74 30.5t31 73.5t-31 73.5t-74 30.5t-73.5 -30.5t-30.5 -73.5z" />
<glyph unicode="&#xc6;" horiz-adv-x="2215" d="M-80 0l825 1446h1358v-322h-729l-37 4l6 -34v-172l-6 -35l37 4h633v-326h-633l-37 4l6 -34v-183l-6 -35l37 5h750v-322h-1178v260l4 37l-39 -4h-360l-35 4l-14 -37l-144 -260h-438zM682 608l39 4h194l35 -4l-4 37v438h-20l-56 -139l-161 -299z" />
<glyph unicode="&#xc7;" horiz-adv-x="1497" d="M84 737q0 184 46.5 320t148.5 241q184 191 499 191q316 0 559 -232l90 -86q19 -19 19 -43l-313 -163l-62 53q-45 40 -75.5 62.5t-79.5 42.5t-99 20q-145 0 -235 -90q-49 -49 -72 -119.5t-23 -196.5q0 -147 24.5 -219.5t78.5 -126.5q89 -86 227 -86q71 0 129 31.5 t139 97.5l48 39l317 -164q0 -21 -18 -39l-95 -94q-185 -185 -460 -213l34 -33q70 -63 70 -145q0 -103 -71 -169.5t-193 -66.5h-152q-27 0 -63 25v180h176q31 0 31 21q0 11 -7 20.5t-38 40.5l-23 23q-35 35 -35 71v45q-185 38 -307 154q-114 104 -164.5 250.5t-50.5 357.5z " />
<glyph unicode="&#xc8;" horiz-adv-x="1421" d="M152 0v1446h1157v-322h-729l-37 4l6 -34v-172l-6 -35l37 4h632v-326h-632l-37 4l6 -34v-183l-6 -35l37 5h749v-322h-1177zM422 1782v116h227q27 0 43 -16l203 -207q16 -16 16 -45v-76h-190l-283 185q-16 11 -16 43z" />
<glyph unicode="&#xc9;" horiz-adv-x="1421" d="M152 0v1446h1157v-322h-729l-37 4l6 -34v-172l-6 -35l37 4h632v-326h-632l-37 4l6 -34v-183l-6 -35l37 5h749v-322h-1177zM571 1554v76q0 30 17 45l203 207q19 16 43 16h227v-116q0 -32 -17 -43l-282 -185h-191z" />
<glyph unicode="&#xca;" horiz-adv-x="1421" d="M152 0v1446h1157v-322h-729l-37 4l6 -34v-172l-6 -35l37 4h632v-326h-632l-37 4l6 -34v-183l-6 -35l37 5h749v-322h-1177zM397 1554v76q0 28 17 45l229 223h193l231 -223q14 -14 14 -45v-76h-202l-134 148h-12l-135 -148h-201z" />
<glyph unicode="&#xcb;" horiz-adv-x="1421" d="M152 0v1446h1157v-322h-729l-37 4l6 -34v-172l-6 -35l37 4h632v-326h-632l-37 4l6 -34v-183l-6 -35l37 5h749v-322h-1177zM373 1554v281h299v-281h-299zM801 1554v281h299v-281h-299z" />
<glyph unicode="&#xcc;" horiz-adv-x="700" d="M57 1782v116h228q27 0 43 -16l202 -207q17 -17 17 -45v-76h-191l-282 185q-17 11 -17 43zM152 0v1446h397v-1446h-397z" />
<glyph unicode="&#xcd;" horiz-adv-x="700" d="M152 0v1446h397v-1446h-397zM152 1554v76q0 31 16 45l203 207q19 16 43 16h227v-116q0 -32 -16 -43l-283 -185h-190z" />
<glyph unicode="&#xce;" horiz-adv-x="700" d="M8 1554v76q0 28 17 45l229 223h192l232 -223q14 -14 14 -45v-76h-203l-133 148h-12l-135 -148h-201zM152 0v1446h397v-1446h-397z" />
<glyph unicode="&#xcf;" horiz-adv-x="700" d="M-16 1554v281h299v-281h-299zM152 0v1446h397v-1446h-397zM412 1554v281h299v-281h-299z" />
<glyph unicode="&#xd0;" horiz-adv-x="1656" d="M57 584v313h105l37 -4l-6 35v518h688q308 0 510 -209q200 -212 200 -508q0 -327 -223 -543q-94 -90 -209 -138t-278 -48h-688v553l6 35l-37 -4h-105zM586 317l37 5h168q105 0 167 25.5t115 78.5q54 54 81 121t28 190q0 101 -26.5 163t-78.5 114q-52 55 -116.5 82.5 t-169.5 27.5h-168l-37 4l6 -34v-166l-6 -35l37 4h260v-313h-260l-37 4l6 -35v-201z" />
<glyph unicode="&#xd1;" horiz-adv-x="1603" d="M152 0v1446h407q44 -73 222.5 -361.5t273.5 -445.5h12l-8 235v572h393v-1446h-399l-482 764l-22 39h-12l8 -236v-567h-393zM406 1645q0 24 16 43l100 112q71 82 180 82q48 0 81.5 -13t70.5 -40l59 -43q31 -21 45 -21q20 0 41 21l68 67l168 -71q0 -24 -16 -43l-101 -113 q-71 -82 -180 -82q-48 0 -81.5 13t-70.5 40l-59 43q-32 21 -45 21q-20 0 -41 -21l-68 -67z" />
<glyph unicode="&#xd2;" horiz-adv-x="1650" d="M84 737q0 195 47 316.5t148 224.5q211 211 546 211q339 0 547 -211q101 -103 148 -224.5t47 -316.5q0 -211 -47 -337.5t-150 -229.5q-211 -211 -545 -211q-336 0 -544 211q-103 103 -150 229.5t-47 337.5zM487 737q0 -131 25 -210t80 -134q88 -88 233 -88q146 0 234 88 q55 55 79.5 134t24.5 210q0 116 -22.5 184.5t-73.5 122.5q-95 99 -242 99q-149 0 -241 -99q-52 -55 -74.5 -123t-22.5 -184zM512 1782v116h227q27 0 43 -16l203 -207q16 -16 16 -45v-76h-190l-283 185q-16 11 -16 43z" />
<glyph unicode="&#xd3;" horiz-adv-x="1650" d="M84 737q0 195 47 316.5t148 224.5q211 211 546 211q339 0 547 -211q101 -103 148 -224.5t47 -316.5q0 -211 -47 -337.5t-150 -229.5q-211 -211 -545 -211q-336 0 -544 211q-103 103 -150 229.5t-47 337.5zM487 737q0 -131 25 -210t80 -134q88 -88 233 -88q146 0 234 88 q55 55 79.5 134t24.5 210q0 116 -22.5 184.5t-73.5 122.5q-95 99 -242 99q-149 0 -241 -99q-52 -55 -74.5 -123t-22.5 -184zM662 1554v76q0 31 16 45l203 207q19 16 43 16h227v-116q0 -32 -16 -43l-283 -185h-190z" />
<glyph unicode="&#xd4;" horiz-adv-x="1650" d="M84 737q0 195 47 316.5t148 224.5q211 211 546 211q339 0 547 -211q101 -103 148 -224.5t47 -316.5q0 -211 -47 -337.5t-150 -229.5q-211 -211 -545 -211q-336 0 -544 211q-103 103 -150 229.5t-47 337.5zM487 737q0 -131 25 -210t80 -134q88 -88 233 -88q146 0 234 88 q55 55 79.5 134t24.5 210q0 116 -22.5 184.5t-73.5 122.5q-95 99 -242 99q-149 0 -241 -99q-52 -55 -74.5 -123t-22.5 -184zM487 1554v76q0 28 17 45l229 223h193l231 -223q14 -14 14 -45v-76h-202l-133 148h-13l-135 -148h-201z" />
<glyph unicode="&#xd5;" horiz-adv-x="1650" d="M84 737q0 195 47 316.5t148 224.5q211 211 546 211q339 0 547 -211q101 -103 148 -224.5t47 -316.5q0 -211 -47 -337.5t-150 -229.5q-211 -211 -545 -211q-336 0 -544 211q-103 103 -150 229.5t-47 337.5zM414 1645q0 24 16 43l100 112q71 82 181 82q48 0 80.5 -12.5 t70.5 -40.5l60 -43q31 -21 45 -21q20 0 41 21l67 67l168 -71q0 -24 -16 -43l-101 -113q-71 -82 -180 -82q-48 0 -80.5 12.5t-70.5 40.5l-60 43q-31 21 -45 21q-20 0 -41 -21l-67 -67zM487 737q0 -131 25 -210t80 -134q88 -88 233 -88q146 0 234 88q55 55 79.5 134t24.5 210 q0 116 -22.5 184.5t-73.5 122.5q-95 99 -242 99q-149 0 -241 -99q-52 -55 -74.5 -123t-22.5 -184z" />
<glyph unicode="&#xd6;" horiz-adv-x="1650" d="M84 737q0 195 47 316.5t148 224.5q211 211 546 211q339 0 547 -211q101 -103 148 -224.5t47 -316.5q0 -211 -47 -337.5t-150 -229.5q-211 -211 -545 -211q-336 0 -544 211q-103 103 -150 229.5t-47 337.5zM463 1554v281h299v-281h-299zM487 737q0 -131 25 -210t80 -134 q88 -88 233 -88q146 0 234 88q55 55 79.5 134t24.5 210q0 116 -22.5 184.5t-73.5 122.5q-95 99 -242 99q-149 0 -241 -99q-52 -55 -74.5 -123t-22.5 -184zM891 1554v281h299v-281h-299z" />
<glyph unicode="&#xd7;" d="M29 250l362 364l33 25l-33 23l-362 358l239 240l361 -361l22 -31l25 31q59 61 360 361l240 -240q-61 -59 -182.5 -179t-182.5 -179l-30 -23l30 -25l363 -364l-240 -240l-358 361l-25 28l-22 -28l-359 -361z" />
<glyph unicode="&#xd8;" horiz-adv-x="1650" d="M84 737q0 195 47 316.5t148 224.5q211 211 546 211q158 0 291 -49l84 141h270l-151 -254q85 -76 135.5 -147.5t81.5 -182t31 -260.5q0 -211 -47 -337.5t-150 -229.5q-211 -211 -545 -211q-155 0 -288 49l-86 -145h-271l154 258q-65 58 -107.5 110.5t-77 124t-50 165 t-15.5 216.5zM487 737q0 -191 62 -291l387 680q-56 17 -111 17q-149 0 -241 -99q-52 -55 -74.5 -123t-22.5 -184zM717 319q54 -14 108 -14q146 0 234 88q55 55 79.5 134t24.5 210q0 64 -6.5 111.5t-19 84t-33.5 66.5z" />
<glyph unicode="&#xd9;" horiz-adv-x="1591" d="M141 563v883h402v-877q0 -69 10 -114t37.5 -81t81 -52.5t137.5 -16.5q67 0 113 11.5t74 31.5t43.5 55t20.5 72.5t5 93.5v877h385v-883q0 -70 -5 -125.5t-21.5 -120.5t-44.5 -114t-77.5 -97t-117 -78.5t-166 -49.5t-221.5 -19t-221.5 19t-166 50t-117.5 78.5t-78.5 97 t-45 114t-22 120.5t-5.5 125zM477 1782v116h228q27 0 43 -16l202 -207q17 -17 17 -45v-76h-191l-282 185q-17 11 -17 43z" />
<glyph unicode="&#xda;" horiz-adv-x="1591" d="M141 563v883h402v-877q0 -69 10 -114t37.5 -81t81 -52.5t137.5 -16.5q67 0 113 11.5t74 31.5t43.5 55t20.5 72.5t5 93.5v877h385v-883q0 -70 -5 -125.5t-21.5 -120.5t-44.5 -114t-77.5 -97t-117 -78.5t-166 -49.5t-221.5 -19t-221.5 19t-166 50t-117.5 78.5t-78.5 97 t-45 114t-22 120.5t-5.5 125zM668 1554v76q0 31 16 45l203 207q19 16 43 16h227v-116q0 -32 -16 -43l-283 -185h-190z" />
<glyph unicode="&#xdb;" horiz-adv-x="1591" d="M141 563v883h402v-877q0 -69 10 -114t37.5 -81t81 -52.5t137.5 -16.5q67 0 113 11.5t74 31.5t43.5 55t20.5 72.5t5 93.5v877h385v-883q0 -70 -5 -125.5t-21.5 -120.5t-44.5 -114t-77.5 -97t-117 -78.5t-166 -49.5t-221.5 -19t-221.5 19t-166 50t-117.5 78.5t-78.5 97 t-45 114t-22 120.5t-5.5 125zM453 1554v76q0 29 16 45l229 223h193l231 -223q15 -15 15 -45v-76h-203l-133 148h-13l-135 -148h-200z" />
<glyph unicode="&#xdc;" horiz-adv-x="1591" d="M141 563v883h402v-877q0 -69 10 -114t37.5 -81t81 -52.5t137.5 -16.5q67 0 113 11.5t74 31.5t43.5 55t20.5 72.5t5 93.5v877h385v-883q0 -70 -5 -125.5t-21.5 -120.5t-44.5 -114t-77.5 -97t-117 -78.5t-166 -49.5t-221.5 -19t-221.5 19t-166 50t-117.5 78.5t-78.5 97 t-45 114t-22 120.5t-5.5 125zM436 1554v281h299v-281h-299zM864 1554v281h299v-281h-299z" />
<glyph unicode="&#xdd;" horiz-adv-x="1398" d="M0 1446h469q29 -70 76.5 -183.5t88.5 -212t75 -184.5q43 117 133 326t108 254h453l-502 -961v-485h-401v485zM612 1554v76q0 30 17 45l202 207q19 16 43 16h228v-116q0 -32 -17 -43l-282 -185h-191z" />
<glyph unicode="&#xde;" horiz-adv-x="1458" d="M152 0v1446h397v-182l-6 -35l37 4h309q265 0 397 -135q59 -59 87 -132t28 -206v-21q0 -229 -129 -348q-66 -62 -157 -91.5t-226 -29.5h-309l-37 4l6 -34v-240h-397zM543 588l37 4h247q98 0 137.5 36t39.5 124q0 83 -40.5 121t-136.5 38h-247l-37 4l6 -34v-258z" />
<glyph unicode="&#xdf;" horiz-adv-x="1243" d="M115 0v1077q0 211 141 345t360 134q164 0 285 -59q111 -55 177.5 -148.5t66.5 -215.5q0 -144 -109 -244l-22 -21q-17 -17 -17 -32q0 -26 33 -78l64 -107q77 -130 98.5 -183.5t21.5 -117.5q0 -168 -120 -265t-314 -97h-94q-28 0 -63 24v271h53q59 0 87 14.5t28 58.5 q0 35 -48 113l-90 152q-44 73 -56.5 105t-12.5 62q0 59 61 109l39 33q44 38 64 79.5t20 102.5q0 64 -35.5 101.5t-99.5 37.5q-72 0 -106.5 -42.5t-34.5 -106.5v-1102h-377z" />
<glyph unicode="&#xe0;" horiz-adv-x="1232" d="M37 309q0 61 20.5 114.5t56 94t84.5 72.5t104 52.5t116 31.5l217 41q37 7 57.5 17.5t28.5 25t8 35.5q0 27 -33.5 46t-99.5 19q-44 0 -83 -10t-71.5 -29.5t-55 -37.5t-48.5 -44l-262 131q0 36 18 54l31 30q28 28 65.5 54.5t96.5 56.5t143 48.5t178 18.5q77 0 142 -8.5 t122.5 -27t101 -50t75.5 -75t48.5 -103.5t16.5 -135v-407q0 -18 11.5 -29.5t27.5 -11.5h55v-271q-19 -18 -71 -28.5t-107 -10.5h-29q-174 0 -217 160l-51 -51q-61 -61 -137.5 -90t-202.5 -29q-43 0 -88.5 10t-94 35t-86.5 63t-62.5 99.5t-24.5 138.5zM291 1413v117h227 q26 0 43 -17l203 -206q16 -16 16 -45v-76h-190l-283 184q-16 11 -16 43zM426 350q0 -51 32.5 -87t86.5 -36q78 0 133 49t55 119v150l-26 -15l-187 -69q-45 -16 -69.5 -40.5t-24.5 -70.5z" />
<glyph unicode="&#xe1;" horiz-adv-x="1232" d="M37 309q0 61 20.5 114.5t56 94t84.5 72.5t104 52.5t116 31.5l217 41q37 7 57.5 17.5t28.5 25t8 35.5q0 27 -33.5 46t-99.5 19q-44 0 -83 -10t-71.5 -29.5t-55 -37.5t-48.5 -44l-262 131q0 36 18 54l31 30q28 28 65.5 54.5t96.5 56.5t143 48.5t178 18.5q77 0 142 -8.5 t122.5 -27t101 -50t75.5 -75t48.5 -103.5t16.5 -135v-407q0 -18 11.5 -29.5t27.5 -11.5h55v-271q-19 -18 -71 -28.5t-107 -10.5h-29q-174 0 -217 160l-51 -51q-61 -61 -137.5 -90t-202.5 -29q-43 0 -88.5 10t-94 35t-86.5 63t-62.5 99.5t-24.5 138.5zM426 350 q0 -51 32.5 -87t86.5 -36q78 0 133 49t55 119v150l-26 -15l-187 -69q-45 -16 -69.5 -40.5t-24.5 -70.5zM440 1186v76q0 30 17 45l202 206q20 17 43 17h228v-117q0 -32 -17 -43l-282 -184h-191z" />
<glyph unicode="&#xe2;" horiz-adv-x="1232" d="M37 309q0 61 20.5 114.5t56 94t84.5 72.5t104 52.5t116 31.5l217 41q37 7 57.5 17.5t28.5 25t8 35.5q0 27 -33.5 46t-99.5 19q-44 0 -83 -10t-71.5 -29.5t-55 -37.5t-48.5 -44l-262 131q0 36 18 54l31 30q28 28 65.5 54.5t96.5 56.5t143 48.5t178 18.5q77 0 142 -8.5 t122.5 -27t101 -50t75.5 -75t48.5 -103.5t16.5 -135v-407q0 -18 11.5 -29.5t27.5 -11.5h55v-271q-19 -18 -71 -28.5t-107 -10.5h-29q-174 0 -217 160l-51 -51q-61 -61 -137.5 -90t-202.5 -29q-43 0 -88.5 10t-94 35t-86.5 63t-62.5 99.5t-24.5 138.5zM276 1186v76 q0 28 17 45l229 223h193l231 -223q15 -15 15 -45v-76h-203l-133 147h-13l-135 -147h-201zM426 350q0 -51 32.5 -87t86.5 -36q78 0 133 49t55 119v150l-26 -15l-187 -69q-45 -16 -69.5 -40.5t-24.5 -70.5z" />
<glyph unicode="&#xe3;" horiz-adv-x="1232" d="M37 309q0 61 20.5 114.5t56 94t84.5 72.5t104 52.5t116 31.5l217 41q37 7 57.5 17.5t28.5 25t8 35.5q0 27 -33.5 46t-99.5 19q-44 0 -83 -10t-71.5 -29.5t-55 -37.5t-48.5 -44l-262 131q0 36 18 54l31 30q28 28 65.5 54.5t96.5 56.5t143 48.5t178 18.5q77 0 142 -8.5 t122.5 -27t101 -50t75.5 -75t48.5 -103.5t16.5 -135v-407q0 -18 11.5 -29.5t27.5 -11.5h55v-271q-19 -18 -71 -28.5t-107 -10.5h-29q-174 0 -217 160l-51 -51q-61 -61 -137.5 -90t-202.5 -29q-43 0 -88.5 10t-94 35t-86.5 63t-62.5 99.5t-24.5 138.5zM193 1292q0 24 16 43 l100 113q19 22 42.5 38.5t47 25.5t46 13.5t44.5 4.5q48 0 81.5 -13t70.5 -40l59 -43q32 -21 45 -21q20 0 41 21l68 67l168 -71q0 -25 -16 -44l-101 -112q-19 -22 -42.5 -38.5t-47 -25.5t-46 -13.5t-44.5 -4.5q-48 0 -81.5 13t-70.5 40l-59 43q-31 21 -45 21q-20 0 -41 -21 l-68 -67zM426 350q0 -51 32.5 -87t86.5 -36q78 0 133 49t55 119v150l-26 -15l-187 -69q-45 -16 -69.5 -40.5t-24.5 -70.5z" />
<glyph unicode="&#xe4;" horiz-adv-x="1232" d="M37 309q0 61 20.5 114.5t56 94t84.5 72.5t104 52.5t116 31.5l217 41q37 7 57.5 17.5t28.5 25t8 35.5q0 27 -33.5 46t-99.5 19q-44 0 -83 -10t-71.5 -29.5t-55 -37.5t-48.5 -44l-262 131q0 36 18 54l31 30q28 28 65.5 54.5t96.5 56.5t143 48.5t178 18.5q77 0 142 -8.5 t122.5 -27t101 -50t75.5 -75t48.5 -103.5t16.5 -135v-407q0 -18 11.5 -29.5t27.5 -11.5h55v-271q-19 -18 -71 -28.5t-107 -10.5h-29q-174 0 -217 160l-51 -51q-61 -61 -137.5 -90t-202.5 -29q-43 0 -88.5 10t-94 35t-86.5 63t-62.5 99.5t-24.5 138.5zM252 1206v281h299v-281 h-299zM426 350q0 -51 32.5 -87t86.5 -36q78 0 133 49t55 119v150l-26 -15l-187 -69q-45 -16 -69.5 -40.5t-24.5 -70.5zM680 1206v281h299v-281h-299z" />
<glyph unicode="&#xe5;" horiz-adv-x="1232" d="M37 309q0 61 20.5 114.5t56 94t84.5 72.5t104 52.5t116 31.5l217 41q37 7 57.5 17.5t28.5 25t8 35.5q0 27 -33.5 46t-99.5 19q-44 0 -83 -10t-71.5 -29.5t-55 -37.5t-48.5 -44l-262 131q0 36 18 54l31 30q28 28 65.5 54.5t96.5 56.5t143 48.5t178 18.5q77 0 142 -8.5 t122.5 -27t101 -50t75.5 -75t48.5 -103.5t16.5 -135v-407q0 -18 11.5 -29.5t27.5 -11.5h55v-271q-19 -18 -71 -28.5t-107 -10.5h-29q-174 0 -217 160l-51 -51q-61 -61 -137.5 -90t-202.5 -29q-43 0 -88.5 10t-94 35t-86.5 63t-62.5 99.5t-24.5 138.5zM346 1446q0 69 33 125 t95.5 89.5t143.5 33.5q122 0 197.5 -71.5t75.5 -176.5t-75.5 -176.5t-197.5 -71.5t-197 71.5t-75 176.5zM426 350q0 -51 32.5 -87t86.5 -36q78 0 133 49t55 119v150l-26 -15l-187 -69q-45 -16 -69.5 -40.5t-24.5 -70.5zM514 1446q0 -43 30.5 -74t73.5 -31t74 31t31 74 t-31 73.5t-74 30.5t-73.5 -30.5t-30.5 -73.5z" />
<glyph unicode="&#xe6;" horiz-adv-x="1875" d="M37 309q0 53 14 99.5t40.5 83t61.5 66.5t78 52.5t89.5 38t97.5 25.5l217 41q37 7 57.5 17.5t28.5 25t8 35.5q0 27 -33.5 46t-99.5 19q-44 0 -83 -10t-71.5 -29.5t-55 -37.5t-48.5 -44l-262 131q0 36 18 54l31 30q88 88 200.5 133t268.5 45q257 0 360 -83q132 83 322 83 q257 0 405 -151q69 -72 102.5 -166.5t33.5 -243.5v-123h-703l-35 3v-29q0 -79 61.5 -131.5t157.5 -52.5q44 0 82.5 11.5t70 34t51 40t44.5 45.5l256 -127q0 -22 -3 -32t-15 -22l-72 -73q-146 -150 -422 -150q-294 0 -440 143l-27 27l-51 -51q-119 -119 -379 -119 q-43 0 -88.5 10t-94 35t-86.5 63t-62.5 99.5t-24.5 138.5zM426 350q0 -51 32.5 -87t86.5 -36q78 0 133 49t55 119v150l-20 -17l-193 -67q-45 -16 -69.5 -40t-24.5 -71zM1077 670l33 2h301l31 -2l-2 32v29q0 51 -44.5 93t-129.5 42q-51 0 -89 -12.5t-58.5 -33t-30 -43 t-9.5 -46.5v-29z" />
<glyph unicode="&#xe7;" horiz-adv-x="1110" d="M59 481q0 145 18.5 244.5t46 151t73.5 100.5q72 75 174 114t221 39q136 0 239 -42t164 -103l76 -76q19 -19 19 -53l-271 -139l-31 31q-38 38 -76.5 57.5t-93.5 19.5q-72 0 -112 -43q-29 -30 -39 -83.5t-10 -141.5q2 -119 10 -170.5t35 -79.5q39 -39 119 -39q54 0 89.5 19 t77.5 61l31 31l271 -139q0 -22 -3.5 -32t-15.5 -22l-74 -73q-125 -125 -323 -146l37 -37q69 -69 69 -145q0 -103 -71 -169.5t-193 -66.5h-151q-28 0 -64 25v180h176q31 0 31 21q0 12 -6 20t-39 41l-23 23q-34 27 -34 71v58q-162 46 -254.5 174t-92.5 319z" />
<glyph unicode="&#xe8;" horiz-adv-x="1228" d="M59 514q0 318 129 453q78 81 178.5 122t251.5 41q268 0 416 -151q68 -72 101.5 -166t33.5 -244v-123h-702l-35 3v-29q0 -79 61.5 -131.5t157.5 -52.5q42 0 78 9.5t66.5 30.5t46.5 35t43 41l14 15l256 -127q0 -22 -3 -32t-15 -22l-72 -73q-146 -150 -422 -150 q-294 0 -440 143q-75 72 -109.5 165.5t-34.5 242.5zM299 1413v117h227q26 0 43 -17l203 -206q16 -16 16 -45v-76h-190l-283 184q-16 11 -16 43zM430 670l33 2h301l31 -2l-2 32v29q0 51 -45 93t-130 42q-97 0 -141.5 -41t-44.5 -94v-29z" />
<glyph unicode="&#xe9;" horiz-adv-x="1228" d="M59 514q0 318 129 453q78 81 178.5 122t251.5 41q268 0 416 -151q68 -72 101.5 -166t33.5 -244v-123h-702l-35 3v-29q0 -79 61.5 -131.5t157.5 -52.5q42 0 78 9.5t66.5 30.5t46.5 35t43 41l14 15l256 -127q0 -22 -3 -32t-15 -22l-72 -73q-146 -150 -422 -150 q-294 0 -440 143q-75 72 -109.5 165.5t-34.5 242.5zM430 670l33 2h301l31 -2l-2 32v29q0 51 -45 93t-130 42q-97 0 -141.5 -41t-44.5 -94v-29zM449 1186v76q0 31 16 45l203 206q20 17 43 17h227v-117q0 -32 -16 -43l-283 -184h-190z" />
<glyph unicode="&#xea;" horiz-adv-x="1228" d="M59 514q0 318 129 453q78 81 178.5 122t251.5 41q268 0 416 -151q68 -72 101.5 -166t33.5 -244v-123h-702l-35 3v-29q0 -79 61.5 -131.5t157.5 -52.5q42 0 78 9.5t66.5 30.5t46.5 35t43 41l14 15l256 -127q0 -22 -3 -32t-15 -22l-72 -73q-146 -150 -422 -150 q-294 0 -440 143q-75 72 -109.5 165.5t-34.5 242.5zM285 1186v76q0 29 16 45l229 223h193l231 -223q15 -15 15 -45v-76h-203l-133 147h-12l-136 -147h-200zM430 670l33 2h301l31 -2l-2 32v29q0 51 -45 93t-130 42q-97 0 -141.5 -41t-44.5 -94v-29z" />
<glyph unicode="&#xeb;" horiz-adv-x="1228" d="M59 514q0 318 129 453q78 81 178.5 122t251.5 41q268 0 416 -151q68 -72 101.5 -166t33.5 -244v-123h-702l-35 3v-29q0 -79 61.5 -131.5t157.5 -52.5q42 0 78 9.5t66.5 30.5t46.5 35t43 41l14 15l256 -127q0 -22 -3 -32t-15 -22l-72 -73q-146 -150 -422 -150 q-294 0 -440 143q-75 72 -109.5 165.5t-34.5 242.5zM260 1206v281h299v-281h-299zM430 670l33 2h301l31 -2l-2 32v29q0 51 -45 93t-130 42q-97 0 -141.5 -41t-44.5 -94v-29zM688 1206v281h299v-281h-299z" />
<glyph unicode="&#xec;" horiz-adv-x="606" d="M2 1413v117h227q26 0 43 -17l203 -206q17 -17 17 -45v-76h-191l-283 184q-16 11 -16 43zM115 0v1094h377v-1094h-377z" />
<glyph unicode="&#xed;" horiz-adv-x="606" d="M115 0v1094h377v-1094h-377zM115 1186v76q0 31 16 45l203 206q20 17 43 17h227v-117q0 -32 -16 -43l-283 -184h-190z" />
<glyph unicode="&#xee;" horiz-adv-x="606" d="M-39 1186v76q0 29 16 45l230 223h192l232 -223q14 -14 14 -45v-76h-203l-133 147h-12l-135 -147h-201zM115 0v1094h377v-1094h-377z" />
<glyph unicode="&#xef;" horiz-adv-x="606" d="M-63 1206v281h299v-281h-299zM115 0v1094h377v-1094h-377zM365 1206v281h299v-281h-299z" />
<glyph unicode="&#xf0;" horiz-adv-x="1255" d="M59 557q0 152 34.5 248.5t105.5 171.5q56 59 136 86t154 27q37 0 109 -9q-5 29 -44.5 79t-66.5 73l-280 -72q-21 -6 -33 -6h-14v174l143 35q-38 28 -90 59q-14 14 -14 43l323 58q85 -47 121 -76l227 59q21 6 33 6h15v-174l-99 -24q193 -180 284 -362.5t91 -395.5 q-1 -170 -39.5 -276.5t-116.5 -178.5q-149 -139 -411 -139q-267 0 -412 139q-78 72 -116.5 178.5t-39.5 276.5zM455 557q0 -107 11 -164t40 -86q42 -39 123 -39q80 0 119 39q29 29 40 86t11 164q0 101 -10 148.5t-37 76.5q-40 43 -127 43q-83 0 -123 -43q-27 -29 -37 -76.5 t-10 -148.5z" />
<glyph unicode="&#xf1;" horiz-adv-x="1273" d="M115 0v1094h346v-136l69 70q57 57 113 79.5t139 22.5q191 0 289 -98q57 -57 82 -146t25 -224v-662h-377v700q0 50 -36 87.5t-120 37.5q-31 0 -64.5 -11.5t-61 -41.5t-27.5 -72v-700h-377zM221 1292q0 23 17 43l100 113q71 82 180 82q48 0 81.5 -13t70.5 -40l59 -43 q31 -21 45 -21q20 0 41 21l68 67l168 -71q0 -24 -17 -44l-100 -112q-71 -82 -180 -82q-48 0 -81.5 13t-70.5 40l-59 43q-31 21 -45 21q-20 0 -41 -21l-68 -67z" />
<glyph unicode="&#xf2;" horiz-adv-x="1255" d="M59 557q0 153 34.5 250t105.5 170q147 153 428 153t428 -153q71 -74 105 -169.5t34 -250.5q-1 -170 -39.5 -276.5t-116.5 -178.5q-149 -139 -411 -139q-267 0 -412 139q-78 72 -116.5 178.5t-39.5 276.5zM313 1413v117h228q26 0 43 -17l202 -206q17 -17 17 -45v-76h-191 l-282 184q-17 11 -17 43zM455 557q0 -107 11 -164t40 -86q42 -39 123 -39q80 0 119 39q29 29 40 86t11 164q0 101 -10 148.5t-37 76.5q-40 43 -127 43q-83 0 -123 -43q-27 -29 -37 -76.5t-10 -148.5z" />
<glyph unicode="&#xf3;" horiz-adv-x="1255" d="M59 557q0 153 34.5 250t105.5 170q147 153 428 153t428 -153q71 -74 105 -169.5t34 -250.5q-1 -170 -39.5 -276.5t-116.5 -178.5q-149 -139 -411 -139q-267 0 -412 139q-78 72 -116.5 178.5t-39.5 276.5zM455 557q0 -107 11 -164t40 -86q42 -39 123 -39q80 0 119 39 q29 29 40 86t11 164q0 101 -10 148.5t-37 76.5q-40 43 -127 43q-83 0 -123 -43q-27 -29 -37 -76.5t-10 -148.5zM463 1186v76q0 31 16 45l203 206q20 17 43 17h227v-117q0 -32 -16 -43l-283 -184h-190z" />
<glyph unicode="&#xf4;" horiz-adv-x="1255" d="M59 557q0 153 34.5 250t105.5 170q147 153 428 153t428 -153q71 -74 105 -169.5t34 -250.5q-1 -170 -39.5 -276.5t-116.5 -178.5q-149 -139 -411 -139q-267 0 -412 139q-78 72 -116.5 178.5t-39.5 276.5zM299 1186v76q0 29 16 45l230 223h192l232 -223q14 -14 14 -45v-76 h-203l-133 147h-12l-135 -147h-201zM455 557q0 -107 11 -164t40 -86q42 -39 123 -39q80 0 119 39q29 29 40 86t11 164q0 101 -10 148.5t-37 76.5q-40 43 -127 43q-83 0 -123 -43q-27 -29 -37 -76.5t-10 -148.5z" />
<glyph unicode="&#xf5;" horiz-adv-x="1255" d="M59 557q0 153 34.5 250t105.5 170q147 153 428 153t428 -153q71 -74 105 -169.5t34 -250.5q-1 -170 -39.5 -276.5t-116.5 -178.5q-149 -139 -411 -139q-267 0 -412 139q-78 72 -116.5 178.5t-39.5 276.5zM215 1292q0 24 16 43l101 113q71 82 180 82q48 0 81.5 -13 t70.5 -40l59 -43q31 -21 45 -21q20 0 41 21l68 67l167 -71q0 -25 -16 -44l-100 -112q-71 -82 -180 -82q-48 0 -81.5 13t-70.5 40l-59 43q-31 21 -45 21q-20 0 -41 -21l-68 -67zM455 557q0 -107 11 -164t40 -86q42 -39 123 -39q80 0 119 39q29 29 40 86t11 164 q0 101 -10 148.5t-37 76.5q-40 43 -127 43q-83 0 -123 -43q-27 -29 -37 -76.5t-10 -148.5z" />
<glyph unicode="&#xf6;" horiz-adv-x="1255" d="M59 557q0 153 34.5 250t105.5 170q147 153 428 153t428 -153q71 -74 105 -169.5t34 -250.5q-1 -170 -39.5 -276.5t-116.5 -178.5q-149 -139 -411 -139q-267 0 -412 139q-78 72 -116.5 178.5t-39.5 276.5zM274 1206v281h299v-281h-299zM455 557q0 -107 11 -164t40 -86 q42 -39 123 -39q80 0 119 39q29 29 40 86t11 164q0 101 -10 148.5t-37 76.5q-40 43 -127 43q-83 0 -123 -43q-27 -29 -37 -76.5t-10 -148.5zM702 1206v281h299v-281h-299z" />
<glyph unicode="&#xf7;" d="M2 469v336h1298v-336h-1298zM451 0v344h399v-344h-399zM451 932v344h399v-344h-399z" />
<glyph unicode="&#xf8;" horiz-adv-x="1255" d="M59 557q0 153 34.5 250t105.5 170q147 153 428 153q141 0 250 -38l53 79h229l-119 -180q154 -154 154 -434q-1 -170 -39.5 -276.5t-116.5 -178.5q-149 -139 -411 -139q-138 0 -242 37l-53 -78h-230l117 176l-4 4q-78 72 -116.5 178.5t-39.5 276.5zM438 557 q0 -102 11 -156l262 412q-34 12 -86 12q-90 0 -136 -43q-30 -29 -40.5 -76t-10.5 -149zM549 276q46 -8 80 -8q89 0 131 39q31 28 43 85t12 165q0 77 -6 127z" />
<glyph unicode="&#xf9;" horiz-adv-x="1282" d="M104 432v662h377v-701q0 -50 36 -87.5t120 -37.5q31 0 64.5 11.5t61.5 41.5t28 72v701h376v-1094h-346v135l-69 -69q-57 -57 -113 -80t-139 -23q-112 0 -189 29t-122.5 90t-65 145.5t-19.5 204.5zM328 1413v117h227q26 0 43 -17l203 -206q16 -16 16 -45v-76h-190 l-283 184q-16 11 -16 43z" />
<glyph unicode="&#xfa;" horiz-adv-x="1282" d="M104 432v662h377v-701q0 -50 36 -87.5t120 -37.5q31 0 64.5 11.5t61.5 41.5t28 72v701h376v-1094h-346v135l-69 -69q-57 -57 -113 -80t-139 -23q-112 0 -189 29t-122.5 90t-65 145.5t-19.5 204.5zM477 1186v76q0 30 17 45l202 206q20 17 43 17h228v-117q0 -32 -17 -43 l-282 -184h-191z" />
<glyph unicode="&#xfb;" horiz-adv-x="1282" d="M104 432v662h377v-701q0 -50 36 -87.5t120 -37.5q31 0 64.5 11.5t61.5 41.5t28 72v701h376v-1094h-346v135l-69 -69q-57 -57 -113 -80t-139 -23q-112 0 -189 29t-122.5 90t-65 145.5t-19.5 204.5zM303 1186v76q0 29 16 45l230 223h192l232 -223q14 -14 14 -45v-76h-203 l-133 147h-12l-135 -147h-201z" />
<glyph unicode="&#xfc;" horiz-adv-x="1282" d="M104 432v662h377v-701q0 -50 36 -87.5t120 -37.5q31 0 64.5 11.5t61.5 41.5t28 72v701h376v-1094h-346v135l-69 -69q-57 -57 -113 -80t-139 -23q-112 0 -189 29t-122.5 90t-65 145.5t-19.5 204.5zM279 1206v281h299v-281h-299zM707 1206v281h299v-281h-299z" />
<glyph unicode="&#xfd;" horiz-adv-x="1122" d="M-6 1094h397l146 -523l32 -125h11q31 133 102 375t80 273h366l-403 -1180q-22 -65 -46.5 -115.5t-62 -101t-83 -84t-111 -54t-143.5 -20.5h-11q-105 0 -135 35v270h113q49 0 70.5 15.5t41.5 66.5l23 58zM395 1186v76q0 30 17 45l202 206q20 17 43 17h228v-117 q0 -32 -17 -43l-282 -184h-191z" />
<glyph unicode="&#xfe;" horiz-adv-x="1292" d="M115 -451v1958h377v-518l38 39q28 28 52.5 46.5t75 37t110.5 18.5q89 0 172.5 -35t146.5 -102q81 -83 112.5 -194t31.5 -252q0 -316 -158 -463q-130 -121 -305 -121q-87 0 -135.5 23.5t-95.5 70.5l-45 45v-553h-377zM492 387q0 -47 44.5 -83t122.5 -36q74 0 117 37 q31 31 43 89t12 163q0 95 -10 144.5t-39 80.5q-40 43 -123 43q-78 0 -122.5 -36.5t-44.5 -83.5v-318z" />
<glyph unicode="&#xff;" horiz-adv-x="1122" d="M-6 1094h397l146 -523l32 -125h11q31 133 102 375t80 273h366l-403 -1180q-22 -65 -46.5 -115.5t-62 -101t-83 -84t-111 -54t-143.5 -20.5h-11q-105 0 -135 35v270h113q49 0 70.5 15.5t41.5 66.5l23 58zM197 1206v281h299v-281h-299zM625 1206v281h299v-281h-299z" />
<glyph unicode="&#x152;" horiz-adv-x="2428" d="M84 737q0 357 189.5 549.5t527.5 192.5q198 0 358 -113v80h1157v-322h-729l-37 4l6 -34v-172l-6 -35l37 4h633v-326h-633l-37 4l6 -34v-183l-6 -35l37 5h750v-322h-1178v82q-156 -113 -358 -113q-231 0 -390.5 87.5t-242 259t-84.5 421.5zM487 737q0 -131 25 -210 t80 -134q88 -88 233 -88q146 0 234 88q55 55 79.5 134t24.5 210q0 116 -22.5 184.5t-73.5 122.5q-95 99 -242 99q-149 0 -241 -99q-52 -55 -74.5 -123t-22.5 -184z" />
<glyph unicode="&#x153;" horiz-adv-x="1964" d="M59 557q0 153 34.5 250t105.5 170q147 153 428 153q115 0 214 -31t154 -81q56 50 157 81t212 31q257 0 405 -151q69 -72 102.5 -166.5t33.5 -243.5v-123h-703l-35 3v-29q0 -79 61.5 -131.5t157.5 -52.5q44 0 82.5 11.5t70 34t51 40t44.5 45.5l256 -127q0 -22 -3 -32 t-15 -22l-72 -73q-146 -150 -422 -150q-123 0 -227 31t-162 80q-55 -48 -154.5 -79.5t-207.5 -31.5q-267 0 -412 139q-78 72 -116.5 178.5t-39.5 276.5zM455 557q0 -107 11 -164t40 -86q42 -39 123 -39q80 0 119 39q29 29 40 86t11 164q0 101 -10 148.5t-37 76.5 q-40 43 -127 43q-83 0 -123 -43q-27 -29 -37 -76.5t-10 -148.5zM1165 670l33 2h301l31 -2l-2 32v29q0 51 -44.5 93t-129.5 42q-97 0 -142 -41t-45 -94v-29z" />
<glyph unicode="&#x178;" horiz-adv-x="1398" d="M0 1446h469q29 -70 76.5 -183.5t88.5 -212t75 -184.5q43 117 133 326t108 254h453l-502 -961v-485h-401v485zM352 1554v281h299v-281h-299zM780 1554v281h299v-281h-299z" />
<glyph unicode="&#x2c6;" horiz-adv-x="929" d="M123 1186v76q0 29 16 45l230 223h192l232 -223q14 -14 14 -45v-76h-203l-133 147h-12l-135 -147h-201z" />
<glyph unicode="&#x2dc;" horiz-adv-x="929" d="M49 1292q0 23 17 43l100 113q71 82 180 82q48 0 81.5 -13t70.5 -40l59 -43q31 -21 45 -21q20 0 41 21l68 67l168 -71q0 -24 -17 -44l-100 -112q-71 -82 -180 -82q-48 0 -81.5 13t-70.5 40l-59 43q-32 21 -45 21q-20 0 -41 -21l-68 -67z" />
<glyph unicode="&#x2000;" horiz-adv-x="1019" />
<glyph unicode="&#x2001;" horiz-adv-x="2038" />
<glyph unicode="&#x2002;" horiz-adv-x="1019" />
<glyph unicode="&#x2003;" horiz-adv-x="2038" />
<glyph unicode="&#x2004;" horiz-adv-x="679" />
<glyph unicode="&#x2005;" horiz-adv-x="509" />
<glyph unicode="&#x2006;" horiz-adv-x="339" />
<glyph unicode="&#x2007;" horiz-adv-x="339" />
<glyph unicode="&#x2008;" horiz-adv-x="254" />
<glyph unicode="&#x2009;" horiz-adv-x="407" />
<glyph unicode="&#x200a;" horiz-adv-x="113" />
<glyph unicode="&#x2010;" horiz-adv-x="755" d="M82 469v340h592v-340h-592z" />
<glyph unicode="&#x2011;" horiz-adv-x="755" d="M82 469v340h592v-340h-592z" />
<glyph unicode="&#x2012;" horiz-adv-x="755" d="M82 469v340h592v-340h-592z" />
<glyph unicode="&#x2013;" d="M82 469v336h1137v-336h-1137z" />
<glyph unicode="&#x2014;" horiz-adv-x="2048" d="M82 469v336h1884v-336h-1884z" />
<glyph unicode="&#x2018;" horiz-adv-x="579" d="M100 760v397q0 148 92 234t248 86l52 -144q-89 -26 -123.5 -62.5t-34.5 -115.5v-37h82q32 0 46.5 -14.5t14.5 -48.5v-295h-377z" />
<glyph unicode="&#x2019;" horiz-adv-x="579" d="M88 872q88 26 123 63t35 116v36h-82q-32 0 -47 15t-15 49v295h377v-397q0 -148 -92 -234t-248 -86z" />
<glyph unicode="&#x201a;" horiz-adv-x="579" d="M88 -215q89 26 123.5 62.5t34.5 115.5v37h-82q-32 0 -47 15t-15 48v295h377v-397q0 -148 -92 -233.5t-248 -85.5z" />
<glyph unicode="&#x201c;" horiz-adv-x="1110" d="M100 760v397q0 148 92 234t248 86l52 -144q-89 -26 -123.5 -62.5t-34.5 -115.5v-37h82q32 0 46.5 -14.5t14.5 -48.5v-295h-377zM631 760v397q0 148 92 234t248 86l51 -144q-89 -26 -123.5 -62.5t-34.5 -115.5v-37h82q32 0 47 -15t15 -48v-295h-377z" />
<glyph unicode="&#x201d;" horiz-adv-x="1110" d="M86 872q88 26 123 63t35 116v36h-82q-32 0 -47 15t-15 49v295h377v-397q0 -148 -92 -234t-248 -86zM616 872q88 26 123 63t35 116v36h-82q-32 0 -46.5 15t-14.5 49v295h377v-397q0 -148 -92 -234t-248 -86z" />
<glyph unicode="&#x201e;" horiz-adv-x="1110" d="M86 -215q89 26 123.5 62.5t34.5 115.5v37h-82q-32 0 -47 15t-15 48v295h377v-397q0 -148 -92 -233.5t-248 -85.5zM616 -215q89 26 123.5 62.5t34.5 115.5v37h-82q-32 0 -46.5 14.5t-14.5 48.5v295h377v-397q0 -148 -92 -233.5t-248 -85.5z" />
<glyph unicode="&#x2022;" horiz-adv-x="1052" d="M123 578q0 184 109.5 293.5t293.5 109.5q185 0 294.5 -109.5t109.5 -293.5t-110 -294t-294 -110t-293.5 109.5t-109.5 294.5z" />
<glyph unicode="&#x2026;" horiz-adv-x="2048" d="M176 0v399h397v-399h-397zM825 0v399h398v-399h-398zM1475 0v399h397v-399h-397z" />
<glyph unicode="&#x202f;" horiz-adv-x="407" />
<glyph unicode="&#x2039;" horiz-adv-x="718" d="M61 506v143l299 299h297v-47q0 -25 -18 -43l-219 -219l-66 -53v-17l66 -53l219 -219q18 -18 18 -43v-47h-297z" />
<glyph unicode="&#x203a;" horiz-adv-x="718" d="M61 207v47q0 24 19 43l219 219l66 53v17l-66 53l-219 219q-19 19 -19 43v47h297l299 -299v-143l-299 -299h-297z" />
<glyph unicode="&#x205f;" horiz-adv-x="509" />
<glyph unicode="&#x20ac;" d="M0 479v193h115l30 -2v110l-30 -2h-115v191h111l32 -2v10q0 101 31.5 186.5t83.5 144.5t121 100.5t143.5 61t151.5 19.5q166 0 303.5 -67t214.5 -158l47 -56q16 -19 16 -41l-313 -139l-22 25q-101 112 -222 112q-178 0 -178 -184v-14l29 2h389v-191h-393l-29 2v-110l29 2 h393v-193h-393l-29 2v-22q0 -93 48 -133.5t141 -40.5q132 0 215 92l22 24l313 -139q0 -22 -16 -41l-47 -55q-76 -90 -211 -147.5t-301 -57.5q-57 0 -114 10t-119 31t-115 59.5t-95.5 90.5t-67 128.5t-24.5 168.5v32l-30 -2h-115z" />
<glyph unicode="&#x2122;" horiz-adv-x="1349" d="M59 1333v113h430v-113h-116l-37 4l6 -34v-476h-137v476l6 34l-37 -4h-115zM543 827v619h192l133 -406h11l133 406h190v-619h-131v412l2 57h-8q-24 -82 -76.5 -225.5t-62.5 -173.5h-107l-123 342l-16 57h-8l2 -57v-412h-131z" />
<glyph unicode="&#xe000;" horiz-adv-x="1095" d="M0 0v1096h1096v-1096h-1096z" />
</font>
</defs>
</svg>
