<?xml version="1.0" standalone="no"?>
<!DOCTYPE svg PUBLIC "-//W3C//DTD SVG 1.1//EN" "http://www.w3.org/Graphics/SVG/1.1/DTD/svg11.dtd" >
<svg xmlns="http://www.w3.org/2000/svg">
<metadata></metadata>
<defs>
<font id="EmbarcaderoMVBRegRegular" horiz-adv-x="1167" >
<font-face units-per-em="2048" ascent="1581" descent="-467" />
<missing-glyph horiz-adv-x="468" />
<glyph unicode="&#xfb01;" horiz-adv-x="1130" d="M39 926v127h123l37 -4l-6 34v162q0 124 71 203.5t195 79.5h10q98 0 133 -31v-108h-139q-107 0 -107 -136v-170l-6 -34l37 4h215v-127h-215l-37 4l6 -35v-895h-163v895l6 35l-37 -4h-123zM770 1321v186h188v-186h-188zM782 0v1053h164v-1053h-164z" />
<glyph unicode="&#xfb02;" horiz-adv-x="1161" d="M39 926v127h123l37 -4l-6 34v162q0 124 71 203.5t195 79.5h10q98 0 133 -31v-108h-139q-107 0 -107 -136v-170l-6 -34l37 4h215v-127h-215l-37 4l6 -35v-895h-163v895l6 35l-37 -4h-123zM782 203v1304h164v-1335q0 -18 11.5 -29.5t27.5 -11.5h117v-121q-37 -26 -70 -26 h-26q-114 0 -166 49q-30 26 -44 62t-14 108z" />
<glyph unicode="&#xfb03;" horiz-adv-x="1728" d="M39 926v127h123l37 -4l-6 34v162q0 124 71 203.5t195 79.5h10q98 0 133 -31v-108h-139q-107 0 -107 -136v-170l-6 -34h447l-6 34v162q0 124 71 203.5t195 79.5h10q98 0 133 -31v-108h-139q-107 0 -107 -136v-170l-6 -34l37 4h215v-127h-215l-37 4l6 -35v-895h-163v895 l6 35h-447l6 -35v-895h-163v895l6 35l-37 -4h-123zM1368 1321v186h188v-186h-188zM1380 0v1053h164v-1053h-164z" />
<glyph unicode="&#xfb04;" horiz-adv-x="1759" d="M39 926v127h123l37 -4l-6 34v162q0 124 71 203.5t195 79.5h10q98 0 133 -31v-108h-139q-107 0 -107 -136v-170l-6 -34h447l-6 34v162q0 124 71 203.5t195 79.5h10q98 0 133 -31v-108h-139q-107 0 -107 -136v-170l-6 -34l37 4h215v-127h-215l-37 4l6 -35v-895h-163v895 l6 35h-447l6 -35v-895h-163v895l6 35l-37 -4h-123zM1380 203v1304h164v-1335q0 -18 11.5 -29.5t27.5 -11.5h117v-121q-37 -26 -70 -26h-26q-114 0 -166 49q-30 26 -44 62t-14 108z" />
<glyph horiz-adv-x="0" />
<glyph horiz-adv-x="2048" />
<glyph unicode=" "  horiz-adv-x="468" />
<glyph unicode="&#x09;" horiz-adv-x="468" />
<glyph unicode="&#xa0;" horiz-adv-x="468" />
<glyph unicode="!" horiz-adv-x="616" d="M223 0v219h219v-219h-219zM233 1227v219h195v-219l-41 -752h-111z" />
<glyph unicode="&#x22;" horiz-adv-x="718" d="M123 954v314l20 178h179l-21 -178l-82 -314h-96zM438 954v314l21 178h178l-21 -178l-81 -314h-97z" />
<glyph unicode="#" horiz-adv-x="1492" d="M102 305v141h242l33 -4l-2 35l82 445l10 34l-41 -4h-219v142h252l33 -4l-3 34l62 322h135l-59 -322l-11 -34l41 4h336l33 -4l-2 34l61 322h136l-60 -322l-10 -34l41 4h199v-142h-232l-33 4l2 -34l-81 -445l-11 -35l41 4h213v-141h-246l-32 4l2 -35l-68 -356h-139l70 356 l10 35l-41 -4h-336l-33 4l2 -35l-67 -356h-140l70 356l10 35l-41 -4h-209zM502 442l41 4h336l32 -4l-2 35l82 445l10 34l-40 -4h-336l-33 4l2 -34l-82 -445z" />
<glyph unicode="$" d="M115 332l125 63l28 -30q71 -76 147.5 -109t207.5 -33q111 0 180 49t69 156q0 158 -215 188l-200 29q-141 21 -227.5 104.5t-86.5 219.5q0 146 98 242t289 106v211h134v-215q95 -11 161.5 -48.5t122.5 -93.5l39 -38q17 -17 17 -48l-123 -63l-31 31q-65 65 -127 91.5 t-184 26.5q-112 0 -172 -53t-60 -133q0 -151 215 -184l211 -33q64 -10 117.5 -33t97 -61.5t68 -96.5t24.5 -131q0 -157 -98 -254t-278 -112v-279h-134v279q-117 10 -197 51t-157 113l-43 41q-18 18 -18 47z" />
<glyph unicode="%" horiz-adv-x="1816" d="M102 993q0 130 18.5 190.5t61.5 104.5q82 88 236 88t239 -88q41 -45 59.5 -105t18.5 -190q0 -132 -18.5 -196t-59.5 -107q-85 -88 -239 -88t-236 88q-41 44 -60.5 108.5t-19.5 194.5zM231 993q0 -160 40.5 -219t146.5 -59q107 0 148.5 59t41.5 219q0 152 -42 211.5 t-148 59.5t-146.5 -59t-40.5 -212zM455 0l776 1364h135l-776 -1364h-135zM1081 379q0 130 18.5 190.5t61.5 104.5q82 88 236 88t239 -88q41 -45 59.5 -105t18.5 -190q0 -132 -18.5 -196t-59.5 -107q-85 -88 -239 -88t-236 88q-41 44 -60.5 108.5t-19.5 194.5zM1210 379 q0 -160 40.5 -219.5t146.5 -59.5q107 0 148.5 59.5t41.5 219.5q0 152 -42 211t-148 59t-146.5 -59t-40.5 -211z" />
<glyph unicode="&#x26;" horiz-adv-x="1398" d="M72 389q0 150 81.5 263t217.5 163l22 8l-18 21q-137 151 -137 293q0 154 101.5 242.5t258.5 88.5q151 0 258 -90t107 -235q0 -240 -301 -357l282 -299l23 -30l239 348l146 -66q0 -19 -19 -43l-256 -346q114 -127 162 -166t90 -39h70v-131q-27 -24 -99 -24h-8 q-68 0 -125 40.5t-159 151.5l-27 37l-25 -31q-167 -208 -434 -208q-224 0 -337 113.5t-113 295.5zM246 391q0 -119 79.5 -192.5t198.5 -73.5q110 0 184.5 45.5t163.5 151.5l-374 389q-126 -32 -189 -120t-63 -200zM410 1143q0 -93 139 -250l14 -16q124 58 179 116.5 t55 141.5q0 91 -57.5 143.5t-141.5 52.5q-85 0 -136.5 -49.5t-51.5 -138.5z" />
<glyph unicode="'" horiz-adv-x="403" d="M123 954v314l20 178h179l-21 -178l-82 -314h-96z" />
<glyph unicode="(" horiz-adv-x="733" d="M125 592v35q0 127 28 250.5t72 221.5t102.5 185t116 148t115.5 104h121v-45q0 -30 -18 -41q-154 -106 -261.5 -335t-107.5 -488v-35q0 -260 108 -493.5t261 -338.5q18 -11 18 -41v-45h-121q-73 54 -145.5 140.5t-139 202.5t-108 267t-41.5 308z" />
<glyph unicode=")" horiz-adv-x="733" d="M53 -281q0 12 5.5 24t13.5 17q154 105 261 334.5t107 489.5v34q0 260 -107.5 493.5t-260.5 338.5q-8 5 -13.5 17t-5.5 24v45h121q73 -54 145.5 -140.5t139 -202.5t108 -267t41.5 -308v-34q0 -127 -28 -250.5t-72.5 -221.5t-102.5 -185.5t-115.5 -148.5t-115.5 -104h-121 v45z" />
<glyph unicode="*" horiz-adv-x="815" d="M61 1137l52 151l100 -31l147 -100l17 19l-47 163v107h162v-107l-48 -163l19 -19l141 98l103 31l51 -151l-103 -35l-174 -6l-6 -25l135 -104l66 -86l-133 -97l-64 88l-57 164h-25l-61 -164l-62 -88l-133 97l66 88l137 106l-6 25l-176 4z" />
<glyph unicode="+" d="M14 494v155h457l37 -4l-6 35v461h166v-461l-6 -35l36 4h455v-155h-455l-36 4l6 -35v-463h-166v463l6 35l-37 -4h-457z" />
<glyph unicode="," horiz-adv-x="444" d="M90 -180q75 6 103 35t28 100v45h-49q-31 0 -45 14.5t-14 46.5v158h227v-276q0 -61 -21.5 -107t-56.5 -71t-72.5 -36.5t-76.5 -11.5z" />
<glyph unicode="-" horiz-adv-x="628" d="M94 494v157h441v-157h-441z" />
<glyph unicode="." horiz-adv-x="444" d="M113 0v219h219v-219h-219z" />
<glyph unicode="/" horiz-adv-x="894" d="M0 -236l745 1682h150l-750 -1682h-145z" />
<glyph unicode="0" d="M133 700q0 188 16 298t42 161.5t77 102.5q122 122 316 122q197 0 317 -120q50 -53 75.5 -104t41.5 -162t16 -298q0 -198 -16 -315.5t-42 -172.5t-77 -106q-122 -122 -315 -122q-194 0 -316 122q-51 51 -77 106t-42 172.5t-16 315.5zM307 700q0 -252 18 -349.5t72 -153.5 q65 -68 185 -68q123 0 188 68q54 56 72 153.5t18 349.5q0 228 -18 321.5t-72 147.5q-70 70 -186 70q-122 0 -187 -68q-54 -56 -72 -149.5t-18 -321.5z" />
<glyph unicode="1" d="M236 0v150h274l37 -5l-6 35v985l6 35l-230 -100q-34 -15 -81 -15v148l350 131h145l-16 -141v-1043l-6 -35l36 5h228v-150h-737z" />
<glyph unicode="2" d="M143 0v283q0 128 89 233t235 164l170 68q39 15 60.5 25t54 31.5t50 44.5t31 59.5t13.5 82.5q0 106 -73 177t-185 71q-84 0 -144.5 -29.5t-150.5 -119.5l-17 -17l-124 62q0 31 30 61l25 25q37 37 68.5 61.5t79 50.5t109.5 38.5t138 12.5q184 0 301 -105.5t117 -281.5 q0 -69 -20 -126.5t-50.5 -97t-79 -75t-93 -57.5t-105.5 -47l-170 -68q-84 -33 -134.5 -99t-50.5 -138v-109l-6 -35l37 5h660v-150h-865z" />
<glyph unicode="3" d="M129 1135q0 30 31 61l24 25q34 34 60.5 55.5t73 50t108 43t135.5 14.5q169 0 283 -90.5t114 -236.5q0 -112 -54.5 -184t-137.5 -103v-14q102 -20 172 -106t70 -214q0 -117 -60.5 -211t-164 -153t-235.5 -90t-280 -31h-45q-29 0 -61 22v136h100q277 0 424.5 92.5 t147.5 240.5q0 54 -20.5 96t-53 65t-67.5 34.5t-70 11.5q-58 0 -129 -14l-103 -23l-26 142l151 26q48 9 93.5 29.5t85 51.5t63.5 76t24 97q0 89 -64.5 147t-174.5 58q-79 0 -134.5 -33t-138.5 -116l-16 -17z" />
<glyph unicode="4" d="M88 346v143q0 23 16 43l615 832h153v-846l-6 -35l37 4h168v-141h-168l-37 4l6 -35v-315h-174v315l7 35l-37 -4h-580zM233 487h435l37 -4l-7 35v471l15 141l-11 3l-436 -617z" />
<glyph unicode="5" d="M190 672l48 692h751v-150h-608l-31 -413l37 24q67 44 123 61t152 17q172 0 270 -114.5t98 -286.5q0 -118 -39 -212.5t-105.5 -157t-160 -104t-198.5 -59.5t-226 -18h-45q-29 0 -61 22v136h100q286 0 423.5 97.5t137.5 295.5q0 35 -5.5 65.5t-22.5 66t-44.5 60.5t-77 41.5 t-114.5 16.5q-54 0 -110.5 -12.5t-88.5 -34.5l-108 -72z" />
<glyph unicode="6" d="M127 489q0 260 56 456t157 298q168 174 465 174h65q40 0 62 -22v-135h-101q-233 0 -358.5 -132t-165.5 -411l17 18q57 64 134.5 99.5t194.5 35.5q179 0 289.5 -114.5t110.5 -298.5q0 -238 -126 -355.5t-347 -117.5q-224 0 -338.5 131.5t-114.5 373.5zM301 453 q0 -138 74.5 -231t214.5 -93q147 0 217 76t70 229q0 285 -287 285q-144 0 -216.5 -70t-72.5 -196z" />
<glyph unicode="7" d="M154 1214v150h903v-139q-38 -40 -58 -62.5t-78 -95t-97.5 -135.5t-96.5 -170t-96.5 -213.5t-76.5 -251t-56 -297.5h-195q19 164 71 332.5t115 301.5t137 254t133.5 199t108.5 127h-714z" />
<glyph unicode="8" d="M111 391q0 122 79.5 216.5t174.5 107.5v8q-70 14 -141.5 102t-71.5 197q0 146 118 254t314 108t314 -108t118 -254q0 -109 -71.5 -197t-141.5 -102v-8q95 -13 174.5 -107.5t79.5 -216.5q0 -104 -37.5 -183.5t-103.5 -127.5t-149.5 -72t-182.5 -24t-182.5 24t-149.5 72 t-103.5 127.5t-37.5 183.5zM293 393q0 -264 293 -264q291 0 291 264q0 250 -293 250q-291 0 -291 -250zM324 1012q0 -100 68 -164t194 -64q124 0 192 64t68 164q0 95 -69 161t-193 66q-123 0 -191.5 -66t-68.5 -161z" />
<glyph unicode="9" d="M115 911q0 237 126.5 355t346.5 118q224 0 338 -131.5t114 -373.5q0 -268 -59.5 -466.5t-165.5 -299.5q-168 -162 -457 -162h-61q-36 0 -61 22v136h100q222 0 357.5 131t166.5 411q-62 -62 -89 -82q-99 -71 -257 -71q-178 0 -288.5 114t-110.5 299zM291 934 q0 -285 287 -285q144 0 216 70t72 196q0 138 -74 231t-214 93q-147 0 -217 -76t-70 -229z" />
<glyph unicode=":" horiz-adv-x="567" d="M174 0v219h219v-219h-219zM174 834v219h219v-219h-219z" />
<glyph unicode=";" horiz-adv-x="567" d="M152 -180q75 6 103 35t28 100v45h-50q-31 0 -45 14.5t-14 46.5v158h219v-276q0 -61 -20.5 -107t-53.5 -71t-69.5 -36.5t-75.5 -11.5zM174 834v219h219v-219h-219z" />
<glyph unicode="&#x3c;" d="M57 516v109l1053 516v-185l-686 -309l-158 -65v-25l158 -57l686 -312v-184z" />
<glyph unicode="=" d="M57 221v152h1053v-152h-1053zM57 766v154h1053v-154h-1053z" />
<glyph unicode="&#x3e;" d="M57 4v184l686 312l158 57v25q-171 70 -486 212.5t-358 161.5v185l1053 -516v-109z" />
<glyph unicode="?" horiz-adv-x="890" d="M86 1212q0 8 6.5 23t11.5 20l27 27q99 99 172.5 139.5t185.5 40.5q139 0 233.5 -89.5t94.5 -248.5q0 -149 -135 -284l-96 -97q-32 -32 -46 -48.5t-35 -49.5t-29.5 -74.5t-8.5 -95.5h-152q0 123 27.5 188t99.5 138l125 127q95 95 95 207q0 50 -20 88t-51.5 58.5t-65.5 30 t-68 9.5q-61 0 -105 -27t-125 -108l-28 -29zM291 0v219h219v-219h-219z" />
<glyph unicode="@" horiz-adv-x="2052" d="M168 471q0 265 63 454.5t197 323.5q222 219 600 219q480 0 705 -235q79 -86 115 -197.5t36 -290.5q0 -401 -162 -559q-116 -116 -288 -116q-72 0 -125 16.5t-81 44.5t-41 59t-13 66h-7l-75 -78q-105 -108 -244 -108q-74 0 -126 21.5t-80 62t-40 88.5t-12 110 q0 192 49 347.5t127 236.5q100 100 233 100q126 0 201 -75l64 -64l26 131h152l-109 -620q-10 -54 -10 -107q0 -67 28.5 -92t92.5 -25q101 0 174 70q57 57 89 166t32 325q0 161 -28.5 247t-90.5 151q-188 194 -592 194q-315 0 -493 -184q-72 -74 -117.5 -155.5t-73 -213.5 t-27.5 -313q0 -257 80 -417.5t242 -243.5q142 -74 348 -74q183 0 294 17t156 40t93 68l29 26l104 -51q0 -25 -16 -41l-21 -20q-93 -93 -234 -131.5t-405 -38.5q-229 0 -401 82q-210 99 -314 292.5t-104 491.5zM750 365q0 -81 34 -120.5t117 -39.5q91 0 173 71t95 146l56 309 q11 68 -43 123t-146 55q-97 0 -159 -67q-53 -55 -90 -186t-37 -291z" />
<glyph unicode="A" horiz-adv-x="1290" d="M74 0l477 1446h194l467 -1446h-184l-96 309l-4 37l-37 -4h-510l-37 4l-4 -37l-98 -309h-168zM391 483l37 4h418l37 -4l-15 37l-190 613l-29 127h-20l-31 -127l-190 -613z" />
<glyph unicode="B" horiz-adv-x="1357" d="M205 0v1446h508q123 0 220.5 -32t151.5 -89q93 -96 93 -235q0 -115 -56.5 -194.5t-156.5 -119.5v-14q112 -15 199 -107t87 -237q0 -199 -116 -312q-57 -55 -148.5 -80.5t-273.5 -25.5h-508zM373 141l37 4h360q297 0 297 279q0 114 -73 179t-224 65h-360l-37 4l6 -35v-461 zM373 807l37 4h280q154 0 225.5 62.5t71.5 189.5q0 106 -74 171.5t-223 65.5h-280l-37 5l6 -35v-428z" />
<glyph unicode="C" horiz-adv-x="1374" d="M123 733q0 224 38.5 348t129.5 215q172 172 448 172q267 0 473 -206l48 -48q18 -18 18 -43l-137 -69l-43 45q-168 176 -346 176q-207 0 -326 -119q-67 -65 -95 -171t-28 -300q0 -205 28 -314.5t95 -174.5q56 -55 137 -87t176 -32q63 0 120 15.5t102.5 44.5t76 54t62.5 58 l41 43l137 -70q0 -25 -18 -43l-46 -45q-202 -202 -483 -202q-277 0 -440 153q-91 84 -129.5 220t-38.5 380z" />
<glyph unicode="D" horiz-adv-x="1447" d="M205 0v1446h545q152 0 253 -40t175 -120q37 -38 59 -74t43 -97t30 -154.5t9 -227.5q0 -188 -22 -310t-55 -180t-89 -110q-145 -133 -403 -133h-545zM373 141l37 4h340q165 0 268 95q42 39 65 82.5t38.5 144.5t15.5 266q0 215 -26 311.5t-83 153.5q-99 102 -278 102h-340 l-37 5l6 -35v-1094z" />
<glyph unicode="E" horiz-adv-x="1306" d="M205 0v1446h942v-146h-737l-37 5l6 -35v-434l-6 -35l37 4h645v-146h-645l-37 5l6 -35v-453l-6 -35l37 4h757v-145h-962z" />
<glyph unicode="F" horiz-adv-x="1175" d="M205 0v1446h893v-146h-688l-37 5l6 -35v-434l-6 -35l37 4h598v-146h-598l-37 5l6 -35v-629h-174z" />
<glyph unicode="G" horiz-adv-x="1437" d="M123 733q0 224 38.5 348t129.5 215q79 79 192 125.5t252 46.5q271 0 482 -211l43 -43q18 -18 18 -43l-137 -69l-43 45q-34 35 -62 59.5t-73 54.5t-98.5 46t-112.5 16q-207 0 -326 -119q-67 -65 -95 -171t-28 -300q0 -205 28 -314.5t95 -174.5q122 -119 344 -119 q108 0 188.5 37t163.5 129l21 22v250l6 35l-39 -4h-350v143h538v-456q0 -29 -16 -45l-61 -64q-110 -114 -219.5 -153t-256.5 -39q-284 0 -454 153q-91 84 -129.5 220t-38.5 380z" />
<glyph unicode="H" horiz-adv-x="1445" d="M205 0v1446h174v-610l-6 -35l37 4h626l37 -4l-6 35v610h174v-1446h-174v631l6 35l-37 -4h-626l-37 4l6 -35v-631h-174z" />
<glyph unicode="I" horiz-adv-x="583" d="M205 0v1446h174v-1446h-174z" />
<glyph unicode="J" horiz-adv-x="972" d="M23 231l120 64l68 -68q102 -102 203 -102q97 0 149 49q27 26 40 71t13 142v1059h170v-1069q0 -121 -22 -185t-68 -110q-99 -102 -272 -102q-183 0 -311 124l-74 72q-16 16 -16 55z" />
<glyph unicode="K" horiz-adv-x="1380" d="M205 0v1446h174v-746l704 746h187q0 -26 -15 -43l-501 -520l594 -840q14 -21 14 -43h-205l-522 760l-256 -254v-506h-174z" />
<glyph unicode="L" horiz-adv-x="1060" d="M205 0v1446h174v-1270l-6 -35l37 4h634v-145h-839z" />
<glyph unicode="M" horiz-adv-x="1699" d="M205 0v1446h274l371 -924h10l371 924h264v-1446h-170v1147l6 137h-20l-41 -137l-352 -862h-136l-352 862l-41 137h-20l6 -137v-1147h-170z" />
<glyph unicode="N" horiz-adv-x="1470" d="M205 0v1446h241l560 -1053l77 -190h21l-4 180v1063h166v-1446h-234l-567 1055l-78 188h-20l4 -180v-1063h-166z" />
<glyph unicode="O" horiz-adv-x="1521" d="M127 725q0 240 34.5 359.5t123.5 209.5q167 174 475 174t479 -174q88 -92 122 -211t34 -358q0 -238 -35.5 -362t-124.5 -213q-170 -170 -475 -170q-302 0 -469 167q-91 91 -127.5 216t-36.5 362zM307 725q0 -203 27 -309.5t94 -171.5q122 -119 332 -119q212 0 336 117 q66 63 92 170t26 313q0 201 -27 307.5t-93 169.5q-121 121 -334 121q-215 0 -334 -119q-66 -64 -92.5 -171t-26.5 -308z" />
<glyph unicode="P" horiz-adv-x="1277" d="M205 0v1446h506q268 0 385 -127q102 -108 102 -293q0 -201 -117 -315q-59 -57 -144.5 -85t-225.5 -28h-301l-37 4l6 -35v-567h-174zM373 739l37 4h323q151 0 219 73t68 210q0 127 -69 200.5t-218 73.5h-323l-37 5l6 -35v-496z" />
<glyph unicode="Q" horiz-adv-x="1521" d="M127 725q0 240 34.5 359.5t123.5 209.5q167 174 475 174t479 -174q88 -92 122 -211t34 -358q0 -238 -35.5 -362t-126.5 -213q-119 -119 -305 -156q46 -92 111.5 -134t191.5 -42h164v-137q-41 -27 -74 -27h-113q-82 0 -146.5 14t-112.5 39.5t-87 67t-66.5 90t-54.5 115.5 q-289 6 -450 167q-91 91 -127.5 216t-36.5 362zM307 723q0 -201 26.5 -307.5t92.5 -169.5q121 -121 336 -121q213 0 332 119q66 65 93 172t27 307q0 205 -26 310.5t-92 170.5q-122 119 -334 119q-210 0 -334 -117q-66 -63 -93.5 -171t-27.5 -312z" />
<glyph unicode="R" horiz-adv-x="1382" d="M205 0v1446h569q241 0 361 -123q104 -107 104 -281q0 -323 -283 -395l334 -604q15 -27 15 -43h-193l-334 621h-368l-37 4l6 -35v-590h-174zM373 760l37 4h366q152 0 219.5 70.5t67.5 207.5q0 114 -70 186t-217 72h-366l-37 5l6 -35v-475z" />
<glyph unicode="S" horiz-adv-x="1320" d="M76 270l137 68l27 -27q100 -100 207 -143t253 -43q161 0 249.5 76t88.5 200q0 102 -72 156.5t-190 71.5l-205 30q-231 35 -342 146q-98 101 -98 254q0 188 142 298.5t386 110.5q90 0 169 -17.5t133.5 -46t87 -51.5t57.5 -48l39 -39q18 -18 18 -43l-137 -70l-41 41 q-129 129 -342 129q-153 0 -242.5 -67.5t-89.5 -180.5q0 -57 21 -98.5t62.5 -68.5t91 -43t118.5 -27l213 -33q83 -12 153 -40.5t127 -74.5t89.5 -117t32.5 -159q0 -101 -43.5 -185t-116.5 -137.5t-165.5 -82.5t-193.5 -29q-182 0 -319 48.5t-242 153.5l-45 45q-18 18 -18 43 z" />
<glyph unicode="T" horiz-adv-x="1140" d="M47 1300v146h1047v-146h-404l-37 5l6 -35v-1270h-178v1270l6 35l-36 -5h-404z" />
<glyph unicode="U" horiz-adv-x="1400" d="M182 477v969h174v-948q0 -52 1.5 -84t8.5 -76t20 -71t38.5 -57t61.5 -46.5t90 -27.5t124 -11t123.5 11t90 27.5t61.5 46.5t38.5 57t20.5 70.5t8.5 76t1.5 84.5v948h175v-969q0 -57 -4.5 -103t-18 -99t-36 -94t-62 -80t-92.5 -64.5t-130.5 -41t-173.5 -15.5t-173.5 15.5 t-131 41t-93.5 64.5t-63 80t-36.5 94t-18 99.5t-4.5 102.5z" />
<glyph unicode="V" horiz-adv-x="1234" d="M51 1446h197l336 -1120l28 -127h21l31 127l333 1120h193l-477 -1446h-193z" />
<glyph unicode="W" horiz-adv-x="1945" d="M90 1446h189l245 -1131l25 -147h20l25 147l264 1131h229l265 -1131l26 -147h21l22 147l246 1131h191l-359 -1446h-231l-264 1130l-25 148h-21l-24 -148l-258 -1130h-230z" />
<glyph unicode="X" horiz-adv-x="1277" d="M68 0q0 22 14 43l446 711l-436 649q-14 21 -14 43h211l325 -528l27 -52l27 52l344 528h186q0 -22 -14 -43l-443 -649l453 -711q14 -21 14 -43h-215q-30 53 -160 283t-200 354q-71 -126 -207 -353t-170 -284h-188z" />
<glyph unicode="Y" horiz-adv-x="1277" d="M25 1446h213q34 -64 183 -340t228 -426q78 151 227.5 424.5t186.5 341.5h194l-532 -926v-520h-174v520z" />
<glyph unicode="Z" horiz-adv-x="1259" d="M96 0v125l836 1175h-762v146h983v-125l-840 -1176h850v-145h-1067z" />
<glyph unicode="[" horiz-adv-x="745" d="M156 -326v1862h465v-123h-283l-37 2l6 -33v-1554l-6 -35l37 4h283v-123h-465z" />
<glyph unicode="\" horiz-adv-x="894" d="M0 1446h150l745 -1682h-145z" />
<glyph unicode="]" horiz-adv-x="745" d="M125 -203h283l36 -4l-6 35v1554l6 33l-36 -2h-283v123h465v-1862h-465v123z" />
<glyph unicode="^" d="M20 414l506 950h109l512 -950h-195q-41 86 -112.5 238t-131.5 278t-114 237h-25q-51 -113 -110 -239.5t-131.5 -277t-112.5 -236.5h-195z" />
<glyph unicode="_" d="M-10 -324h1188v-127h-1188v127z" />
<glyph unicode="`" horiz-adv-x="839" d="M86 1470v60h145q20 0 43 -17l207 -182q17 -17 17 -45v-55h-80l-316 196q-16 10 -16 43z" />
<glyph unicode="a" horiz-adv-x="1101" d="M96 291q0 123 87.5 203.5t226.5 99.5l161 22q106 14 143.5 36t37.5 73q0 203 -242 203q-63 0 -118 -29t-91 -65l-68 -68l-110 57q0 36 18 54l31 30q80 80 164 121t186 41q203 0 303 -106q46 -49 68 -114t22 -175v-502q0 -18 11.5 -29.5t27.5 -11.5h80v-121 q-26 -26 -96 -26h-23q-68 0 -116.5 40t-48.5 97l-35 -35q-102 -102 -281 -102q-151 0 -244.5 81t-93.5 226zM256 297q0 -180 225 -180q120 0 195.5 70t75.5 190v151l-70 -24l-258 -39q-168 -25 -168 -168z" />
<glyph unicode="b" horiz-adv-x="1155" d="M184 0v1507h164v-592l47 48q57 57 111.5 81.5t134.5 24.5q178 0 277 -102q55 -57 81.5 -150.5t26.5 -277.5q0 -203 -28 -302.5t-87 -156.5q-101 -96 -270 -96q-82 0 -136.5 21.5t-109.5 76.5l-57 57v-139h-154zM348 336q0 -38 15.5 -74.5t45 -67.5t80 -50t113.5 -19 q122 0 184 59q44 44 61 118.5t17 236.5q0 138 -16 210.5t-57 114.5q-64 64 -189 64q-122 0 -188 -65t-66 -148v-379z" />
<glyph unicode="c" horiz-adv-x="1038" d="M129 539q0 177 27 261t84 144q116 125 313 125q113 0 189 -36.5t161 -121.5l35 -34q18 -18 18 -54l-110 -57l-70 70q-48 48 -95.5 70t-109.5 22q-128 0 -196 -68q-46 -46 -65 -119t-19 -202q0 -163 17.5 -239t62.5 -116q65 -59 200 -59q111 0 205 94l70 70l110 -58 q0 -35 -18 -53l-35 -35q-82 -82 -163.5 -120.5t-186.5 -38.5q-202 0 -307 102q-40 38 -62.5 78.5t-38.5 133.5t-16 241z" />
<glyph unicode="d" horiz-adv-x="1155" d="M129 539q0 184 26.5 277.5t82.5 150.5q99 102 276 102q82 0 136.5 -21.5t109.5 -76.5l47 -47v583h164v-1507h-154v147l-57 -57q-58 -58 -112 -82t-134 -24q-169 0 -270 96q-59 57 -87 156.5t-28 302.5zM291 539q0 -162 17 -236.5t61 -118.5q59 -59 184 -59q63 0 113.5 19 t80 50t45 67.5t15.5 74.5v379q0 83 -66 148t-188 65q-124 0 -188 -64q-41 -43 -57.5 -115.5t-16.5 -209.5z" />
<glyph unicode="e" horiz-adv-x="1105" d="M129 539q0 167 28 260.5t89 156.5q110 113 309 113q186 0 299 -113q121 -121 121 -360v-100h-651l-37 4l6 -35v-27q0 -161 60.5 -237t215.5 -76q130 0 224 94l69 70l111 -58q0 -34 -19 -53l-32 -33q-91 -91 -171.5 -126t-181.5 -35q-215 0 -325 104q-62 58 -88.5 155 t-26.5 296zM289 618l37 5h452l37 -5l-6 35v35q0 102 -66 171t-190 69q-72 0 -124 -19t-80 -53.5t-41 -76t-13 -91.5v-35z" />
<glyph unicode="f" horiz-adv-x="598" d="M39 926v127h123l37 -4l-6 34v162q0 124 71 203.5t195 79.5h10q98 0 133 -31v-108h-139q-107 0 -107 -136v-170l-6 -34l37 4h215v-127h-215l-37 4l6 -35v-895h-163v895l6 35l-37 -4h-123z" />
<glyph unicode="g" horiz-adv-x="1155" d="M129 528q0 188 26.5 286t80.5 153q97 102 286 102q76 0 129.5 -21.5t108.5 -76.5l57 -58v140h154v-1084q0 -201 -105.5 -318.5t-318.5 -117.5q-122 0 -216 36t-143 85l-22 22q-19 19 -19 54l111 57q57 -57 120 -85t163 -28q48 0 84.5 7t72 27.5t58.5 54.5t37 91t14 134 v149l-47 -47q-57 -57 -111.5 -81.5t-136.5 -24.5q-167 0 -268 96q-58 57 -86.5 156t-28.5 292zM291 530q0 -100 7 -165t24 -109t47 -72q63 -59 180 -59q65 0 116.5 19t81.5 50t45 67.5t15 74.5v379q0 38 -15 74.5t-45 68.5t-81.5 51t-116.5 19q-120 0 -184 -64 q-42 -41 -58 -119t-16 -215z" />
<glyph unicode="h" horiz-adv-x="1163" d="M184 0v1507h164v-587l43 43q59 59 121 82.5t135 23.5q162 0 258 -102q92 -98 92 -285v-682h-163v711q0 40 -10.5 75.5t-34.5 69t-70.5 53t-110.5 19.5q-119 0 -189.5 -62t-70.5 -155v-711h-164z" />
<glyph unicode="i" horiz-adv-x="532" d="M172 1321v186h188v-186h-188zM184 0v1053h164v-1053h-164z" />
<glyph unicode="j" horiz-adv-x="532" d="M-41 -315h82q75 0 109 44t34 115v1209h164v-1207q0 -135 -77.5 -218t-213.5 -83h-6q-65 0 -92 27v113zM172 1321v186h188v-186h-188z" />
<glyph unicode="k" horiz-adv-x="1060" d="M184 0v1507h164v-942l473 488h183v-9q0 -19 -15 -34l-387 -365l414 -602q14 -21 14 -43h-192l-349 535l-141 -129v-406h-164z" />
<glyph unicode="l" horiz-adv-x="563" d="M184 203v1304h164v-1335q0 -18 11.5 -29.5t27.5 -11.5h117v-121q-37 -26 -70 -26h-26q-114 0 -166 49q-30 26 -44 62t-14 108z" />
<glyph unicode="m" horiz-adv-x="1753" d="M184 0v1053h154v-144l53 54q58 58 113 82t137 24q216 0 293 -160l18 19q76 76 144.5 108.5t156.5 32.5q155 0 246 -94q90 -97 90 -293v-682h-166v711q0 41 -9 76t-30 68.5t-63.5 53t-101.5 19.5q-111 0 -180.5 -62.5t-69.5 -154.5v-711h-166v711q0 41 -9 76t-30.5 68.5 t-64 53t-101.5 19.5q-111 0 -180.5 -62.5t-69.5 -154.5v-711h-164z" />
<glyph unicode="n" horiz-adv-x="1163" d="M184 0v1053h154v-144l53 54q60 60 121.5 83t140.5 23q155 0 252 -100q92 -98 92 -287v-682h-163v711q0 40 -10.5 75.5t-34.5 69t-70.5 53t-110.5 19.5q-119 0 -189.5 -62t-70.5 -155v-711h-164z" />
<glyph unicode="o" horiz-adv-x="1142" d="M129 528q0 164 29.5 265t89.5 161q115 115 325 115q205 0 320 -115q61 -61 91 -161.5t30 -264.5q0 -309 -121 -430q-114 -114 -320 -114q-211 0 -325 114q-60 60 -89.5 162.5t-29.5 267.5zM295 528q0 -144 18.5 -218t59.5 -117q65 -68 198 -68q134 0 199 68 q41 43 59.5 117t18.5 218t-18 216.5t-60 115.5q-65 68 -199 68q-133 0 -198 -68q-42 -43 -60 -115.5t-18 -216.5z" />
<glyph unicode="p" horiz-adv-x="1155" d="M184 -451v1504h154v-148l57 58q54 54 111 80t139 26q173 0 275 -102q52 -55 79 -152t27 -283q0 -197 -29 -298t-86 -156q-102 -94 -274 -94q-77 0 -132.5 22t-109.5 76l-47 47v-580h-164zM348 336q0 -83 65.5 -147t190.5 -64q120 0 182 59q44 41 61 119t17 227 q0 138 -15.5 215.5t-57.5 118.5q-64 64 -185 64q-126 0 -192 -64.5t-66 -148.5v-379z" />
<glyph unicode="q" horiz-adv-x="1155" d="M129 526q0 193 27.5 290t79.5 151q102 102 284 102q76 0 130.5 -21.5t109.5 -76.5l57 -58v140h154v-1504h-164v588l-47 -47q-57 -57 -112 -81.5t-136 -24.5q-167 0 -268 96q-58 57 -86.5 156t-28.5 290zM291 530q0 -149 17 -227t61 -119q63 -59 180 -59q126 0 192 64 t66 147v379q0 84 -66 148.5t-192 64.5q-120 0 -184 -64q-42 -41 -58 -119t-16 -215z" />
<glyph unicode="r" horiz-adv-x="722" d="M184 0v1053h154v-144l59 60q46 46 91 68t77 22h39q19 0 43 -8t33 -17v-137h-123q-87 0 -148 -52.5t-61 -142.5v-702h-164z" />
<glyph unicode="s" horiz-adv-x="1021" d="M86 231l111 58l16 -17q151 -151 332 -151q114 0 169.5 44.5t55.5 123.5q0 136 -197 166l-172 26q-137 22 -210.5 93.5t-73.5 185.5q0 139 98 224t274 85q72 0 131 -12.5t103.5 -36.5t74 -46.5t62.5 -55.5l19 -19q18 -18 18 -53l-111 -58l-16 17q-63 63 -130 95t-163 32 q-100 0 -153.5 -45.5t-53.5 -112.5q0 -120 199 -151l188 -31q122 -20 195.5 -90.5t73.5 -194.5q0 -144 -93.5 -233.5t-285.5 -89.5q-248 0 -418 170l-25 24q-18 18 -18 53z" />
<glyph unicode="t" horiz-adv-x="659" d="M53 926v127h121l37 -4l-6 34v250h164v-250l-7 -34l37 4h199v-127h-199l-37 4l7 -35v-604q0 -71 34 -115.5t109 -44.5h86v-121q-26 -26 -72 -26h-39q-132 0 -207 87t-75 214v610l6 35l-37 -4h-121z" />
<glyph unicode="u" horiz-adv-x="1163" d="M166 371v682h164v-711q0 -31 6 -60t22 -58.5t40 -50.5t63.5 -34.5t89.5 -13.5q123 0 193.5 62t70.5 155v711h164v-1053h-154v143l-57 -57q-56 -56 -118 -79t-142 -23q-150 0 -246 96q-96 99 -96 291z" />
<glyph unicode="v" horiz-adv-x="962" d="M12 1053h189l256 -764l22 -92h10l25 92l260 764h178l-389 -1053h-166z" />
<glyph unicode="w" horiz-adv-x="1480" d="M39 1053h180l176 -701l21 -108h10q41 162 127 454.5t104 354.5h170l207 -701l25 -108h10q26 121 60 258.5t73.5 295t63.5 255.5h180l-297 -1053h-158l-221 733l-22 109h-11l-22 -109l-221 -733h-158z" />
<glyph unicode="x" horiz-adv-x="966" d="M43 0q0 22 14 43l328 496l-307 471q-15 23 -15 43h187l211 -363l20 -41q45 81 134.5 225.5t109.5 178.5h170q0 -22 -14 -43l-301 -465l321 -502q14 -21 14 -43h-190l-227 385l-21 43q-47 -86 -141.5 -239t-116.5 -189h-176z" />
<glyph unicode="y" horiz-adv-x="964" d="M6 1053h184l275 -768l22 -92h11l24 92l248 768h182l-440 -1205q-18 -50 -36.5 -91t-44 -82t-53.5 -68.5t-64.5 -44.5t-77.5 -17h-7q-65 0 -92 27v121h82q51 0 82.5 41t60.5 119l48 131z" />
<glyph unicode="z" horiz-adv-x="907" d="M76 0v102l555 824h-506v127h698v-103l-555 -823h572v-127h-764z" />
<glyph unicode="{" horiz-adv-x="845" d="M78 543v151h127q64 0 102 60t27 127l-55 346q-3 18 -3 39q0 111 96 190.5t208 79.5h102q28 0 61 -23v-100h-120q-89 0 -139 -44.5t-50 -117.5q0 -42 8 -86l56 -331q3 -16 -17 -39l-164 -168v-17l164 -170q19 -19 17 -39l-56 -350q-8 -52 -8 -98q0 -65 50 -110.5 t139 -45.5h120v-102q-34 -21 -61 -21h-102q-72 0 -142 36t-116 100t-46 137q0 19 3 37l55 370q10 68 -28 128.5t-101 60.5h-127z" />
<glyph unicode="|" horiz-adv-x="790" d="M297 -348v2068h197v-2068h-197z" />
<glyph unicode="}" horiz-adv-x="845" d="M102 -203h121q89 0 139 45.5t50 110.5q0 40 -9 98l-55 350q-3 23 17 39l163 170v17l-163 168q-20 23 -17 39l55 331q9 49 9 86q0 73 -50 117.5t-139 44.5h-121v100q33 23 62 23h102q71 0 140.5 -34.5t116 -98t46.5 -137.5q0 -27 -2 -39l-55 -346q-11 -67 27 -127t102 -60 h127v-151h-127q-63 0 -101 -60.5t-28 -128.5l55 -370q2 -12 2 -37q0 -102 -86 -185q-43 -42 -102 -65t-115 -23h-102q-28 0 -62 21v102z" />
<glyph unicode="~" d="M96 506q0 32 23 55l86 86q56 56 103.5 78.5t105.5 22.5q57 0 104.5 -23t102.5 -78l51 -53q52 -49 82 -49q36 0 88 49l94 94l137 -70q0 -31 -22 -53l-86 -86q-56 -56 -103.5 -78t-105.5 -22t-105 22.5t-102 77.5l-51 51q-50 50 -82 50q-38 0 -88 -50l-92 -92z" />
<glyph unicode="&#xa1;" horiz-adv-x="616" d="M174 834v219h219v-219h-219zM188 -174l41 752h111l43 -752v-219h-195v219z" />
<glyph unicode="&#xa2;" d="M170 539q0 177 27 261t84 144q116 125 313 125q50 0 90 -6l84 301h133l-94 -342q56 -30 137 -111l35 -34q18 -18 18 -54l-110 -57l-70 70q-51 51 -94 71.5t-111 20.5q-128 0 -196 -68q-46 -46 -65 -119t-19 -202q0 -163 17.5 -239t62.5 -116q65 -59 200 -59 q68 0 111 21.5t94 72.5l70 70l110 -58q0 -35 -18 -53l-35 -35q-86 -86 -160.5 -122.5t-189.5 -36.5q-44 0 -64 2l-88 -316h-133l94 342q-67 25 -116 74q-40 38 -62.5 78.5t-38.5 133.5t-16 241z" />
<glyph unicode="&#xa3;" d="M59 14v136h105q103 0 160 77.5t57 182.5q0 63 -16 107.5t-56 119.5h-250v127h183q-28 54 -41.5 83.5t-27 78.5t-13.5 98q0 159 124.5 259.5t323.5 100.5q129 0 214 -43t169 -127l19 -18q30 -30 30 -61l-122 -62l-17 17q-80 80 -145 114.5t-156 34.5q-117 0 -191.5 -59 t-74.5 -166q0 -46 29.5 -115t64.5 -135h365v-127h-306q20 -35 35 -90t15 -105q0 -121 -56 -233l185 -53q58 -15 88 -15q33 0 56 12.5t62 51.5l105 104l129 -65q0 -20 -31 -51l-84 -84q-58 -58 -114.5 -91.5t-124.5 -33.5q-33 0 -82 18l-267 94q-93 -104 -210 -104h-72 q-30 0 -62 22z" />
<glyph unicode="&#xa4;" d="M121 -115l147 303q-123 111 -123 310v254q0 198 123 309l-147 303h153l105 -234q84 37 203 37q128 0 223 -45l108 242h154q-88 -176 -156 -315q111 -111 111 -297v-254q0 -182 -111 -293l156 -320h-154q-108 242 -110 242q-95 -45 -221 -45q-119 0 -203 37l-105 -234 h-153zM307 537q0 -156 62 -235t213 -79q76 0 132 26.5t86.5 72t45 99t14.5 116.5v176q0 155 -63.5 234t-214.5 79t-213 -79t-62 -234v-176z" />
<glyph unicode="&#xa5;" d="M86 1364h205l278 -625l25 -69l24 69l277 625h188l-223 -453h219v-127h-284l-86 -190h370v-127h-377l-36 4l6 -35v-436h-174v436l6 35l-37 -4h-379v127h369l-86 190h-283v127h219z" />
<glyph unicode="&#xa6;" horiz-adv-x="790" d="M297 -195v725h197v-725h-197zM297 840v727h197v-727h-197z" />
<glyph unicode="&#xa7;" horiz-adv-x="1290" d="M123 551q0 59 16.5 106.5t46 80.5t60.5 55t71 41q-57 42 -81.5 85.5t-24.5 129.5q0 64 26.5 124t74 107t121 75.5t161.5 28.5q135 0 223 -44.5t197 -153.5q30 -30 30 -51l-129 -66l-16 16q-76 76 -138.5 113t-152.5 37q-113 0 -170 -48.5t-57 -123.5q0 -37 16 -63.5 t47 -42.5t61 -25t73 -17l323 -61q46 -9 87.5 -28.5t85 -57t69.5 -103t26 -151.5q0 -197 -188 -285q29 -28 41 -41.5t29 -41.5t23.5 -62.5t6.5 -83.5q0 -122 -107 -218.5t-263 -96.5q-167 0 -270.5 47t-207.5 151q-30 30 -30 51l129 66l16 -16q80 -80 153.5 -115t190.5 -35 q108 0 163.5 48.5t55.5 123.5q0 37 -16 63.5t-47 42.5t-61.5 25t-75.5 17l-320 57q-35 6 -69 19t-71 39.5t-64.5 62.5t-45.5 93t-18 126zM291 569q0 -48 13 -84t31 -57t49 -36t54 -21t60 -13l385 -69q56 19 83 68.5t27 140.5q0 48 -13 84t-31 57t-49 36t-54 21t-60 13 l-385 71q-56 -19 -83 -69.5t-27 -141.5z" />
<glyph unicode="&#xa8;" horiz-adv-x="839" d="M119 1272v174h176v-174h-176zM547 1272v174h176v-174h-176z" />
<glyph unicode="&#xa9;" horiz-adv-x="1781" d="M133 686q0 217 52.5 365.5t162.5 257.5q201 198 543 198t543 -198q110 -109 162.5 -257.5t52.5 -365.5q0 -225 -51 -371t-160 -254q-207 -204 -547 -204t-547 204q-109 108 -160 254t-51 371zM272 686q0 -214 42.5 -338.5t136.5 -214.5q172 -162 440 -162t440 162 q94 89 136 213.5t42 339.5q0 211 -42.5 334.5t-137.5 212.5q-170 160 -438 160t-438 -160q-95 -89 -138 -212.5t-43 -334.5zM555 686q0 155 23 224.5t71 117.5q92 100 248 100q52 0 97 -12t81.5 -35t58 -41t48.5 -45l28 -28q21 -21 21 -47l-103 -52l-32 33q-96 96 -181 96 q-96 0 -147 -51q-63 -63 -63 -260q0 -110 14 -165t47 -85q47 -47 152 -47q50 0 90.5 24.5t85.5 69.5l36 37l101 -55q0 -18 -21 -43l-26 -29q-27 -28 -44.5 -43.5t-55 -41.5t-84.5 -39t-103 -13q-162 0 -248 86q-48 48 -71 118.5t-23 225.5z" />
<glyph unicode="&#xaa;" horiz-adv-x="882" d="M98 872q0 97 68 160.5t176 77.5l121 16q73 9 100 23.5t27 48.5q0 143 -172 143q-76 0 -150 -69l-53 -51l-96 49q0 35 14 51l27 22q74 64 134.5 94.5t143.5 30.5q145 0 226 -84q36 -37 52.5 -88t16.5 -137v-377q0 -9 5.5 -14.5t13.5 -5.5h69v-105q-31 -24 -55 -24h-47 q-47 0 -78 29t-41 71l-22 -22q-38 -38 -87 -59t-129 -21q-118 0 -191 64t-73 177zM238 877q0 -125 159 -125q86 0 139.5 49.5t53.5 134.5v108l-41 -14l-193 -31q-118 -17 -118 -122z" />
<glyph unicode="&#xab;" horiz-adv-x="1003" d="M88 535v86l266 266h117v-47q0 -25 -18 -43l-158 -158l-66 -53v-17l66 -53l158 -158q18 -18 18 -43v-47h-117zM481 535v86l267 266h116v-47q0 -25 -18 -43l-158 -158l-65 -53v-17l65 -53l158 -158q18 -18 18 -43v-47h-116z" />
<glyph unicode="&#xac;" d="M57 766v154h1053v-699h-166v514l6 35l-37 -4h-856z" />
<glyph unicode="&#xad;" horiz-adv-x="628" d="M94 494v157h441v-157h-441z" />
<glyph unicode="&#xae;" horiz-adv-x="1064" d="M86 987q0 140 49 247t153 170.5t251 63.5q219 0 335.5 -133t116.5 -348q0 -228 -114.5 -363t-337.5 -135q-224 0 -338.5 135t-114.5 363zM168 987q0 -153 45.5 -247t140.5 -142q74 -39 185 -39q110 0 184 39q95 48 140.5 142t45.5 247q0 194 -92.5 303t-277.5 109 t-278 -108.5t-93 -303.5zM358 729v508h224q74 0 114 -43q33 -42 33 -88q0 -55 -27 -95t-84 -50l152 -232h-88l-133 215h-82l-37 4l6 -35v-184h-78zM430 1010l37 4h108q68 0 68 82q0 69 -61 69h-115l-37 4l6 -34v-91z" />
<glyph unicode="&#xaf;" horiz-adv-x="839" d="M164 1286v135h512v-135h-512z" />
<glyph unicode="&#xb0;" horiz-adv-x="774" d="M102 1047q0 117 17.5 171t56.5 93q80 80 211 80q141 0 215 -80q38 -41 54 -94t16 -170q0 -118 -16.5 -175.5t-53.5 -97.5q-74 -80 -215 -80q-140 0 -211 80q-37 43 -55.5 100t-18.5 173zM219 1047q0 -145 36 -198.5t132 -53.5t134 54t38 198q0 136 -38 189.5t-134 53.5 q-95 0 -131.5 -53t-36.5 -190z" />
<glyph unicode="&#xb1;" d="M57 0v152h1053v-152h-1053zM57 688v156h414l37 -4l-6 34v390h166v-390l-6 -34l36 4h412v-156h-412l-36 4l6 -35v-391h-166v391l6 35l-37 -4h-414z" />
<glyph unicode="&#xb2;" horiz-adv-x="765" d="M106 516v184q0 80 55.5 146t145.5 104l103 43q63 26 89.5 52t26.5 79q0 59 -39 96t-100 37q-48 0 -78.5 -15.5t-85.5 -70.5l-16 -16l-96 47q0 32 30 62l11 10q89 102 243 102q117 0 190.5 -67.5t73.5 -180.5q0 -53 -17 -94.5t-50.5 -71t-67 -49t-82.5 -39.5l-100 -40 q-46 -19 -74 -55t-28 -74v-39l-7 -35l37 4h383v-119h-547z" />
<glyph unicode="&#xb3;" horiz-adv-x="745" d="M90 1202q0 29 23 55l14 17q92 102 235 102q108 0 181 -58.5t73 -152.5q0 -67 -31.5 -110.5t-82.5 -57.5v-14q62 -9 102.5 -61.5t40.5 -128.5q0 -97 -64 -166.5t-165.5 -102t-225.5 -32.5h-28q-23 0 -51 18v104h75q159 0 242.5 49.5t83.5 133.5q0 54 -35 81t-78 27 q-27 0 -71 -8l-76 -16l-23 114l105 19q56 11 101.5 46.5t45.5 90.5q0 47 -35 76.5t-94 29.5q-84 0 -151 -83l-15 -19z" />
<glyph unicode="&#xb4;" horiz-adv-x="839" d="M338 1231v55q0 29 16 45l207 182q23 17 43 17h146v-60q0 -10 -5 -24.5t-12 -18.5l-315 -196h-80z" />
<glyph unicode="&#xb6;" horiz-adv-x="1470" d="M137 1053q0 175 109 293q95 100 268 100h748v-1897h-175v1723l7 35l-37 -4h-254l-37 4l6 -35v-1723h-174v1080h-84q-83 0 -137.5 20.5t-102.5 63.5q-61 58 -98.5 146t-38.5 194z" />
<glyph unicode="&#xb7;" horiz-adv-x="532" d="M135 440v262h262v-262h-262z" />
<glyph unicode="&#xb8;" horiz-adv-x="839" d="M250 -319h104q75 0 92 20q19 19 19 55q0 22 -7 35.5t-28 34.5l-57 57q-19 19 -19 43v82h97l102 -112q53 -57 53 -140q0 -100 -57 -153.5t-146 -53.5h-92q-28 0 -61 23v109z" />
<glyph unicode="&#xb9;" horiz-adv-x="514" d="M70 1188v110l176 66h102l-12 -98v-750h-133v696l4 25l-115 -49h-22z" />
<glyph unicode="&#xba;" horiz-adv-x="899" d="M106 1059q0 124 24 198t71 121q90 90 248 90q164 0 251 -90q45 -47 68 -121t23 -198q0 -139 -23 -214t-72 -124q-88 -88 -245 -88q-158 0 -246 88q-50 50 -74.5 125t-24.5 213zM252 1059q0 -106 14.5 -161.5t48.5 -88.5q46 -49 134 -49q86 0 135 49q34 33 48.5 88.5 t14.5 161.5t-12.5 154.5t-44.5 78.5q-46 49 -141 49q-94 0 -140 -49q-32 -30 -44.5 -78.5t-12.5 -154.5z" />
<glyph unicode="&#xbb;" horiz-adv-x="1003" d="M139 268v47q0 24 19 43l157 158l66 53v17l-66 53l-157 158q-19 19 -19 43v47h117l266 -266v-86l-266 -267h-117zM532 268v47q0 24 19 43l158 158l65 53v17l-65 53l-158 158q-19 19 -19 43v47h117l266 -266v-86l-266 -267h-117z" />
<glyph unicode="&#xbc;" horiz-adv-x="1560" d="M70 1188v110l176 66h102l-12 -98v-750h-133v696l4 25l-115 -49h-22zM246 0l776 1364h135l-776 -1364h-135zM866 203v110q0 22 17 43l385 492h114v-510l-6 -35l37 4h72v-104h-72l-37 4l6 -35v-172h-133v172l6 35l-36 -4h-353zM950 307h269l36 -4l-6 35v213l15 141l-11 2 l-270 -358z" />
<glyph unicode="&#xbd;" horiz-adv-x="1652" d="M70 1188v110l176 66h102l-12 -98v-750h-133v696l4 25l-115 -49h-22zM246 0l776 1364h135l-776 -1364h-135zM993 0v184q0 80 55.5 146t145.5 104l102 43q64 27 90.5 52.5t26.5 78.5q0 59 -39 96t-100 37q-48 0 -78.5 -15.5t-85.5 -70.5l-16 -16l-97 47q0 31 31 62 q27 27 42.5 40t47.5 33.5t72 29.5t92 9q117 0 190.5 -67.5t73.5 -180.5q0 -53 -17 -94.5t-50.5 -71t-67 -49t-82.5 -39.5l-100 -41q-46 -19 -74.5 -55t-28.5 -74v-38l-6 -35l37 4h383v-119h-547z" />
<glyph unicode="&#xbe;" horiz-adv-x="1792" d="M90 1202q0 29 23 55l14 17q92 102 235 102q108 0 181 -58.5t73 -152.5q0 -67 -31.5 -110.5t-82.5 -57.5v-14q62 -9 102.5 -61.5t40.5 -128.5q0 -97 -64 -166.5t-165.5 -102t-225.5 -32.5h-28q-23 0 -51 18v104h75q159 0 242.5 49.5t83.5 133.5q0 54 -35 81t-78 27 q-27 0 -71 -8l-76 -16l-23 114l105 19q56 11 101.5 46.5t45.5 90.5q0 47 -35 76.5t-94 29.5q-84 0 -151 -83l-15 -19zM477 0l776 1364h136l-777 -1364h-135zM1098 203v110q0 23 16 43l385 492h115v-510l-6 -35l37 4h71v-104h-71l-37 4l6 -35v-172h-133v172l6 35l-37 -4h-352 zM1182 307h268l37 -4l-6 35v213l14 141l-10 2l-271 -358z" />
<glyph unicode="&#xbf;" horiz-adv-x="890" d="M102 -72q0 149 136 285l96 96q31 31 45.5 48t35.5 50.5t29.5 75t8.5 95.5h151q0 -123 -27.5 -188t-99.5 -138l-125 -127q-94 -94 -94 -207q0 -50 20 -88t51.5 -58.5t65.5 -30t68 -9.5q61 0 104 26.5t125 108.5l29 29l113 -56q0 -8 -7 -23t-12 -20l-27 -26 q-50 -50 -84.5 -79.5t-78 -55t-90 -36t-105.5 -10.5q-139 0 -233.5 89.5t-94.5 248.5zM410 834v219h219v-219h-219z" />
<glyph unicode="&#xc0;" horiz-adv-x="1290" d="M74 0l477 1446h194l467 -1446h-184l-96 309l-4 37l-37 -4h-510l-37 4l-4 -37l-98 -309h-168zM311 1843v60h146q20 0 43 -17l207 -182q16 -16 16 -45v-55h-80l-315 196q-7 4 -12 18.5t-5 24.5zM391 483l37 4h418l37 -4l-15 37l-190 613l-29 127h-20l-31 -127l-190 -613z " />
<glyph unicode="&#xc1;" horiz-adv-x="1290" d="M74 0l477 1446h194l467 -1446h-184l-96 309l-4 37l-37 -4h-510l-37 4l-4 -37l-98 -309h-168zM391 483l37 4h418l37 -4l-15 37l-190 613l-29 127h-20l-31 -127l-190 -613zM563 1604v55q0 28 17 45l206 182q23 17 43 17h146v-60q0 -10 -5 -24.5t-12 -18.5l-315 -196h-80z " />
<glyph unicode="&#xc2;" horiz-adv-x="1290" d="M74 0l477 1446h194l467 -1446h-184l-96 309l-4 37l-37 -4h-510l-37 4l-4 -37l-98 -309h-168zM385 1604v47q0 26 16 45l177 207h135l178 -207q14 -16 14 -45v-47h-121l-133 172h-12l-135 -172h-119zM391 483l37 4h418l37 -4l-15 37l-190 613l-29 127h-20l-31 -127 l-190 -613z" />
<glyph unicode="&#xc3;" horiz-adv-x="1290" d="M74 0l477 1446h194l467 -1446h-184l-96 309l-4 37l-37 -4h-510l-37 4l-4 -37l-98 -309h-168zM295 1683q0 8 5 22.5t11 20.5l54 54q52 52 89.5 71t75.5 19q41 0 75 -18.5t85 -69.5l25 -25q41 -41 67 -41q33 0 74 41l51 51l90 -43q0 -8 -5 -22.5t-11 -20.5l-53 -53 q-52 -52 -89.5 -71t-76.5 -19q-41 0 -75 18.5t-85 69.5l-24 25q-41 41 -68 41q-33 0 -74 -41l-51 -52zM391 483l37 4h418l37 -4l-15 37l-190 613l-29 127h-20l-31 -127l-190 -613z" />
<glyph unicode="&#xc4;" horiz-adv-x="1290" d="M74 0l477 1446h194l467 -1446h-184l-96 309l-4 37l-37 -4h-510l-37 4l-4 -37l-98 -309h-168zM344 1645v174h176v-174h-176zM391 483l37 4h418l37 -4l-15 37l-190 613l-29 127h-20l-31 -127l-190 -613zM772 1645v174h176v-174h-176z" />
<glyph unicode="&#xc5;" horiz-adv-x="1290" d="M74 0l477 1446h194l467 -1446h-184l-96 309l-4 37l-37 -4h-510l-37 4l-4 -37l-98 -309h-168zM391 483l37 4h418l37 -4l-15 37l-190 613l-29 127h-20l-31 -127l-190 -613zM414 1743q0 93 67.5 158t163.5 65q97 0 164.5 -65.5t67.5 -157.5t-67.5 -156.5t-164.5 -64.5 t-164 64.5t-67 156.5zM508 1743q0 -57 40 -97t97 -40t97 40t40 97t-40 98t-97 41t-97 -41t-40 -98z" />
<glyph unicode="&#xc6;" horiz-adv-x="2009" d="M-37 0l864 1446h1022v-146h-737l-37 5l6 -35v-434l-6 -35l37 4h647v-146h-647l-37 5l6 -35v-453l-6 -35l37 4h758v-145h-963v307l4 37l-39 -4h-499l-35 4l-14 -37l-177 -307h-184zM424 481l39 4h414l34 -4l-4 37v793h-20l-78 -174l-358 -619z" />
<glyph unicode="&#xc7;" horiz-adv-x="1374" d="M123 733q0 224 38.5 348t129.5 215q172 172 448 172q267 0 473 -206l48 -48q18 -18 18 -43l-137 -69l-43 45q-168 176 -346 176q-207 0 -326 -119q-67 -65 -95 -171t-28 -300q0 -205 28 -314.5t95 -174.5q56 -55 137 -87t176 -32q63 0 120 15.5t102.5 44.5t76 54t62.5 58 l41 43l137 -70q0 -25 -18 -43l-46 -45q-195 -195 -462 -202l77 -84q54 -58 54 -140q0 -100 -57 -153.5t-146 -53.5h-92q-29 0 -62 23v109h105q75 0 92 20q18 18 18 55q0 23 -7 36.5t-27 33.5l-58 57q-18 18 -18 43v60q-205 19 -340 147q-91 84 -129.5 220t-38.5 380z" />
<glyph unicode="&#xc8;" horiz-adv-x="1306" d="M205 0v1446h942v-146h-737l-37 5l6 -35v-434l-6 -35l37 4h645v-146h-645l-37 5l6 -35v-453l-6 -35l37 4h757v-145h-962zM352 1843v60h146q20 0 43 -17l207 -182q16 -16 16 -45v-55h-80l-315 196q-7 4 -12 18.5t-5 24.5z" />
<glyph unicode="&#xc9;" horiz-adv-x="1306" d="M205 0v1446h942v-146h-737l-37 5l6 -35v-434l-6 -35l37 4h645v-146h-645l-37 5l6 -35v-453l-6 -35l37 4h757v-145h-962zM604 1604v55q0 28 17 45l206 182q23 17 43 17h146v-60q0 -10 -5 -24.5t-12 -18.5l-315 -196h-80z" />
<glyph unicode="&#xca;" horiz-adv-x="1306" d="M205 0v1446h942v-146h-737l-37 5l6 -35v-434l-6 -35l37 4h645v-146h-645l-37 5l6 -35v-453l-6 -35l37 4h757v-145h-962zM426 1604v47q0 26 16 45l176 207h136l178 -207q14 -16 14 -45v-47h-121l-133 172h-12l-135 -172h-119z" />
<glyph unicode="&#xcb;" horiz-adv-x="1306" d="M205 0v1446h942v-146h-737l-37 5l6 -35v-434l-6 -35l37 4h645v-146h-645l-37 5l6 -35v-453l-6 -35l37 4h757v-145h-962zM385 1645v174h176v-174h-176zM813 1645v174h176v-174h-176z" />
<glyph unicode="&#xcc;" horiz-adv-x="583" d="M-43 1843v60h145q20 0 43 -17l207 -182q17 -17 17 -45v-55h-80l-316 196q-16 10 -16 43zM205 0v1446h174v-1446h-174z" />
<glyph unicode="&#xcd;" horiz-adv-x="583" d="M205 0v1446h174v-1446h-174zM209 1604v55q0 29 16 45l207 182q23 17 43 17h146v-60q0 -10 -5 -24.5t-12 -18.5l-315 -196h-80z" />
<glyph unicode="&#xce;" horiz-adv-x="583" d="M31 1604v47q0 26 16 45l176 207h135l179 -207q14 -16 14 -45v-47h-121l-133 172h-12l-135 -172h-119zM205 0v1446h174v-1446h-174z" />
<glyph unicode="&#xcf;" horiz-adv-x="583" d="M-10 1645v174h176v-174h-176zM205 0v1446h174v-1446h-174zM418 1645v174h176v-174h-176z" />
<glyph unicode="&#xd0;" horiz-adv-x="1488" d="M59 666v133h156l37 -4l-6 34v617h545q152 0 253 -40t175 -120q37 -38 59 -74t43 -97t30 -154.5t9 -227.5q0 -188 -22 -310t-55 -180t-89 -110q-145 -133 -403 -133h-545v635l6 35l-37 -4h-156zM414 141l37 4h340q165 0 268 95q42 39 65 82.5t38.5 144.5t15.5 266 q0 215 -26 311.5t-83 153.5q-99 102 -278 102h-340l-37 5l6 -35v-441l-6 -34l37 4h317v-133h-317l-37 4l6 -35v-459z" />
<glyph unicode="&#xd1;" horiz-adv-x="1470" d="M205 0v1446h241l560 -1053l77 -190h21l-4 180v1063h166v-1446h-234l-567 1055l-78 188h-20l4 -180v-1063h-166zM385 1683q0 8 5 22.5t11 20.5l54 54q52 52 89.5 71t76.5 19q40 0 73.5 -18t85.5 -70l25 -25q41 -41 67 -41q33 0 74 41l51 51l90 -43q0 -8 -5 -22.5 t-11 -20.5l-53 -53q-52 -52 -89.5 -71t-76.5 -19q-41 0 -75 18.5t-85 69.5l-24 25q-41 41 -68 41q-33 0 -74 -41l-51 -52z" />
<glyph unicode="&#xd2;" horiz-adv-x="1521" d="M127 725q0 240 34.5 359.5t123.5 209.5q167 174 475 174t479 -174q88 -92 122 -211t34 -358q0 -238 -35.5 -362t-124.5 -213q-170 -170 -475 -170q-302 0 -469 167q-91 91 -127.5 216t-36.5 362zM307 725q0 -203 27 -309.5t94 -171.5q122 -119 332 -119q212 0 336 117 q66 63 92 170t26 313q0 201 -27 307.5t-93 169.5q-121 121 -334 121q-215 0 -334 -119q-66 -64 -92.5 -171t-26.5 -308zM446 1843v60h146q20 0 43 -17l207 -182q16 -16 16 -45v-55h-80l-315 196q-7 4 -12 18.5t-5 24.5z" />
<glyph unicode="&#xd3;" horiz-adv-x="1521" d="M127 725q0 240 34.5 359.5t123.5 209.5q167 174 475 174t479 -174q88 -92 122 -211t34 -358q0 -238 -35.5 -362t-124.5 -213q-170 -170 -475 -170q-302 0 -469 167q-91 91 -127.5 216t-36.5 362zM307 725q0 -203 27 -309.5t94 -171.5q122 -119 332 -119q212 0 336 117 q66 63 92 170t26 313q0 201 -27 307.5t-93 169.5q-121 121 -334 121q-215 0 -334 -119q-66 -64 -92.5 -171t-26.5 -308zM678 1604v55q0 29 16 45l207 182q23 17 43 17h146v-60q0 -10 -5 -24.5t-12 -18.5l-315 -196h-80z" />
<glyph unicode="&#xd4;" horiz-adv-x="1521" d="M127 725q0 240 34.5 359.5t123.5 209.5q167 174 475 174t479 -174q88 -92 122 -211t34 -358q0 -238 -35.5 -362t-124.5 -213q-170 -170 -475 -170q-302 0 -469 167q-91 91 -127.5 216t-36.5 362zM307 725q0 -203 27 -309.5t94 -171.5q122 -119 332 -119q212 0 336 117 q66 63 92 170t26 313q0 201 -27 307.5t-93 169.5q-121 121 -334 121q-215 0 -334 -119q-66 -64 -92.5 -171t-26.5 -308zM500 1604v47q0 26 16 45l176 207h135l179 -207q14 -16 14 -45v-47h-121l-133 172h-12l-136 -172h-118z" />
<glyph unicode="&#xd5;" horiz-adv-x="1521" d="M127 725q0 240 34.5 359.5t123.5 209.5q167 174 475 174t479 -174q88 -92 122 -211t34 -358q0 -238 -35.5 -362t-124.5 -213q-170 -170 -475 -170q-302 0 -469 167q-91 91 -127.5 216t-36.5 362zM307 725q0 -203 27 -309.5t94 -171.5q122 -119 332 -119q212 0 336 117 q66 63 92 170t26 313q0 201 -27 307.5t-93 169.5q-121 121 -334 121q-215 0 -334 -119q-66 -64 -92.5 -171t-26.5 -308zM430 1683q0 8 5 22.5t11 20.5l54 54q52 52 89.5 71t76.5 19q40 0 73.5 -18t85.5 -70l25 -25q41 -41 68 -41q32 0 73 41l51 51l91 -43q0 -8 -5.5 -22.5 t-11.5 -20.5l-53 -53q-52 -52 -89.5 -71t-76.5 -19q-41 0 -75 18.5t-85 69.5l-24 25q-41 41 -68 41q-33 0 -74 -41l-51 -52z" />
<glyph unicode="&#xd6;" horiz-adv-x="1521" d="M127 725q0 240 34.5 359.5t123.5 209.5q167 174 475 174t479 -174q88 -92 122 -211t34 -358q0 -238 -35.5 -362t-124.5 -213q-170 -170 -475 -170q-302 0 -469 167q-91 91 -127.5 216t-36.5 362zM307 725q0 -203 27 -309.5t94 -171.5q122 -119 332 -119q212 0 336 117 q66 63 92 170t26 313q0 201 -27 307.5t-93 169.5q-121 121 -334 121q-215 0 -334 -119q-66 -64 -92.5 -171t-26.5 -308zM459 1645v174h176v-174h-176zM887 1645v174h176v-174h-176z" />
<glyph unicode="&#xd7;" d="M45 139l412 410l26 20q-65 62 -140 135.5t-159.5 157.5t-138.5 137l111 109l409 -410l21 -24l18 24l410 410l108 -111l-407 -405l-29 -23l29 -20l407 -406l-108 -110l-410 407l-18 27l-21 -27l-409 -407z" />
<glyph unicode="&#xd8;" horiz-adv-x="1521" d="M127 725q0 240 34.5 359.5t123.5 209.5q167 174 475 174q158 0 284 -47l80 160h123l-104 -209q48 -30 96 -78q88 -92 122 -211t34 -358q0 -238 -35.5 -362t-126.5 -213q-167 -170 -473 -170q-157 0 -283 47l-82 -164h-123l107 213q-55 36 -90 71q-90 91 -126 216t-36 362 zM307 725q0 -228 32 -332.5t122 -179.5l502 1073q-92 37 -203 37q-212 0 -334 -119q-66 -64 -92.5 -171t-26.5 -308zM557 160q87 -35 203 -35q216 0 334 115q66 63 93 171.5t27 313.5q0 201 -27 307.5t-93 169.5q-17 17 -35 29z" />
<glyph unicode="&#xd9;" horiz-adv-x="1400" d="M182 477v969h174v-948q0 -52 1.5 -84t8.5 -76t20 -71t38.5 -57t61.5 -46.5t90 -27.5t124 -11t123.5 11t90 27.5t61.5 46.5t38.5 57t20.5 70.5t8.5 76t1.5 84.5v948h175v-969q0 -57 -4.5 -103t-18 -99t-36 -94t-62 -80t-92.5 -64.5t-130.5 -41t-173.5 -15.5t-173.5 15.5 t-131 41t-93.5 64.5t-63 80t-36.5 94t-18 99.5t-4.5 102.5zM360 1843v60h146q20 0 43 -17l207 -182q16 -16 16 -45v-55h-80l-315 196q-7 4 -12 18.5t-5 24.5z" />
<glyph unicode="&#xda;" horiz-adv-x="1400" d="M182 477v969h174v-948q0 -52 1.5 -84t8.5 -76t20 -71t38.5 -57t61.5 -46.5t90 -27.5t124 -11t123.5 11t90 27.5t61.5 46.5t38.5 57t20.5 70.5t8.5 76t1.5 84.5v948h175v-969q0 -57 -4.5 -103t-18 -99t-36 -94t-62 -80t-92.5 -64.5t-130.5 -41t-173.5 -15.5t-173.5 15.5 t-131 41t-93.5 64.5t-63 80t-36.5 94t-18 99.5t-4.5 102.5zM612 1604v55q0 28 17 45l207 182q23 17 43 17h145v-60q0 -33 -16 -43l-316 -196h-80z" />
<glyph unicode="&#xdb;" horiz-adv-x="1400" d="M182 477v969h174v-948q0 -52 1.5 -84t8.5 -76t20 -71t38.5 -57t61.5 -46.5t90 -27.5t124 -11t123.5 11t90 27.5t61.5 46.5t38.5 57t20.5 70.5t8.5 76t1.5 84.5v948h175v-969q0 -57 -4.5 -103t-18 -99t-36 -94t-62 -80t-92.5 -64.5t-130.5 -41t-173.5 -15.5t-173.5 15.5 t-131 41t-93.5 64.5t-63 80t-36.5 94t-18 99.5t-4.5 102.5zM434 1604v47q0 25 17 45l176 207h135l178 -207q14 -16 14 -45v-47h-120l-134 172h-12l-135 -172h-119z" />
<glyph unicode="&#xdc;" horiz-adv-x="1400" d="M182 477v969h174v-948q0 -52 1.5 -84t8.5 -76t20 -71t38.5 -57t61.5 -46.5t90 -27.5t124 -11t123.5 11t90 27.5t61.5 46.5t38.5 57t20.5 70.5t8.5 76t1.5 84.5v948h175v-969q0 -57 -4.5 -103t-18 -99t-36 -94t-62 -80t-92.5 -64.5t-130.5 -41t-173.5 -15.5t-173.5 15.5 t-131 41t-93.5 64.5t-63 80t-36.5 94t-18 99.5t-4.5 102.5zM393 1645v174h176v-174h-176zM821 1645v174h176v-174h-176z" />
<glyph unicode="&#xdd;" horiz-adv-x="1277" d="M25 1446h213q34 -64 183 -340t228 -426q78 151 227.5 424.5t186.5 341.5h194l-532 -926v-520h-174v520zM557 1604v55q0 10 4.5 24t11.5 21l207 182q4 3 12 7t16.5 7t14.5 3h146v-60q0 -5 -1.5 -11t-3.5 -12.5t-5 -12t-7 -7.5l-315 -196h-80z" />
<glyph unicode="&#xde;" horiz-adv-x="1277" d="M205 0v1446h174v-264l-6 -35l37 4h301q268 0 385 -127q102 -108 102 -293q0 -201 -117 -315q-59 -57 -144.5 -85t-225.5 -28h-301l-37 4l6 -35v-272h-174zM373 444l37 5h323q151 0 219 72.5t68 209.5q0 127 -69 201t-218 74h-323l-37 4l6 -35v-496z" />
<glyph unicode="&#xdf;" horiz-adv-x="1134" d="M174 0v1108q0 193 96 304.5t283 111.5q179 0 287 -111q47 -49 77.5 -118t30.5 -142q0 -158 -131 -279l-31 -28q-20 -20 -20 -35q0 -17 20 -37l199 -196q47 -47 62 -78q8 -17 11.5 -29t6 -43t2.5 -88q0 -124 -13 -165.5t-67 -96.5q-39 -39 -93.5 -64.5t-111.5 -25.5h-104 q-30 0 -62 22v121h134q90 0 127 43q21 25 28.5 52t7.5 96q0 75 -12 102q-13 26 -59 72l-191 190q-39 39 -39 111q0 67 39 106l49 49q82 82 82 178q0 44 -9.5 84t-33 80t-71.5 64t-115 24q-56 0 -95.5 -14.5t-62.5 -38.5t-36 -66t-17 -86t-4 -108v-1069h-164z" />
<glyph unicode="&#xe0;" horiz-adv-x="1101" d="M96 291q0 123 87.5 203.5t226.5 99.5l161 22q106 14 143.5 36t37.5 73q0 203 -242 203q-63 0 -118 -29t-91 -65l-68 -68l-110 57q0 36 18 54l31 30q80 80 164 121t186 41q203 0 303 -106q46 -49 68 -114t22 -175v-502q0 -18 11.5 -29.5t27.5 -11.5h80v-121 q-26 -26 -96 -26h-23q-68 0 -116.5 40t-48.5 97l-35 -35q-102 -102 -281 -102q-151 0 -244.5 81t-93.5 226zM227 1470v60h146q20 0 43 -17l207 -182q16 -16 16 -45v-55h-80l-315 196q-7 4 -12 18.5t-5 24.5zM256 297q0 -180 225 -180q120 0 195.5 70t75.5 190v151l-70 -24 l-258 -39q-168 -25 -168 -168z" />
<glyph unicode="&#xe1;" horiz-adv-x="1101" d="M96 291q0 123 87.5 203.5t226.5 99.5l161 22q106 14 143.5 36t37.5 73q0 203 -242 203q-63 0 -118 -29t-91 -65l-68 -68l-110 57q0 36 18 54l31 30q80 80 164 121t186 41q203 0 303 -106q46 -49 68 -114t22 -175v-502q0 -18 11.5 -29.5t27.5 -11.5h80v-121 q-26 -26 -96 -26h-23q-68 0 -116.5 40t-48.5 97l-35 -35q-102 -102 -281 -102q-151 0 -244.5 81t-93.5 226zM256 297q0 -180 225 -180q120 0 195.5 70t75.5 190v151l-70 -24l-258 -39q-168 -25 -168 -168zM459 1231v55q0 29 16 45l207 182q23 17 43 17h145v-60 q0 -33 -16 -43l-315 -196h-80z" />
<glyph unicode="&#xe2;" horiz-adv-x="1101" d="M96 291q0 123 87.5 203.5t226.5 99.5l161 22q106 14 143.5 36t37.5 73q0 203 -242 203q-63 0 -118 -29t-91 -65l-68 -68l-110 57q0 36 18 54l31 30q80 80 164 121t186 41q203 0 303 -106q46 -49 68 -114t22 -175v-502q0 -18 11.5 -29.5t27.5 -11.5h80v-121 q-26 -26 -96 -26h-23q-68 0 -116.5 40t-48.5 97l-35 -35q-102 -102 -281 -102q-151 0 -244.5 81t-93.5 226zM256 297q0 -180 225 -180q120 0 195.5 70t75.5 190v151l-70 -24l-258 -39q-168 -25 -168 -168zM281 1231v47q0 26 16 45l176 207h135l178 -207q15 -17 15 -45v-47 h-121l-133 172h-12l-136 -172h-118z" />
<glyph unicode="&#xe3;" horiz-adv-x="1101" d="M96 291q0 123 87.5 203.5t226.5 99.5l161 22q106 14 143.5 36t37.5 73q0 203 -242 203q-63 0 -118 -29t-91 -65l-68 -68l-110 57q0 36 18 54l31 30q80 80 164 121t186 41q203 0 303 -106q46 -49 68 -114t22 -175v-502q0 -18 11.5 -29.5t27.5 -11.5h80v-121 q-26 -26 -96 -26h-23q-68 0 -116.5 40t-48.5 97l-35 -35q-102 -102 -281 -102q-151 0 -244.5 81t-93.5 226zM190 1311q0 8 5.5 22.5t11.5 20.5l53 53q52 52 89.5 71t76.5 19q41 0 75 -18.5t85 -69.5l24 -25q41 -41 68 -41q33 0 74 41l51 52l90 -43q0 -8 -5 -22.5t-11 -20.5 l-54 -54q-52 -52 -89.5 -71t-76.5 -19q-40 0 -73.5 18t-85.5 70l-25 25q-41 41 -67 41q-33 0 -74 -41l-51 -51zM256 297q0 -180 225 -180q120 0 195.5 70t75.5 190v151l-70 -24l-258 -39q-168 -25 -168 -168z" />
<glyph unicode="&#xe4;" horiz-adv-x="1101" d="M96 291q0 123 87.5 203.5t226.5 99.5l161 22q106 14 143.5 36t37.5 73q0 203 -242 203q-63 0 -118 -29t-91 -65l-68 -68l-110 57q0 36 18 54l31 30q80 80 164 121t186 41q203 0 303 -106q46 -49 68 -114t22 -175v-502q0 -18 11.5 -29.5t27.5 -11.5h80v-121 q-26 -26 -96 -26h-23q-68 0 -116.5 40t-48.5 97l-35 -35q-102 -102 -281 -102q-151 0 -244.5 81t-93.5 226zM240 1272v174h176v-174h-176zM256 297q0 -180 225 -180q120 0 195.5 70t75.5 190v151l-70 -24l-258 -39q-168 -25 -168 -168zM668 1272v174h176v-174h-176z" />
<glyph unicode="&#xe5;" horiz-adv-x="1101" d="M96 291q0 123 87.5 203.5t226.5 99.5l161 22q106 14 143.5 36t37.5 73q0 203 -242 203q-63 0 -118 -29t-91 -65l-68 -68l-110 57q0 36 18 54l31 30q80 80 164 121t186 41q203 0 303 -106q46 -49 68 -114t22 -175v-502q0 -18 11.5 -29.5t27.5 -11.5h80v-121 q-26 -26 -96 -26h-23q-68 0 -116.5 40t-48.5 97l-35 -35q-102 -102 -281 -102q-151 0 -244.5 81t-93.5 226zM256 297q0 -180 225 -180q120 0 195.5 70t75.5 190v151l-70 -24l-258 -39q-168 -25 -168 -168zM309 1436q0 92 67.5 157.5t164.5 65.5q96 0 163.5 -65t67.5 -158 q0 -92 -67 -157t-164 -65t-164.5 65t-67.5 157zM403 1436q0 -57 40.5 -97.5t97.5 -40.5t97 40.5t40 97.5t-40 98t-97 41t-97.5 -41t-40.5 -98z" />
<glyph unicode="&#xe6;" horiz-adv-x="1724" d="M96 291q0 123 87.5 203.5t226.5 99.5l161 22q106 14 143.5 36t37.5 73q0 203 -242 203q-63 0 -118 -29t-91 -65l-68 -68l-110 57q0 36 18 54l31 30q80 80 164 121t186 41q224 0 324 -133q111 133 328 133q186 0 299 -113q120 -120 120 -360v-100h-651l-37 4l6 -35v-27 q0 -160 61 -236.5t216 -76.5q129 0 223 94l70 70l110 -58q0 -35 -18 -53l-33 -33q-91 -91 -170.5 -126t-181.5 -35q-216 0 -326 104q-36 33 -55 72l-49 -47q-79 -76 -145 -102.5t-179 -26.5q-151 0 -244.5 81t-93.5 226zM256 297q0 -180 225 -180q120 0 195.5 70t75.5 190 v151l-70 -24l-258 -39q-168 -25 -168 -168zM907 618l37 5h453l37 -5l-7 35v35q0 102 -66 171t-190 69q-72 0 -124 -19t-80 -53.5t-41 -76t-13 -91.5v-35z" />
<glyph unicode="&#xe7;" horiz-adv-x="1038" d="M129 539q0 177 27 261t84 144q116 125 313 125q113 0 189 -36.5t161 -121.5l35 -34q18 -18 18 -54l-110 -57l-70 70q-48 48 -95.5 70t-109.5 22q-128 0 -196 -68q-46 -46 -65 -119t-19 -202q0 -163 17.5 -239t62.5 -116q65 -59 200 -59q111 0 205 94l70 70l110 -58 q0 -35 -18 -53l-35 -35q-79 -79 -156.5 -117.5t-175.5 -41.5l80 -88q54 -58 54 -140q0 -100 -57 -153.5t-146 -53.5h-92q-29 0 -62 23v109h105q75 0 92 20q18 18 18 55q0 22 -7 35.5t-28 34.5l-57 57q-18 18 -18 43v66q-129 19 -207 94q-40 38 -62.5 78.5t-38.5 133.5 t-16 241z" />
<glyph unicode="&#xe8;" horiz-adv-x="1105" d="M129 539q0 167 28 260.5t89 156.5q110 113 309 113q186 0 299 -113q121 -121 121 -360v-100h-651l-37 4l6 -35v-27q0 -161 60.5 -237t215.5 -76q130 0 224 94l69 70l111 -58q0 -34 -19 -53l-32 -33q-91 -91 -171.5 -126t-181.5 -35q-215 0 -325 104q-62 58 -88.5 155 t-26.5 296zM240 1470v60h145q20 0 43 -17l207 -182q16 -16 16 -45v-55h-80l-315 196q-16 10 -16 43zM289 618l37 5h452l37 -5l-6 35v35q0 102 -66 171t-190 69q-72 0 -124 -19t-80 -53.5t-41 -76t-13 -91.5v-35z" />
<glyph unicode="&#xe9;" horiz-adv-x="1105" d="M129 539q0 167 28 260.5t89 156.5q110 113 309 113q186 0 299 -113q121 -121 121 -360v-100h-651l-37 4l6 -35v-27q0 -161 60.5 -237t215.5 -76q130 0 224 94l69 70l111 -58q0 -34 -19 -53l-32 -33q-91 -91 -171.5 -126t-181.5 -35q-215 0 -325 104q-62 58 -88.5 155 t-26.5 296zM289 618l37 5h452l37 -5l-6 35v35q0 102 -66 171t-190 69q-72 0 -124 -19t-80 -53.5t-41 -76t-13 -91.5v-35zM471 1231v55q0 29 16 45l207 182q23 17 43 17h146v-60q0 -10 -5 -24.5t-12 -18.5l-315 -196h-80z" />
<glyph unicode="&#xea;" horiz-adv-x="1105" d="M129 539q0 167 28 260.5t89 156.5q110 113 309 113q186 0 299 -113q121 -121 121 -360v-100h-651l-37 4l6 -35v-27q0 -161 60.5 -237t215.5 -76q130 0 224 94l69 70l111 -58q0 -34 -19 -53l-32 -33q-91 -91 -171.5 -126t-181.5 -35q-215 0 -325 104q-62 58 -88.5 155 t-26.5 296zM289 618l37 5h452l37 -5l-6 35v35q0 102 -66 171t-190 69q-72 0 -124 -19t-80 -53.5t-41 -76t-13 -91.5v-35zM293 1231v47q0 26 16 45l176 207h136l178 -207q14 -16 14 -45v-47h-121l-133 172h-12l-135 -172h-119z" />
<glyph unicode="&#xeb;" horiz-adv-x="1105" d="M129 539q0 167 28 260.5t89 156.5q110 113 309 113q186 0 299 -113q121 -121 121 -360v-100h-651l-37 4l6 -35v-27q0 -161 60.5 -237t215.5 -76q130 0 224 94l69 70l111 -58q0 -34 -19 -53l-32 -33q-91 -91 -171.5 -126t-181.5 -35q-215 0 -325 104q-62 58 -88.5 155 t-26.5 296zM252 1272v174h176v-174h-176zM289 618l37 5h452l37 -5l-6 35v35q0 102 -66 171t-190 69q-72 0 -124 -19t-80 -53.5t-41 -76t-13 -91.5v-35zM680 1272v174h176v-174h-176z" />
<glyph unicode="&#xec;" horiz-adv-x="532" d="M-68 1470v60h146q20 0 43 -17l207 -182q16 -16 16 -45v-55h-80l-315 196q-7 4 -12 18.5t-5 24.5zM184 0v1053h164v-1053h-164z" />
<glyph unicode="&#xed;" horiz-adv-x="532" d="M184 0v1053h164v-1053h-164zM184 1231v55q0 28 17 45l207 182q23 17 43 17h145v-60q0 -33 -16 -43l-316 -196h-80z" />
<glyph unicode="&#xee;" horiz-adv-x="532" d="M6 1231v47q0 25 17 45l176 207h135l178 -207q14 -16 14 -45v-47h-120l-134 172h-12l-135 -172h-119zM184 0v1053h164v-1053h-164z" />
<glyph unicode="&#xef;" horiz-adv-x="532" d="M-35 1272v174h176v-174h-176zM184 0v1053h164v-1053h-164zM393 1272v174h176v-174h-176z" />
<glyph unicode="&#xf0;" horiz-adv-x="1142" d="M129 539q0 162 30 258t91 157q115 115 321 115q71 0 142 -37q-38 58 -99 125t-118 117l-205 -80q-28 -8 -31 -8h-14v100l162 64q-56 45 -103 73q-14 14 -14 43l112 58q83 -62 150 -117l190 74q28 8 31 8h14v-100l-149 -58q114 -108 191 -215.5t115.5 -208.5t53.5 -187 t15 -181q0 -183 -29.5 -281t-93.5 -162q-112 -112 -318 -112q-207 0 -319 112q-64 64 -94.5 162.5t-30.5 280.5zM295 528q0 -144 18.5 -218t59.5 -117q65 -68 198 -68q134 0 199 68q41 43 59.5 117t18.5 218t-18 216.5t-60 115.5q-65 68 -199 68q-133 0 -198 -68 q-42 -43 -60 -115.5t-18 -216.5z" />
<glyph unicode="&#xf1;" horiz-adv-x="1163" d="M184 0v1053h154v-144l53 54q60 60 121.5 83t140.5 23q155 0 252 -100q92 -98 92 -287v-682h-163v711q0 40 -10.5 75.5t-34.5 69t-70.5 53t-110.5 19.5q-119 0 -189.5 -62t-70.5 -155v-711h-164zM231 1311q0 8 5.5 22.5t11.5 20.5l53 53q52 52 89.5 71t76.5 19 q41 0 75 -18.5t85 -69.5l24 -25q41 -41 68 -41q33 0 74 41l51 52l90 -43q0 -8 -5 -22.5t-11 -20.5l-54 -54q-52 -52 -89.5 -71t-76.5 -19q-40 0 -73.5 18t-85.5 70l-25 25q-41 41 -68 41q-32 0 -73 -41l-51 -51z" />
<glyph unicode="&#xf2;" horiz-adv-x="1142" d="M129 528q0 164 29.5 265t89.5 161q115 115 325 115q205 0 320 -115q61 -61 91 -161.5t30 -264.5q0 -309 -121 -430q-114 -114 -320 -114q-211 0 -325 114q-60 60 -89.5 162.5t-29.5 267.5zM258 1470v60h145q20 0 43 -17l207 -182q17 -17 17 -45v-55h-80l-316 196 q-16 10 -16 43zM295 528q0 -144 18.5 -218t59.5 -117q65 -68 198 -68q134 0 199 68q41 43 59.5 117t18.5 218t-18 216.5t-60 115.5q-65 68 -199 68q-133 0 -198 -68q-42 -43 -60 -115.5t-18 -216.5z" />
<glyph unicode="&#xf3;" horiz-adv-x="1142" d="M129 528q0 164 29.5 265t89.5 161q115 115 325 115q205 0 320 -115q61 -61 91 -161.5t30 -264.5q0 -309 -121 -430q-114 -114 -320 -114q-211 0 -325 114q-60 60 -89.5 162.5t-29.5 267.5zM295 528q0 -144 18.5 -218t59.5 -117q65 -68 198 -68q134 0 199 68 q41 43 59.5 117t18.5 218t-18 216.5t-60 115.5q-65 68 -199 68q-133 0 -198 -68q-42 -43 -60 -115.5t-18 -216.5zM489 1231v55q0 28 17 45l207 182q23 17 43 17h145v-60q0 -33 -16 -43l-316 -196h-80z" />
<glyph unicode="&#xf4;" horiz-adv-x="1142" d="M129 528q0 164 29.5 265t89.5 161q115 115 325 115q205 0 320 -115q61 -61 91 -161.5t30 -264.5q0 -309 -121 -430q-114 -114 -320 -114q-211 0 -325 114q-60 60 -89.5 162.5t-29.5 267.5zM295 528q0 -144 18.5 -218t59.5 -117q65 -68 198 -68q134 0 199 68 q41 43 59.5 117t18.5 218t-18 216.5t-60 115.5q-65 68 -199 68q-133 0 -198 -68q-42 -43 -60 -115.5t-18 -216.5zM311 1231v47q0 25 17 45l176 207h135l178 -207q14 -16 14 -45v-47h-120l-133 172h-13l-135 -172h-119z" />
<glyph unicode="&#xf5;" horiz-adv-x="1142" d="M129 528q0 164 29.5 265t89.5 161q115 115 325 115q205 0 320 -115q61 -61 91 -161.5t30 -264.5q0 -309 -121 -430q-114 -114 -320 -114q-211 0 -325 114q-60 60 -89.5 162.5t-29.5 267.5zM221 1311q0 8 5.5 22.5t11.5 20.5l53 53q52 52 89.5 71t76.5 19q40 0 73.5 -18 t85.5 -70l25 -25q41 -41 68 -41q32 0 73 41l52 52l90 -43q0 -8 -5.5 -22.5t-11.5 -20.5l-53 -54q-52 -52 -89.5 -71t-76.5 -19q-41 0 -75 18.5t-85 69.5l-24 25q-41 41 -68 41q-33 0 -74 -41l-51 -51zM295 528q0 -144 18.5 -218t59.5 -117q65 -68 198 -68q134 0 199 68 q41 43 59.5 117t18.5 218t-18 216.5t-60 115.5q-65 68 -199 68q-133 0 -198 -68q-42 -43 -60 -115.5t-18 -216.5z" />
<glyph unicode="&#xf6;" horiz-adv-x="1142" d="M129 528q0 164 29.5 265t89.5 161q115 115 325 115q205 0 320 -115q61 -61 91 -161.5t30 -264.5q0 -309 -121 -430q-114 -114 -320 -114q-211 0 -325 114q-60 60 -89.5 162.5t-29.5 267.5zM270 1272v174h176v-174h-176zM295 528q0 -144 18.5 -218t59.5 -117 q65 -68 198 -68q134 0 199 68q41 43 59.5 117t18.5 218t-18 216.5t-60 115.5q-65 68 -199 68q-133 0 -198 -68q-42 -43 -60 -115.5t-18 -216.5zM698 1272v174h176v-174h-176z" />
<glyph unicode="&#xf7;" d="M106 494v153h955v-153h-955zM477 0v213h215v-213h-215zM477 926v215h215v-215h-215z" />
<glyph unicode="&#xf8;" horiz-adv-x="1142" d="M129 539q0 162 30 258t91 157q115 115 321 115q103 0 197 -33l68 135h122l-98 -190q82 -68 118 -164t36 -278q0 -183 -29.5 -281t-93.5 -162q-112 -112 -318 -112q-105 0 -196 32l-78 -153h-123l105 205q-83 66 -117.5 167t-34.5 304zM295 539q0 -133 14 -210t49 -120 l336 700q-52 19 -123 19q-133 0 -198 -68q-42 -44 -60 -111.5t-18 -209.5zM449 143q44 -18 122 -18q132 0 193 61q46 44 65 124t19 229q0 129 -15 196t-49 109z" />
<glyph unicode="&#xf9;" horiz-adv-x="1163" d="M166 371v682h164v-711q0 -31 6 -60t22 -58.5t40 -50.5t63.5 -34.5t89.5 -13.5q123 0 193.5 62t70.5 155v711h164v-1053h-154v143l-57 -57q-56 -56 -118 -79t-142 -23q-150 0 -246 96q-96 99 -96 291zM248 1470v60h145q20 0 43 -17l207 -182q16 -16 16 -45v-55h-79 l-316 196q-16 10 -16 43z" />
<glyph unicode="&#xfa;" horiz-adv-x="1163" d="M166 371v682h164v-711q0 -31 6 -60t22 -58.5t40 -50.5t63.5 -34.5t89.5 -13.5q123 0 193.5 62t70.5 155v711h164v-1053h-154v143l-57 -57q-56 -56 -118 -79t-142 -23q-150 0 -246 96q-96 99 -96 291zM500 1231v55q0 29 16 45l207 182q23 17 43 17h145v-60q0 -33 -16 -43 l-315 -196h-80z" />
<glyph unicode="&#xfb;" horiz-adv-x="1163" d="M166 371v682h164v-711q0 -31 6 -60t22 -58.5t40 -50.5t63.5 -34.5t89.5 -13.5q123 0 193.5 62t70.5 155v711h164v-1053h-154v143l-57 -57q-56 -56 -118 -79t-142 -23q-150 0 -246 96q-96 99 -96 291zM322 1231v47q0 26 16 45l176 207h135l178 -207q15 -17 15 -45v-47 h-121l-133 172h-13l-135 -172h-118z" />
<glyph unicode="&#xfc;" horiz-adv-x="1163" d="M166 371v682h164v-711q0 -31 6 -60t22 -58.5t40 -50.5t63.5 -34.5t89.5 -13.5q123 0 193.5 62t70.5 155v711h164v-1053h-154v143l-57 -57q-56 -56 -118 -79t-142 -23q-150 0 -246 96q-96 99 -96 291zM281 1272v174h176v-174h-176zM709 1272v174h176v-174h-176z" />
<glyph unicode="&#xfd;" horiz-adv-x="964" d="M6 1053h184l275 -768l22 -92h11l24 92l248 768h182l-440 -1205q-18 -50 -36.5 -91t-44 -82t-53.5 -68.5t-64.5 -44.5t-77.5 -17h-7q-65 0 -92 27v121h82q51 0 82.5 41t60.5 119l48 131zM399 1231v55q0 28 17 45l207 182q23 17 43 17h145v-60q0 -33 -16 -43l-316 -196h-80 z" />
<glyph unicode="&#xfe;" horiz-adv-x="1155" d="M184 -451v1958h164v-592l47 48q53 53 110.5 79.5t139.5 26.5q173 0 275 -102q55 -55 80.5 -156.5t25.5 -282.5q0 -193 -28.5 -292t-86.5 -156q-101 -96 -272 -96q-79 0 -135 22.5t-109 75.5l-47 47v-580h-164zM348 336q0 -83 65.5 -147t190.5 -64q120 0 182 59 q44 41 61 119t17 227q0 138 -15.5 215.5t-57.5 118.5q-64 64 -185 64q-126 0 -192 -64.5t-66 -148.5v-379z" />
<glyph unicode="&#xff;" horiz-adv-x="964" d="M6 1053h184l275 -768l22 -92h11l24 92l248 768h182l-440 -1205q-18 -50 -36.5 -91t-44 -82t-53.5 -68.5t-64.5 -44.5t-77.5 -17h-7q-65 0 -92 27v121h82q51 0 82.5 41t60.5 119l48 131zM180 1272v174h176v-174h-176zM608 1272v174h176v-174h-176z" />
<glyph unicode="&#x152;" horiz-adv-x="2310" d="M127 725q0 240 34.5 359.5t123.5 209.5q167 174 475 174q284 0 448 -182v160h942v-146h-737l-37 5l6 -35v-434l-6 -35l37 4h645v-146h-645l-37 5l6 -35v-453l-6 -35l37 4h758v-145h-963v164q-173 -184 -448 -184q-301 0 -471 167q-90 91 -126 216t-36 362zM307 725 q0 -205 26.5 -310.5t92.5 -170.5q122 -119 334 -119q206 0 334 121q66 63 93 169t27 310q0 201 -27 307.5t-93 169.5q-121 121 -334 121q-215 0 -334 -119q-66 -64 -92.5 -171t-26.5 -308z" />
<glyph unicode="&#x153;" horiz-adv-x="1820" d="M129 539q0 162 30 258t91 157q115 115 321 115q124 0 225 -52.5t132 -133.5q30 78 126 132t216 54q186 0 299 -113q121 -121 121 -360v-100h-652l-37 4l7 -35v-27q0 -161 60.5 -237t215.5 -76q129 0 223 94l70 70l111 -58q0 -34 -19 -53l-33 -33q-92 -92 -170 -126.5 t-182 -34.5q-136 0 -236 50t-126 132q-34 -80 -131.5 -131t-217.5 -51q-207 0 -319 112q-64 64 -94.5 162.5t-30.5 280.5zM295 528q0 -144 18.5 -218t59.5 -117q65 -68 198 -68q134 0 199 68q41 43 59.5 117t18.5 218t-18 216.5t-60 115.5q-65 68 -199 68q-133 0 -198 -68 q-42 -43 -60 -115.5t-18 -216.5zM1004 618l36 5h453l37 -5l-6 35v35q0 102 -66 171t-190 69q-72 0 -124 -19t-80 -53.5t-41 -76t-13 -91.5v-35z" />
<glyph unicode="&#x178;" horiz-adv-x="1277" d="M25 1446h213q34 -64 183 -340t228 -426q78 151 227.5 424.5t186.5 341.5h194l-532 -926v-520h-174v520zM338 1645v174h176v-174h-176zM766 1645v174h176v-174h-176z" />
<glyph unicode="&#x2c6;" horiz-adv-x="839" d="M160 1231v47q0 26 16 45l176 207h135l179 -207q14 -16 14 -45v-47h-121l-133 172h-12l-135 -172h-119z" />
<glyph unicode="&#x2dc;" horiz-adv-x="839" d="M70 1311q0 8 5 22.5t11 20.5l53 53q52 52 89.5 71t76.5 19q41 0 75 -18.5t85 -69.5l24 -25q41 -41 68 -41q33 0 74 41l51 52l90 -43q0 -8 -5 -22.5t-11 -20.5l-54 -54q-52 -52 -89.5 -71t-75.5 -19q-41 0 -75 18.5t-85 69.5l-25 25q-41 41 -67 41q-33 0 -74 -41l-51 -51z " />
<glyph unicode="&#x2000;" horiz-adv-x="983" />
<glyph unicode="&#x2001;" horiz-adv-x="1966" />
<glyph unicode="&#x2002;" horiz-adv-x="983" />
<glyph unicode="&#x2003;" horiz-adv-x="1966" />
<glyph unicode="&#x2004;" horiz-adv-x="655" />
<glyph unicode="&#x2005;" horiz-adv-x="491" />
<glyph unicode="&#x2006;" horiz-adv-x="327" />
<glyph unicode="&#x2007;" horiz-adv-x="327" />
<glyph unicode="&#x2008;" horiz-adv-x="245" />
<glyph unicode="&#x2009;" horiz-adv-x="393" />
<glyph unicode="&#x200a;" horiz-adv-x="109" />
<glyph unicode="&#x2010;" horiz-adv-x="628" d="M94 494v157h441v-157h-441z" />
<glyph unicode="&#x2011;" horiz-adv-x="628" d="M94 494v157h441v-157h-441z" />
<glyph unicode="&#x2012;" horiz-adv-x="628" d="M94 494v157h441v-157h-441z" />
<glyph unicode="&#x2013;" d="M82 494v153h1003v-153h-1003z" />
<glyph unicode="&#x2014;" horiz-adv-x="2048" d="M82 494v153h1884v-153h-1884z" />
<glyph unicode="&#x2018;" horiz-adv-x="444" d="M113 954v289q0 61 20 107t53.5 70.5t70 36t75.5 11.5l22 -102q-73 -6 -98 -34.5t-25 -100.5v-57h41q60 0 60 -62v-158h-219z" />
<glyph unicode="&#x2019;" horiz-adv-x="444" d="M90 1034q73 6 98 34.5t25 100.5v58h-41q-31 0 -45 14.5t-14 46.5v158h219v-289q0 -61 -20 -107t-53.5 -70.5t-70 -36t-75.5 -11.5z" />
<glyph unicode="&#x201a;" horiz-adv-x="444" d="M90 -193q73 6 98 35t25 101v57h-41q-31 0 -45 14.5t-14 46.5v158h219v-289q0 -61 -20 -107t-53.5 -70.5t-70 -36t-75.5 -11.5z" />
<glyph unicode="&#x201c;" horiz-adv-x="821" d="M113 954v289q0 61 20 107t53.5 70.5t70 36t75.5 11.5l22 -102q-73 -6 -98 -34.5t-25 -100.5v-57h41q60 0 60 -62v-158h-219zM489 954v289q0 61 20.5 107t54 70.5t70 36t75.5 11.5l22 -102q-73 -6 -98 -34.5t-25 -100.5v-57h41q60 0 60 -62v-158h-220z" />
<glyph unicode="&#x201d;" horiz-adv-x="821" d="M90 1034q73 6 98 34.5t25 100.5v58h-41q-31 0 -45 14.5t-14 46.5v158h219v-289q0 -61 -20 -107t-53.5 -70.5t-70 -36t-75.5 -11.5zM467 1034q73 6 98 34.5t25 100.5v58h-41q-60 0 -60 61v158h220v-289q0 -61 -20.5 -107t-54 -70.5t-70 -36t-75.5 -11.5z" />
<glyph unicode="&#x201e;" horiz-adv-x="821" d="M90 -193q73 6 98 35t25 101v57h-41q-31 0 -45 14.5t-14 46.5v158h219v-289q0 -61 -20 -107t-53.5 -70.5t-70 -36t-75.5 -11.5zM467 -193q73 6 98 35t25 101v57h-41q-60 0 -60 61v158h220v-289q0 -61 -20.5 -107t-54 -70.5t-70 -36t-75.5 -11.5z" />
<glyph unicode="&#x2022;" horiz-adv-x="911" d="M154 578q0 138 82.5 220.5t220.5 82.5t220.5 -82.5t82.5 -220.5t-82.5 -221t-220.5 -83t-220.5 83t-82.5 221z" />
<glyph unicode="&#x2026;" horiz-adv-x="2048" d="M295 0v219h219v-219h-219zM913 0v219h220v-219h-220zM1532 0v219h219v-219h-219z" />
<glyph unicode="&#x202f;" horiz-adv-x="393" />
<glyph unicode="&#x2039;" horiz-adv-x="610" d="M88 535v86l266 266h117v-47q0 -25 -18 -43l-158 -158l-66 -53v-17l66 -53l158 -158q18 -18 18 -43v-47h-117z" />
<glyph unicode="&#x203a;" horiz-adv-x="610" d="M139 268v47q0 24 19 43l157 158l66 53v17l-66 53l-157 158q-19 19 -19 43v47h117l266 -266v-86l-266 -267h-117z" />
<glyph unicode="&#x205f;" horiz-adv-x="491" />
<glyph unicode="&#x20ac;" d="M86 467v127h139l37 -4l-6 35v129l6 34l-37 -4h-139v127h139l37 -4l-6 35v90q0 69 20.5 129.5t63 112t118.5 81t177 29.5q95 0 164.5 -21.5t117.5 -56.5t117 -104l25 -24q16 -16 16 -41l-129 -66l-45 45q-66 66 -120.5 94.5t-137.5 28.5q-117 0 -162 -56t-45 -167v-74 l-6 -35l37 4h346v-127h-346l-37 4l6 -34v-129l-6 -35l37 4h346v-127h-346l-37 4l6 -35v-88q0 -219 207 -219q48 0 83.5 8t70.5 30t60.5 44.5t70.5 67.5l18 18l129 -66q0 -25 -16 -41l-27 -26q-37 -37 -58.5 -56.5t-61.5 -47t-77.5 -41.5t-94 -24.5t-124.5 -10.5 q-80 0 -142.5 20t-103 53t-66.5 79t-37 95.5t-11 104.5v100l6 35l-37 -4h-139z" />
<glyph unicode="&#x2122;" horiz-adv-x="1312" d="M72 1366v80h430v-80h-137l-37 4l6 -35v-475h-96v475l6 35l-37 -4h-135zM596 860v586h152l133 -373h10l133 373h150v-586h-91v453l2 57h-8q-24 -82 -76.5 -225.5t-62.5 -173.5h-107l-122 342l-17 57h-8l2 -57v-453h-90z" />
<glyph unicode="&#xe000;" horiz-adv-x="1054" d="M0 0v1055h1055v-1055h-1055z" />
</font>
</defs>
</svg>
